<?xml version="1.0" encoding="utf-8" standalone="no"?>
<!DOCTYPE svg PUBLIC "-//W3C//DTD SVG 1.1//EN"
  "http://www.w3.org/Graphics/SVG/1.1/DTD/svg11.dtd">
<!-- Created with matplotlib (https://matplotlib.org/) -->
<svg height="405.747701pt" version="1.1" viewBox="0 0 960.48574 405.747701" width="960.48574pt" xmlns="http://www.w3.org/2000/svg" xmlns:xlink="http://www.w3.org/1999/xlink">
 <metadata>
  <rdf:RDF xmlns:cc="http://creativecommons.org/ns#" xmlns:dc="http://purl.org/dc/elements/1.1/" xmlns:rdf="http://www.w3.org/1999/02/22-rdf-syntax-ns#">
   <cc:Work>
    <dc:type rdf:resource="http://purl.org/dc/dcmitype/StillImage"/>
    <dc:date>2021-07-19T10:03:35.755496</dc:date>
    <dc:format>image/svg+xml</dc:format>
    <dc:creator>
     <cc:Agent>
      <dc:title>Matplotlib v3.3.4, https://matplotlib.org/</dc:title>
     </cc:Agent>
    </dc:creator>
   </cc:Work>
  </rdf:RDF>
 </metadata>
 <defs>
  <style type="text/css">*{stroke-linecap:butt;stroke-linejoin:round;}</style>
 </defs>
 <g id="figure_1">
  <g id="patch_1">
   <path d="M 0 405.747701 
L 960.48574 405.747701 
L 960.48574 0 
L 0 0 
z
" style="fill:none;"/>
  </g>
  <g id="axes_1">
   <g id="patch_2">
    <path d="M 85.25374 342.382203 
L 479.81374 342.382203 
L 479.81374 15.502203 
L 85.25374 15.502203 
z
" style="fill:#ffffff;"/>
   </g>
   <g id="PolyCollection_1">
    <path clip-path="url(#pb2afda166d)" d="M -0.491877 163455.502203 
L -0.491877 46.079644 
L 85.985746 54.60041 
L 124.696072 63.121176 
L 152.294012 71.641942 
L 174.426852 80.162708 
L 193.022846 88.683474 
L 209.272399 97.20424 
L 223.726931 105.725006 
L 236.967819 114.245772 
L 249.349816 122.766538 
L 260.898991 131.287304 
L 271.732734 139.808071 
L 282.03619 148.328837 
L 291.756484 156.849603 
L 301.302908 165.370369 
L 310.259692 173.891135 
L 319.163762 182.411901 
L 327.729982 190.932667 
L 336.153788 199.453433 
L 344.167682 207.974199 
L 352.042788 216.494965 
L 359.842947 225.015731 
L 367.513732 233.536498 
L 375.134365 242.057264 
L 382.524245 250.57803 
L 389.862867 259.098796 
L 396.969799 267.619562 
L 403.819676 276.140328 
L 410.955743 284.661094 
L 418.05791 293.18186 
L 417.883377 293.18186 
L 422.48082 298.648565 
L 426.765752 304.11527 
L 430.911775 309.581974 
L 435.398785 315.048679 
L 439.595404 320.515384 
L 443.946246 325.982088 
L 448.304797 331.448793 
L 452.776921 336.915498 
L 456.942043 342.382203 
L 456.942043 163455.502203 
L 456.942043 163455.502203 
L 452.776921 163455.502203 
L 448.304797 163455.502203 
L 443.946246 163455.502203 
L 439.595404 163455.502203 
L 435.398785 163455.502203 
L 430.911775 163455.502203 
L 426.765752 163455.502203 
L 422.48082 163455.502203 
L 417.883377 163455.502203 
L 418.05791 163455.502203 
L 410.955743 163455.502203 
L 403.819676 163455.502203 
L 396.969799 163455.502203 
L 389.862867 163455.502203 
L 382.524245 163455.502203 
L 375.134365 163455.502203 
L 367.513732 163455.502203 
L 359.842947 163455.502203 
L 352.042788 163455.502203 
L 344.167682 163455.502203 
L 336.153788 163455.502203 
L 327.729982 163455.502203 
L 319.163762 163455.502203 
L 310.259692 163455.502203 
L 301.302908 163455.502203 
L 291.756484 163455.502203 
L 282.03619 163455.502203 
L 271.732734 163455.502203 
L 260.898991 163455.502203 
L 249.349816 163455.502203 
L 236.967819 163455.502203 
L 223.726931 163455.502203 
L 209.272399 163455.502203 
L 193.022846 163455.502203 
L 174.426852 163455.502203 
L 152.294012 163455.502203 
L 124.696072 163455.502203 
L 85.985746 163455.502203 
L -0.491877 163455.502203 
z
" style="fill:#d62728;fill-opacity:0.4;stroke:#d62728;stroke-opacity:0.4;"/>
   </g>
   <g id="PolyCollection_2">
    <path clip-path="url(#pb2afda166d)" d="M 213.837289 163455.502203 
L 213.837289 346.71279 
L 215.330375 336.730636 
L 216.639659 328.332842 
L 216.956229 326.351194 
L 217.849042 320.863176 
L 218.76727 315.371911 
L 219.976872 308.370121 
L 220.789438 303.811723 
L 222.302476 295.627149 
L 222.709343 293.492345 
L 223.032204 291.817944 
L 224.990742 282.02591 
L 226.086901 276.812765 
L 228.081696 267.800646 
L 230.31866 258.39598 
L 232.281143 250.729013 
L 233.868373 244.910367 
L 236.540939 235.850146 
L 239.387198 227.164485 
L 242.474508 218.793804 
L 247.110667 208.111131 
L 251.806878 199.375826 
L 259.230347 189.278161 
L 273.961707 179.81751 
L 289.368488 180.30816 
L 311.650805 191.396888 
L 324.293656 200.462346 
L 335.652992 209.471557 
L 345.507131 217.73952 
L 354.537845 225.641064 
L 363.091147 233.430856 
L 371.978455 241.892026 
L 380.107417 250.014971 
L 387.674667 257.950165 
L 396.008743 267.139774 
L 403.215166 275.473633 
L 409.195342 282.649684 
L 418.010858 293.597385 
L 422.48082 299.275504 
L 426.176358 304.008526 
L 426.765752 304.765231 
L 430.911775 310.090484 
L 435.398785 315.828558 
L 439.595404 321.127376 
L 443.946246 326.498229 
L 448.304797 331.691162 
L 452.776921 336.749052 
L 456.942043 341.136966 
L 456.942043 163455.502203 
L 456.942043 163455.502203 
L 452.776921 163455.502203 
L 448.304797 163455.502203 
L 443.946246 163455.502203 
L 439.595404 163455.502203 
L 435.398785 163455.502203 
L 430.911775 163455.502203 
L 426.765752 163455.502203 
L 426.176358 163455.502203 
L 422.48082 163455.502203 
L 418.010858 163455.502203 
L 409.195342 163455.502203 
L 403.215166 163455.502203 
L 396.008743 163455.502203 
L 387.674667 163455.502203 
L 380.107417 163455.502203 
L 371.978455 163455.502203 
L 363.091147 163455.502203 
L 354.537845 163455.502203 
L 345.507131 163455.502203 
L 335.652992 163455.502203 
L 324.293656 163455.502203 
L 311.650805 163455.502203 
L 289.368488 163455.502203 
L 273.961707 163455.502203 
L 259.230347 163455.502203 
L 251.806878 163455.502203 
L 247.110667 163455.502203 
L 242.474508 163455.502203 
L 239.387198 163455.502203 
L 236.540939 163455.502203 
L 233.868373 163455.502203 
L 232.281143 163455.502203 
L 230.31866 163455.502203 
L 228.081696 163455.502203 
L 226.086901 163455.502203 
L 224.990742 163455.502203 
L 223.032204 163455.502203 
L 222.709343 163455.502203 
L 222.302476 163455.502203 
L 220.789438 163455.502203 
L 219.976872 163455.502203 
L 218.76727 163455.502203 
L 217.849042 163455.502203 
L 216.956229 163455.502203 
L 216.639659 163455.502203 
L 215.330375 163455.502203 
L 213.837289 163455.502203 
z
" style="fill:#ffffff;stroke:#ffffff;"/>
   </g>
   <g id="PolyCollection_3">
    <path clip-path="url(#pb2afda166d)" d="M 213.837289 163455.502203 
L 213.837289 346.71279 
L 215.330375 336.730636 
L 216.639659 328.332842 
L 216.956229 326.351194 
L 217.849042 320.863176 
L 218.76727 315.371911 
L 219.976872 308.370121 
L 220.789438 303.811723 
L 222.302476 295.627149 
L 222.709343 293.492345 
L 223.032204 291.817944 
L 224.990742 282.02591 
L 226.086901 276.812765 
L 228.081696 267.800646 
L 230.31866 258.39598 
L 232.281143 250.729013 
L 233.868373 244.910367 
L 236.540939 235.850146 
L 239.387198 227.164485 
L 242.474508 218.793804 
L 247.110667 208.111131 
L 251.806878 199.375826 
L 259.230347 189.278161 
L 273.961707 179.81751 
L 289.368488 180.30816 
L 311.650805 191.396888 
L 324.293656 200.462346 
L 335.652992 209.471557 
L 345.507131 217.73952 
L 354.537845 225.641064 
L 363.091147 233.430856 
L 371.978455 241.892026 
L 380.107417 250.014971 
L 387.674667 257.950165 
L 396.008743 267.139774 
L 403.215166 275.473633 
L 409.195342 282.649684 
L 418.010858 293.597385 
L 422.48082 299.275504 
L 426.176358 304.008526 
L 426.765752 304.765231 
L 430.911775 310.090484 
L 435.398785 315.828558 
L 439.595404 321.127376 
L 443.946246 326.498229 
L 448.304797 331.691162 
L 452.776921 336.749052 
L 456.942043 341.136966 
L 456.942043 163455.502203 
L 456.942043 163455.502203 
L 452.776921 163455.502203 
L 448.304797 163455.502203 
L 443.946246 163455.502203 
L 439.595404 163455.502203 
L 435.398785 163455.502203 
L 430.911775 163455.502203 
L 426.765752 163455.502203 
L 426.176358 163455.502203 
L 422.48082 163455.502203 
L 418.010858 163455.502203 
L 409.195342 163455.502203 
L 403.215166 163455.502203 
L 396.008743 163455.502203 
L 387.674667 163455.502203 
L 380.107417 163455.502203 
L 371.978455 163455.502203 
L 363.091147 163455.502203 
L 354.537845 163455.502203 
L 345.507131 163455.502203 
L 335.652992 163455.502203 
L 324.293656 163455.502203 
L 311.650805 163455.502203 
L 289.368488 163455.502203 
L 273.961707 163455.502203 
L 259.230347 163455.502203 
L 251.806878 163455.502203 
L 247.110667 163455.502203 
L 242.474508 163455.502203 
L 239.387198 163455.502203 
L 236.540939 163455.502203 
L 233.868373 163455.502203 
L 232.281143 163455.502203 
L 230.31866 163455.502203 
L 228.081696 163455.502203 
L 226.086901 163455.502203 
L 224.990742 163455.502203 
L 223.032204 163455.502203 
L 222.709343 163455.502203 
L 222.302476 163455.502203 
L 220.789438 163455.502203 
L 219.976872 163455.502203 
L 218.76727 163455.502203 
L 217.849042 163455.502203 
L 216.956229 163455.502203 
L 216.639659 163455.502203 
L 215.330375 163455.502203 
L 213.837289 163455.502203 
z
" style="fill:#1f77b4;fill-opacity:0.4;stroke:#1f77b4;stroke-opacity:0.4;"/>
   </g>
   <g id="matplotlib.axis_1">
    <g id="xtick_1">
     <g id="line2d_1">
      <defs>
       <path d="M 0 0 
L 0 3.5 
" id="mb3d24d9444" style="stroke:#000000;stroke-width:0.8;"/>
      </defs>
      <g>
       <use style="stroke:#000000;stroke-width:0.8;" x="222.709213" xlink:href="#mb3d24d9444" y="342.382203"/>
      </g>
     </g>
     <g id="text_1">
      <!-- 1 -->
      <g transform="translate(217.226356 365.986608)scale(0.24 -0.24)">
       <defs>
        <path d="M 26.59375 63.796875 
C 26.59375 65.890625 26.5 66 25.09375 66 
C 21.203125 61.359375 15.296875 59.890625 9.703125 59.6875 
C 9.40625 59.6875 8.90625 59.6875 8.796875 59.5 
C 8.703125 59.296875 8.703125 59.09375 8.703125 57 
C 11.796875 57 17 57.59375 21 59.984375 
L 21 7.296875 
C 21 3.796875 20.796875 2.59375 12.203125 2.59375 
L 9.203125 2.59375 
L 9.203125 0 
C 14 0.09375 19 0.1875 23.796875 0.1875 
C 28.59375 0.1875 33.59375 0.09375 38.40625 0 
L 38.40625 2.59375 
L 35.40625 2.59375 
C 26.796875 2.59375 26.59375 3.6875 26.59375 7.296875 
z
" id="CMR17-49"/>
       </defs>
       <use transform="scale(0.996264)" xlink:href="#CMR17-49"/>
      </g>
     </g>
    </g>
    <g id="xtick_2">
     <g id="line2d_2">
      <g>
       <use style="stroke:#000000;stroke-width:0.8;" x="419.363537" xlink:href="#mb3d24d9444" y="342.382203"/>
      </g>
     </g>
     <g id="text_2">
      <!-- 10 -->
      <g transform="translate(408.397823 365.986608)scale(0.24 -0.24)">
       <defs>
        <path d="M 42 31.84375 
C 42 37.96875 41.90625 48.421875 37.703125 56.453125 
C 34 63.484375 28.09375 66 22.90625 66 
C 18.09375 66 12 63.78125 8.203125 56.5625 
C 4.203125 49.015625 3.796875 39.671875 3.796875 31.84375 
C 3.796875 26.109375 3.90625 17.375 7 9.734375 
C 11.296875 -0.609375 19 -2 22.90625 -2 
C 27.5 -2 34.5 -0.109375 38.59375 9.4375 
C 41.59375 16.375 42 24.5 42 31.84375 
z
M 22.90625 -0.40625 
C 16.5 -0.40625 12.703125 5.125 11.296875 12.75 
C 10.203125 18.6875 10.203125 27.328125 10.203125 32.953125 
C 10.203125 40.6875 10.203125 47.109375 11.5 53.234375 
C 13.40625 61.78125 19 64.390625 22.90625 64.390625 
C 27 64.390625 32.296875 61.671875 34.203125 53.4375 
C 35.5 47.71875 35.59375 40.984375 35.59375 32.953125 
C 35.59375 26.421875 35.59375 18.375 34.40625 12.453125 
C 32.296875 1.5 26.40625 -0.40625 22.90625 -0.40625 
z
" id="CMR17-48"/>
       </defs>
       <use transform="scale(0.996264)" xlink:href="#CMR17-49"/>
       <use transform="translate(45.690477 0)scale(0.996264)" xlink:href="#CMR17-48"/>
      </g>
     </g>
    </g>
    <g id="xtick_3">
     <g id="line2d_3">
      <defs>
       <path d="M 0 0 
L 0 2 
" id="m3541d457d6" style="stroke:#000000;stroke-width:0.6;"/>
      </defs>
      <g>
       <use style="stroke:#000000;stroke-width:0.6;" x="85.25374" xlink:href="#m3541d457d6" y="342.382203"/>
      </g>
     </g>
    </g>
    <g id="xtick_4">
     <g id="line2d_4">
      <g>
       <use style="stroke:#000000;stroke-width:0.6;" x="119.882847" xlink:href="#m3541d457d6" y="342.382203"/>
      </g>
     </g>
    </g>
    <g id="xtick_5">
     <g id="line2d_5">
      <g>
       <use style="stroke:#000000;stroke-width:0.6;" x="144.45259" xlink:href="#m3541d457d6" y="342.382203"/>
      </g>
     </g>
    </g>
    <g id="xtick_6">
     <g id="line2d_6">
      <g>
       <use style="stroke:#000000;stroke-width:0.6;" x="163.510363" xlink:href="#m3541d457d6" y="342.382203"/>
      </g>
     </g>
    </g>
    <g id="xtick_7">
     <g id="line2d_7">
      <g>
       <use style="stroke:#000000;stroke-width:0.6;" x="179.081697" xlink:href="#m3541d457d6" y="342.382203"/>
      </g>
     </g>
    </g>
    <g id="xtick_8">
     <g id="line2d_8">
      <g>
       <use style="stroke:#000000;stroke-width:0.6;" x="192.247073" xlink:href="#m3541d457d6" y="342.382203"/>
      </g>
     </g>
    </g>
    <g id="xtick_9">
     <g id="line2d_9">
      <g>
       <use style="stroke:#000000;stroke-width:0.6;" x="203.65144" xlink:href="#m3541d457d6" y="342.382203"/>
      </g>
     </g>
    </g>
    <g id="xtick_10">
     <g id="line2d_10">
      <g>
       <use style="stroke:#000000;stroke-width:0.6;" x="213.710805" xlink:href="#m3541d457d6" y="342.382203"/>
      </g>
     </g>
    </g>
    <g id="xtick_11">
     <g id="line2d_11">
      <g>
       <use style="stroke:#000000;stroke-width:0.6;" x="281.908064" xlink:href="#m3541d457d6" y="342.382203"/>
      </g>
     </g>
    </g>
    <g id="xtick_12">
     <g id="line2d_12">
      <g>
       <use style="stroke:#000000;stroke-width:0.6;" x="316.537171" xlink:href="#m3541d457d6" y="342.382203"/>
      </g>
     </g>
    </g>
    <g id="xtick_13">
     <g id="line2d_13">
      <g>
       <use style="stroke:#000000;stroke-width:0.6;" x="341.106914" xlink:href="#m3541d457d6" y="342.382203"/>
      </g>
     </g>
    </g>
    <g id="xtick_14">
     <g id="line2d_14">
      <g>
       <use style="stroke:#000000;stroke-width:0.6;" x="360.164687" xlink:href="#m3541d457d6" y="342.382203"/>
      </g>
     </g>
    </g>
    <g id="xtick_15">
     <g id="line2d_15">
      <g>
       <use style="stroke:#000000;stroke-width:0.6;" x="375.736021" xlink:href="#m3541d457d6" y="342.382203"/>
      </g>
     </g>
    </g>
    <g id="xtick_16">
     <g id="line2d_16">
      <g>
       <use style="stroke:#000000;stroke-width:0.6;" x="388.901397" xlink:href="#m3541d457d6" y="342.382203"/>
      </g>
     </g>
    </g>
    <g id="xtick_17">
     <g id="line2d_17">
      <g>
       <use style="stroke:#000000;stroke-width:0.6;" x="400.305764" xlink:href="#m3541d457d6" y="342.382203"/>
      </g>
     </g>
    </g>
    <g id="xtick_18">
     <g id="line2d_18">
      <g>
       <use style="stroke:#000000;stroke-width:0.6;" x="410.365129" xlink:href="#m3541d457d6" y="342.382203"/>
      </g>
     </g>
    </g>
    <g id="xtick_19">
     <g id="line2d_19">
      <g>
       <use style="stroke:#000000;stroke-width:0.6;" x="478.562388" xlink:href="#m3541d457d6" y="342.382203"/>
      </g>
     </g>
    </g>
    <g id="text_3">
     <!-- Viral divergence $\sigma_v/r_0$ -->
     <g transform="translate(175.119678 392.570117)scale(0.24 -0.24)">
      <defs>
       <path d="M 59 58.78125 
C 59.90625 60.984375 61.5 65.296875 68.203125 65.390625 
L 68.203125 68 
C 65.90625 67.796875 63.296875 67.796875 60.796875 67.796875 
C 58.40625 67.796875 54.296875 67.796875 52 68 
L 52 65.390625 
C 57 65.09375 57.203125 61.59375 57.203125 60.984375 
C 57.203125 59.890625 56.90625 59.1875 56.59375 58.390625 
L 36.90625 7 
L 16.296875 60.984375 
C 16 61.6875 15.796875 62.1875 15.796875 62.6875 
C 15.796875 65.390625 19.796875 65.390625 21.90625 65.390625 
L 21.90625 68 
C 18.703125 67.796875 14 67.796875 10.703125 67.796875 
C 8.09375 67.796875 3.40625 67.796875 1 68 
L 1 65.390625 
C 6.796875 65.390625 7.90625 65 9.09375 61.796875 
L 32.90625 -0.40625 
C 33.40625 -1.8125 33.5 -2 34.59375 -2 
C 35.703125 -2 35.796875 -1.8125 36.296875 -0.40625 
z
" id="CMR17-86"/>
       <path d="M 15.5 61.890625 
C 15.5 64.09375 13.703125 66 11.40625 66 
C 9.203125 66 7.296875 64.1875 7.296875 61.890625 
C 7.296875 59.6875 9.09375 57.796875 11.40625 57.796875 
C 13.59375 57.796875 15.5 59.59375 15.5 61.890625 
z
M 3.796875 42.890625 
L 3.796875 40.296875 
C 9.40625 40.296875 10.203125 39.6875 10.203125 34.859375 
L 10.203125 6.921875 
C 10.203125 3.09375 9.796875 2.59375 3.40625 2.59375 
L 3.40625 0 
C 5.796875 0.1875 10.09375 0.1875 12.59375 0.1875 
C 15 0.1875 19.09375 0.1875 21.40625 0 
L 21.40625 2.59375 
C 15.5 2.59375 15.296875 3.203125 15.296875 6.8125 
L 15.296875 44 
z
" id="CMR17-105"/>
       <path d="M 15 23.703125 
C 15 33.34375 19.09375 42.390625 26.59375 42.390625 
C 27.296875 42.390625 28 42.296875 28.703125 41.984375 
C 28.703125 41.984375 26.5 41.28125 26.5 38.671875 
C 26.5 36.265625 28.40625 35.265625 29.90625 35.265625 
C 31.09375 35.265625 33.296875 35.96875 33.296875 38.78125 
C 33.296875 41.984375 30.09375 44 26.703125 44 
C 19.09375 44 15.796875 36.5625 14.796875 33.046875 
L 14.703125 33.046875 
L 14.703125 44 
L 3.09375 42.890625 
L 3.09375 40.28125 
C 9 40.28125 9.90625 39.6875 9.90625 34.859375 
L 9.90625 6.921875 
C 9.90625 3.09375 9.5 2.59375 3.09375 2.59375 
L 3.09375 0 
C 5.5 0.1875 10.09375 0.1875 12.703125 0.1875 
C 15.59375 0.1875 20.703125 0.1875 23.40625 0 
L 23.40625 2.59375 
C 16.203125 2.59375 15 2.59375 15 7.109375 
z
" id="CMR17-114"/>
       <path d="M 36 25.875 
C 36 32 36 35.546875 31.796875 39.59375 
C 28.09375 42.984375 23.796875 44 20.40625 44 
C 12.5 44 6.796875 37.625 6.796875 30.890625 
C 6.796875 27.1875 9.796875 27 10.40625 27 
C 11.703125 27 14 27.796875 14 30.59375 
C 14 33.09375 12.09375 34.1875 10.40625 34.1875 
C 10 34.1875 9.5 34.09375 9.203125 34 
C 11.296875 40.53125 16.703125 42.390625 20.203125 42.390625 
C 25.203125 42.390625 30.703125 37.828125 30.703125 29.296875 
L 30.703125 25.5 
C 24.796875 25.296875 17.703125 24.5 12.09375 21.453125 
C 5.796875 17.921875 4 12.84375 4 9 
C 4 1.203125 13 -1 18.296875 -1 
C 23.796875 -1 28.90625 2.109375 31.09375 7.890625 
C 31.296875 3.421875 34.09375 -0.609375 38.5 -0.609375 
C 40.59375 -0.609375 45.90625 0.796875 45.90625 8.796875 
L 45.90625 14.46875 
L 44.09375 14.46875 
L 44.09375 8.703125 
C 44.09375 2.515625 41.40625 1.703125 40.09375 1.703125 
C 36 1.703125 36 6.96875 36 11.4375 
z
M 30.703125 13.859375 
C 30.703125 5.046875 24.5 0.59375 19 0.59375 
C 14 0.59375 10.09375 4.34375 10.09375 9 
C 10.09375 12.046875 11.40625 17.40625 17.203125 20.65625 
C 22 23.390625 27.5 23.796875 30.703125 24 
z
" id="CMR17-97"/>
       <path d="M 15.296875 69 
L 3.40625 67.890625 
L 3.40625 65.296875 
C 9.296875 65.296875 10.203125 64.703125 10.203125 59.921875 
L 10.203125 6.859375 
C 10.203125 3.09375 9.796875 2.59375 3.40625 2.59375 
L 3.40625 0 
C 5.796875 0.1875 10.203125 0.1875 12.703125 0.1875 
C 15.296875 0.1875 19.703125 0.1875 22.09375 0 
L 22.09375 2.59375 
C 15.703125 2.59375 15.296875 2.984375 15.296875 6.859375 
z
" id="CMR17-108"/>
       <path d="M 29.203125 67.890625 
L 29.203125 65.296875 
C 35.09375 65.296875 36 64.703125 36 60.046875 
L 36 37.046875 
C 35.59375 37.546875 31.5 44 23.40625 44 
C 13.203125 44 3.296875 34.8125 3.296875 21.5 
C 3.296875 8.265625 12.59375 -1 22.40625 -1 
C 30.90625 -1 35.296875 5.640625 35.796875 6.34375 
L 35.796875 -1 
L 47.90625 -0.203125 
L 47.90625 2.40625 
C 42 2.40625 41.09375 3.015625 41.09375 7.859375 
L 41.09375 69 
z
M 35.796875 11.90625 
C 35.796875 8.875 34 6.140625 31.703125 4.125 
C 28.296875 1.09375 24.90625 0.59375 23 0.59375 
C 20.09375 0.59375 9.703125 2.109375 9.703125 21.390625 
C 9.703125 41.1875 21.296875 42.390625 23.90625 42.390625 
C 28.5 42.390625 32.203125 39.765625 34.5 36.140625 
C 35.796875 34.015625 35.796875 33.703125 35.796875 31.890625 
z
" id="CMR17-100"/>
       <path d="M 39.09375 33.953125 
C 40 36.171875 41.59375 40.1875 47.40625 40.390625 
L 47.40625 43 
C 45.5 42.890625 43 42.796875 41.09375 42.796875 
C 39 42.796875 35.703125 42.796875 33.703125 43 
L 33.703125 40.390625 
C 36.203125 40.1875 37.59375 38.984375 37.59375 36.375 
C 37.59375 35.46875 37.59375 35.265625 37 33.859375 
L 26 5.921875 
L 14.09375 36.0625 
C 13.5 37.375 13.5 37.578125 13.5 37.984375 
C 13.5 40.390625 16.796875 40.390625 18.296875 40.390625 
L 18.296875 43 
C 15.90625 42.796875 11.5 42.796875 9 42.796875 
C 6.296875 42.796875 3.203125 42.796875 1 43 
L 1 40.390625 
C 4.796875 40.390625 6.90625 40.390625 8.09375 37.28125 
L 22.59375 0.6875 
C 23.203125 -0.8125 23.296875 -1 24.203125 -1 
C 25.09375 -1 25.203125 -0.8125 25.796875 0.6875 
z
" id="CMR17-118"/>
       <path d="M 38.09375 23.484375 
C 38.5 23.890625 38.5 24.09375 38.5 25.09375 
C 38.5 35.171875 33.09375 44 21.703125 44 
C 11.09375 44 2.703125 33.984375 2.703125 21.78125 
C 2.703125 8.65625 12.203125 -1 22.796875 -1 
C 34 -1 38.40625 9.671875 38.40625 11.796875 
C 38.40625 12.5 37.796875 12.5 37.59375 12.5 
C 36.90625 12.5 36.796875 12.296875 36.40625 11.078125 
C 34.203125 4.21875 28.703125 0.796875 23.5 0.796875 
C 19.203125 0.796875 14.90625 3.21875 12.203125 7.65625 
C 9.09375 12.796875 9.09375 18.75 9.09375 23.484375 
z
M 9.203125 25 
C 9.90625 39.234375 17.59375 42.390625 21.59375 42.390625 
C 28.40625 42.390625 33 36.0625 33.09375 25 
z
" id="CMR17-101"/>
       <path d="M 11.09375 18.203125 
C 13 16.6875 16.296875 15 20.296875 15 
C 28.203125 15 35 21.234375 35 29.609375 
C 35 32.234375 34.203125 36.265625 31.203125 39.390625 
C 34 42.390625 38.09375 43.390625 40.40625 43.390625 
C 40.796875 43.390625 41.40625 43.390625 41.90625 43.09375 
C 41.5 42.984375 40.59375 42.59375 40.59375 40.984375 
C 40.59375 39.6875 41.5 38.796875 42.796875 38.796875 
C 44.296875 38.796875 45.09375 39.796875 45.09375 41.09375 
C 45.09375 42.984375 43.59375 45 40.40625 45 
C 36.40625 45 32.90625 43.09375 30.09375 40.484375 
C 27.09375 43.1875 23.5 44.1875 20.296875 44.1875 
C 12.40625 44.1875 5.59375 37.984375 5.59375 29.609375 
C 5.59375 23.859375 8.90625 20.21875 9.90625 19.21875 
C 6.90625 15.6875 6.90625 11.59375 6.90625 11.09375 
C 6.90625 8.5 7.90625 4.6875 11.296875 2.59375 
C 6.09375 1.28125 2 -2.875 2 -8.078125 
C 2 -15.5625 11.5 -21 22.90625 -21 
C 33.90625 -21 43.796875 -15.765625 43.796875 -7.96875 
C 43.796875 6 29 6 21.296875 6 
C 19 6 14.90625 6 14.40625 6.09375 
C 11.296875 6.59375 9.203125 9.390625 9.203125 12.890625 
C 9.203125 13.796875 9.203125 16 11.09375 18.203125 
z
M 20.296875 16.6875 
C 11.5 16.6875 11.5 27.59375 11.5 29.609375 
C 11.5 31.625 11.5 42.484375 20.296875 42.484375 
C 29.09375 42.484375 29.09375 31.625 29.09375 29.609375 
C 29.09375 27.59375 29.09375 16.6875 20.296875 16.6875 
z
M 22.90625 -19.3125 
C 12.90625 -19.3125 6 -13.796875 6 -8.078125 
C 6 -4.859375 7.703125 -1.84375 9.90625 -0.171875 
C 12.40625 1.59375 13.40625 1.59375 20.203125 1.59375 
C 28.40625 1.59375 39.796875 1.59375 39.796875 -8.078125 
C 39.796875 -13.796875 32.90625 -19.3125 22.90625 -19.3125 
z
" id="CMR17-103"/>
       <path d="M 41.5 30.53125 
C 41.5 35.65625 40.5 44 28.703125 44 
C 20.796875 44 16.703125 37.875 15.203125 33.84375 
L 15.09375 33.84375 
L 15.09375 44 
L 3.296875 42.890625 
L 3.296875 40.28125 
C 9.203125 40.28125 10.09375 39.6875 10.09375 34.859375 
L 10.09375 6.921875 
C 10.09375 3.09375 9.703125 2.59375 3.296875 2.59375 
L 3.296875 0 
C 5.703125 0.1875 10.09375 0.1875 12.703125 0.1875 
C 15.296875 0.1875 19.796875 0.1875 22.203125 0 
L 22.203125 2.59375 
C 15.796875 2.59375 15.40625 3 15.40625 6.921875 
L 15.40625 26.21875 
C 15.40625 35.453125 21 42.390625 28 42.390625 
C 35.40625 42.390625 36.203125 35.765625 36.203125 30.9375 
L 36.203125 6.921875 
C 36.203125 3.09375 35.796875 2.59375 29.40625 2.59375 
L 29.40625 0 
C 31.796875 0.1875 36.203125 0.1875 38.796875 0.1875 
C 41.40625 0.1875 45.90625 0.1875 48.296875 0 
L 48.296875 2.59375 
C 41.90625 2.59375 41.5 3 41.5 6.921875 
z
" id="CMR17-110"/>
       <path d="M 34.90625 35 
C 33 35 30.203125 35 30.203125 31.484375 
C 30.203125 28.6875 32.5 27.890625 33.796875 27.890625 
C 34.5 27.890625 37.40625 28.1875 37.40625 31.6875 
C 37.40625 38.6875 30.59375 44 22.90625 44 
C 12.296875 44 3.296875 34.390625 3.296875 21.546875 
C 3.296875 8.140625 12.703125 -1 22.90625 -1 
C 35.296875 -1 38.40625 10.5625 38.40625 11.671875 
C 38.40625 12.078125 38.296875 12.375 37.59375 12.375 
C 36.90625 12.375 36.796875 12.28125 36.40625 10.96875 
C 33.796875 2.8125 28.09375 0.796875 23.796875 0.796875 
C 17.40625 0.796875 9.703125 6.734375 9.703125 21.640625 
C 9.703125 36.84375 17.09375 42.1875 23 42.1875 
C 26.90625 42.1875 32.703125 40.34375 34.90625 35 
z
" id="CMR17-99"/>
       <path d="M 50.796875 37.59375 
C 52.09375 37.59375 55.40625 37.59375 55.40625 40.796875 
C 55.40625 43 53.5 43 51.703125 43 
L 29.59375 43 
C 14.59375 43 3.796875 26.328125 3.796875 14.5625 
C 3.796875 6.078125 9.296875 -1 18.296875 -1 
C 30.09375 -1 43 11.65625 43 26.625 
C 43 30.515625 42.09375 34.296875 39.703125 37.59375 
z
M 18.40625 1 
C 13.296875 1 9.59375 4.875 9.59375 11.765625 
C 9.59375 17.75 13.203125 37.59375 27.90625 37.59375 
C 32.203125 37.59375 37 35.5 37 27.8125 
C 37 24.328125 35.40625 15.953125 31.90625 10.171875 
C 28.296875 4.28125 22.90625 1 18.40625 1 
z
" id="CMMI12-27"/>
       <path d="M 45.703125 37.3125 
C 45.703125 43.59375 42.5 44 41.703125 44 
C 39.296875 44 37.09375 41.59375 37.09375 39.59375 
C 37.09375 38.40625 37.796875 37.703125 38.203125 37.3125 
C 39.203125 36.40625 41.796875 33.71875 41.796875 28.53125 
C 41.796875 24.34375 35.796875 1 23.796875 1 
C 17.703125 1 16.5 6.078125 16.5 9.765625 
C 16.5 14.765625 18.796875 21.75 21.5 28.921875 
C 23.09375 33.015625 23.5 34.015625 23.5 36.015625 
C 23.5 40.203125 20.5 44 15.59375 44 
C 6.40625 44 2.703125 29.53125 2.703125 28.71875 
C 2.703125 28.328125 3.09375 27.828125 3.796875 27.828125 
C 4.703125 27.828125 4.796875 28.234375 5.203125 29.625 
C 7.59375 38.203125 11.5 41.984375 15.296875 41.984375 
C 16.203125 41.984375 17.90625 41.984375 17.90625 38.703125 
C 17.90625 36.109375 16.796875 33.21875 15.296875 29.421875 
C 10.5 16.65625 10.5 13.5625 10.5 11.171875 
C 10.5 8.96875 10.796875 4.890625 13.90625 2.09375 
C 17.5 -1 22.5 -1 23.40625 -1 
C 40 -1 45.703125 31.625 45.703125 37.3125 
z
" id="CMMI12-118"/>
       <path d="M 42.90625 71.296875 
C 42.90625 71.390625 43.5 72.890625 43.5 73.09375 
C 43.5 74.296875 42.5 75 41.703125 75 
C 41.203125 75 40.296875 75 39.5 72.796875 
L 6 -21.3125 
C 6 -21.40625 5.40625 -22.90625 5.40625 -23.109375 
C 5.40625 -24.3125 6.40625 -25 7.203125 -25 
C 7.796875 -25 8.703125 -24.90625 9.40625 -22.8125 
z
" id="CMMI12-61"/>
       <path d="M 38.90625 41.140625 
C 35.796875 40.59375 34.203125 38.390625 34.203125 36.1875 
C 34.203125 33.796875 36.09375 32.984375 37.5 32.984375 
C 40.296875 32.984375 42.59375 35.390625 42.59375 38.390625 
C 42.59375 41.421875 39.5 44 34.5 44 
C 30.5 44 25.90625 42.1875 21.703125 36.484375 
C 21 41.5625 17 44 13 44 
C 9.09375 44 7.09375 41.28125 5.90625 39.1875 
C 4.203125 35.59375 2.703125 29.5625 2.703125 29.0625 
C 2.703125 28.65625 3.09375 28.140625 3.796875 28.140625 
C 4.59375 28.140625 4.703125 28.25 5.296875 30.578125 
C 6.796875 36.59375 8.703125 41.984375 12.703125 41.984375 
C 15.09375 41.984375 15.796875 40.6875 15.796875 37.796875 
C 15.796875 35.59375 14.796875 31.6875 14.09375 28.546875 
L 11.296875 17.65625 
C 10.90625 15.734375 9.796875 11.1875 9.296875 9.375 
C 8.59375 6.75 7.5 2 7.5 1.5 
C 7.5 0.09375 8.59375 -1 10.09375 -1 
C 11.203125 -1 13.09375 -0.3125 13.703125 1.703125 
C 14 2.5 17.703125 17.75 18.296875 20.078125 
C 18.796875 22.296875 19.40625 24.40625 19.90625 26.640625 
C 20.296875 28.046875 20.703125 29.65625 21 30.96875 
C 21.296875 31.875 24 36.796875 26.5 38.984375 
C 27.703125 40.09375 30.296875 41.984375 34.40625 41.984375 
C 36 41.984375 37.59375 41.78125 38.90625 41.140625 
z
" id="CMMI12-114"/>
      </defs>
      <use transform="scale(0.996264)" xlink:href="#CMR17-86"/>
      <use transform="translate(69.07243 0)scale(0.996264)" xlink:href="#CMR17-105"/>
      <use transform="translate(93.943488 0)scale(0.996264)" xlink:href="#CMR17-114"/>
      <use transform="translate(129.224256 0)scale(0.996264)" xlink:href="#CMR17-97"/>
      <use transform="translate(174.914733 0)scale(0.996264)" xlink:href="#CMR17-108"/>
      <use transform="translate(229.861758 0)scale(0.996264)" xlink:href="#CMR17-100"/>
      <use transform="translate(280.757128 0)scale(0.996264)" xlink:href="#CMR17-105"/>
      <use transform="translate(305.628186 0)scale(0.996264)" xlink:href="#CMR17-118"/>
      <use transform="translate(351.318648 0)scale(0.996264)" xlink:href="#CMR17-101"/>
      <use transform="translate(391.804309 0)scale(0.996264)" xlink:href="#CMR17-114"/>
      <use transform="translate(427.085076 0)scale(0.996264)" xlink:href="#CMR17-103"/>
      <use transform="translate(472.775554 0)scale(0.996264)" xlink:href="#CMR17-101"/>
      <use transform="translate(513.261214 0)scale(0.996264)" xlink:href="#CMR17-110"/>
      <use transform="translate(564.156584 0)scale(0.996264)" xlink:href="#CMR17-99"/>
      <use transform="translate(604.642244 0)scale(0.996264)" xlink:href="#CMR17-101"/>
      <use transform="translate(675.203871 0)scale(0.996264)" xlink:href="#CMMI12-27"/>
      <use transform="translate(730.649332 -14.943915)scale(0.697382)" xlink:href="#CMMI12-118"/>
      <use transform="translate(766.661914 0)scale(0.996264)" xlink:href="#CMMI12-61"/>
      <use transform="translate(815.436832 0)scale(0.996264)" xlink:href="#CMMI12-114"/>
      <use transform="translate(859.397727 -14.943915)scale(0.697382)" xlink:href="#CMR17-48"/>
     </g>
    </g>
   </g>
   <g id="matplotlib.axis_2">
    <g id="ytick_1">
     <g id="line2d_20">
      <defs>
       <path d="M 0 0 
L -3.5 0 
" id="mce5dd6a6dc" style="stroke:#000000;stroke-width:0.8;"/>
      </defs>
      <g>
       <use style="stroke:#000000;stroke-width:0.8;" x="85.25374" xlink:href="#mce5dd6a6dc" y="342.382203"/>
      </g>
     </g>
     <g id="text_4">
      <!-- $\mathdefault{10^{-2}}$ -->
      <g transform="translate(35.110336 350.684405)scale(0.24 -0.24)">
       <defs>
        <path d="M 65.90625 23 
C 67.59375 23 69.40625 23 69.40625 25 
C 69.40625 27 67.59375 27 65.90625 27 
L 11.796875 27 
C 10.09375 27 8.296875 27 8.296875 25 
C 8.296875 23 10.09375 23 11.796875 23 
z
" id="CMSY10-0"/>
        <path d="M 41.703125 15.46875 
L 39.90625 15.46875 
C 38.90625 8.390625 38.09375 7.1875 37.703125 6.59375 
C 37.203125 5.796875 30 5.796875 28.59375 5.796875 
L 9.40625 5.796875 
C 13 9.6875 20 16.765625 28.5 24.9375 
C 34.59375 30.71875 41.703125 37.5 41.703125 47.390625 
C 41.703125 59.1875 32.296875 66 21.796875 66 
C 10.796875 66 4.09375 56.296875 4.09375 47.296875 
C 4.09375 43.390625 7 42.890625 8.203125 42.890625 
C 9.203125 42.890625 12.203125 43.484375 12.203125 46.984375 
C 12.203125 50.09375 9.59375 51 8.203125 51 
C 7.59375 51 7 50.890625 6.59375 50.6875 
C 8.5 59.1875 14.296875 63.390625 20.40625 63.390625 
C 29.09375 63.390625 34.796875 56.5 34.796875 47.390625 
C 34.796875 38.703125 29.703125 31.21875 24 24.734375 
L 4.09375 2.296875 
L 4.09375 0 
L 39.296875 0 
z
" id="CMR17-50"/>
       </defs>
       <use transform="scale(0.996264)" xlink:href="#CMR17-49"/>
       <use transform="translate(45.690477 0)scale(0.996264)" xlink:href="#CMR17-48"/>
       <use transform="translate(91.380954 36.153639)scale(0.697382)" xlink:href="#CMSY10-0"/>
       <use transform="translate(145.621947 36.153639)scale(0.697382)" xlink:href="#CMR17-50"/>
      </g>
     </g>
    </g>
    <g id="ytick_2">
     <g id="line2d_21">
      <g>
       <use style="stroke:#000000;stroke-width:0.8;" x="85.25374" xlink:href="#mce5dd6a6dc" y="178.942203"/>
      </g>
     </g>
     <g id="text_5">
      <!-- $\mathdefault{10^{-1}}$ -->
      <g transform="translate(35.110336 187.244405)scale(0.24 -0.24)">
       <use transform="scale(0.996264)" xlink:href="#CMR17-49"/>
       <use transform="translate(45.690477 0)scale(0.996264)" xlink:href="#CMR17-48"/>
       <use transform="translate(91.380954 36.153639)scale(0.697382)" xlink:href="#CMSY10-0"/>
       <use transform="translate(145.621947 36.153639)scale(0.697382)" xlink:href="#CMR17-49"/>
      </g>
     </g>
    </g>
    <g id="ytick_3">
     <g id="line2d_22">
      <g>
       <use style="stroke:#000000;stroke-width:0.8;" x="85.25374" xlink:href="#mce5dd6a6dc" y="15.502203"/>
      </g>
     </g>
     <g id="text_6">
      <!-- $\mathdefault{10^{0}}$ -->
      <g transform="translate(48.12817 23.804405)scale(0.24 -0.24)">
       <use transform="scale(0.996264)" xlink:href="#CMR17-49"/>
       <use transform="translate(45.690477 0)scale(0.996264)" xlink:href="#CMR17-48"/>
       <use transform="translate(91.380954 36.153639)scale(0.697382)" xlink:href="#CMR17-48"/>
      </g>
     </g>
    </g>
    <g id="ytick_4">
     <g id="line2d_23">
      <g>
       <use style="stroke:#000000;stroke-width:0.8;" x="85.25374" xlink:href="#mce5dd6a6dc" y="44.282558"/>
      </g>
     </g>
     <g id="text_7">
      <!-- $\phi_c^{-1}$ -->
      <g transform="translate(43.185569 54.014078)scale(0.24 -0.24)">
       <defs>
        <path d="M 43 68.09375 
C 43 69 42.296875 69 42 69 
C 41.09375 69 41 68.796875 40.59375 67.09375 
L 35.203125 45.6875 
C 34.90625 44.390625 34.796875 44.296875 34.703125 44.1875 
C 34.59375 44 33.90625 43.890625 33.703125 43.890625 
C 17.296875 42.5 4.703125 29.109375 4.703125 16.734375 
C 4.703125 6.046875 13 -0.5 23.40625 -1.109375 
C 22.59375 -4.15625 21.90625 -7.296875 21.09375 -10.34375 
C 19.703125 -15.546875 18.90625 -18.8125 18.90625 -19.203125 
C 18.90625 -19.40625 18.90625 -20 19.90625 -20 
C 20.203125 -20 20.59375 -20 20.796875 -19.609375 
C 21 -19.40625 21.59375 -17.015625 22 -15.75 
L 25.703125 -1.109375 
C 42.796875 -0.203125 55.796875 13.671875 55.796875 26.140625 
C 55.796875 36.140625 48.203125 43.296875 37.09375 44 
z
M 36.5 42 
C 43.09375 41.59375 49.703125 37.9375 49.703125 28.21875 
C 49.703125 17.03125 41.796875 2.1875 26.203125 1 
z
M 23.90625 0.890625 
C 19 1.1875 10.796875 3.765625 10.796875 14.65625 
C 10.796875 27.140625 19.90625 41 34.296875 41.890625 
z
" id="CMMI12-30"/>
        <path d="M 39.09375 38 
C 37.203125 38 36.296875 38 34.90625 36.796875 
C 34.296875 36.296875 33.203125 34.796875 33.203125 33.1875 
C 33.203125 31.1875 34.703125 29.984375 36.59375 29.984375 
C 39 29.984375 41.703125 31.984375 41.703125 35.984375 
C 41.703125 40.484375 37.09375 44 30.203125 44 
C 17.09375 44 4 30.1875 4 15.796875 
C 4 6.96875 9.40625 -1 19.59375 -1 
C 33.203125 -1 41.796875 9.71875 41.796875 11.03125 
C 41.796875 11.640625 41.203125 12.140625 40.796875 12.140625 
C 40.5 12.140625 40.40625 12.046875 39.5 11.125 
C 33.09375 2.515625 23.59375 1 19.796875 1 
C 12.90625 1 10.703125 7.078125 10.703125 12.140625 
C 10.703125 15.6875 12.40625 25.53125 16 32.390625 
C 18.59375 37.09375 24 41.984375 30.296875 41.984375 
C 31.59375 41.984375 37.09375 41.8125 39.09375 38 
z
" id="CMMI12-99"/>
       </defs>
       <use transform="scale(0.996264)" xlink:href="#CMMI12-30"/>
       <use transform="translate(57.73418 36.153639)scale(0.697382)" xlink:href="#CMSY10-0"/>
       <use transform="translate(111.975174 36.153639)scale(0.697382)" xlink:href="#CMR17-49"/>
       <use transform="translate(57.73418 -24.62935)scale(0.697382)" xlink:href="#CMMI12-99"/>
      </g>
     </g>
    </g>
    <g id="ytick_5">
     <g id="line2d_24">
      <defs>
       <path d="M 0 0 
L -2 0 
" id="md589ad1364" style="stroke:#000000;stroke-width:0.6;"/>
      </defs>
      <g>
       <use style="stroke:#000000;stroke-width:0.6;" x="85.25374" xlink:href="#md589ad1364" y="293.18186"/>
      </g>
     </g>
    </g>
    <g id="ytick_6">
     <g id="line2d_25">
      <g>
       <use style="stroke:#000000;stroke-width:0.6;" x="85.25374" xlink:href="#md589ad1364" y="264.401505"/>
      </g>
     </g>
    </g>
    <g id="ytick_7">
     <g id="line2d_26">
      <g>
       <use style="stroke:#000000;stroke-width:0.6;" x="85.25374" xlink:href="#md589ad1364" y="243.981518"/>
      </g>
     </g>
    </g>
    <g id="ytick_8">
     <g id="line2d_27">
      <g>
       <use style="stroke:#000000;stroke-width:0.6;" x="85.25374" xlink:href="#md589ad1364" y="228.142545"/>
      </g>
     </g>
    </g>
    <g id="ytick_9">
     <g id="line2d_28">
      <g>
       <use style="stroke:#000000;stroke-width:0.6;" x="85.25374" xlink:href="#md589ad1364" y="215.201162"/>
      </g>
     </g>
    </g>
    <g id="ytick_10">
     <g id="line2d_29">
      <g>
       <use style="stroke:#000000;stroke-width:0.6;" x="85.25374" xlink:href="#md589ad1364" y="204.259379"/>
      </g>
     </g>
    </g>
    <g id="ytick_11">
     <g id="line2d_30">
      <g>
       <use style="stroke:#000000;stroke-width:0.6;" x="85.25374" xlink:href="#md589ad1364" y="194.781175"/>
      </g>
     </g>
    </g>
    <g id="ytick_12">
     <g id="line2d_31">
      <g>
       <use style="stroke:#000000;stroke-width:0.6;" x="85.25374" xlink:href="#md589ad1364" y="186.420807"/>
      </g>
     </g>
    </g>
    <g id="ytick_13">
     <g id="line2d_32">
      <g>
       <use style="stroke:#000000;stroke-width:0.6;" x="85.25374" xlink:href="#md589ad1364" y="129.74186"/>
      </g>
     </g>
    </g>
    <g id="ytick_14">
     <g id="line2d_33">
      <g>
       <use style="stroke:#000000;stroke-width:0.6;" x="85.25374" xlink:href="#md589ad1364" y="100.961505"/>
      </g>
     </g>
    </g>
    <g id="ytick_15">
     <g id="line2d_34">
      <g>
       <use style="stroke:#000000;stroke-width:0.6;" x="85.25374" xlink:href="#md589ad1364" y="80.541518"/>
      </g>
     </g>
    </g>
    <g id="ytick_16">
     <g id="line2d_35">
      <g>
       <use style="stroke:#000000;stroke-width:0.6;" x="85.25374" xlink:href="#md589ad1364" y="64.702545"/>
      </g>
     </g>
    </g>
    <g id="ytick_17">
     <g id="line2d_36">
      <g>
       <use style="stroke:#000000;stroke-width:0.6;" x="85.25374" xlink:href="#md589ad1364" y="51.761162"/>
      </g>
     </g>
    </g>
    <g id="ytick_18">
     <g id="line2d_37">
      <g>
       <use style="stroke:#000000;stroke-width:0.6;" x="85.25374" xlink:href="#md589ad1364" y="40.819379"/>
      </g>
     </g>
    </g>
    <g id="ytick_19">
     <g id="line2d_38">
      <g>
       <use style="stroke:#000000;stroke-width:0.6;" x="85.25374" xlink:href="#md589ad1364" y="31.341175"/>
      </g>
     </g>
    </g>
    <g id="ytick_20">
     <g id="line2d_39">
      <g>
       <use style="stroke:#000000;stroke-width:0.6;" x="85.25374" xlink:href="#md589ad1364" y="22.980807"/>
      </g>
     </g>
    </g>
    <g id="text_8">
     <!-- Naive density $1/\phi$ -->
     <g transform="translate(25.132752 265.591975)rotate(-90)scale(0.24 -0.24)">
      <defs>
       <path d="M 20.5 66.796875 
C 19.796875 67.890625 19.703125 68 17.796875 68 
L 5.09375 68 
L 5.09375 65.390625 
L 7 65.390625 
C 11 65.390625 12.796875 64.890625 13.09375 64.796875 
L 13.09375 9.75 
C 13.09375 7.265625 13.09375 2.59375 5.09375 2.59375 
L 5.09375 0 
C 7.40625 0.1875 11.59375 0.1875 14.09375 0.1875 
C 16.59375 0.1875 20.796875 0.1875 23.09375 0 
L 23.09375 2.59375 
C 15.09375 2.59375 15.09375 7.265625 15.09375 9.75 
L 15.09375 63.390625 
C 15.796875 62.796875 15.796875 62.609375 16.5 61.609375 
L 53.59375 1.1875 
C 54.296875 0 54.59375 0 55.09375 0 
C 56.09375 0 56.09375 0.296875 56.09375 2.1875 
L 56.09375 58.21875 
C 56.09375 60.703125 56.09375 65.390625 64.09375 65.390625 
L 64.09375 68 
C 61.796875 67.796875 57.59375 67.796875 55.09375 67.796875 
C 52.59375 67.796875 48.40625 67.796875 46.09375 68 
L 46.09375 65.390625 
C 54.09375 65.390625 54.09375 60.703125 54.09375 58.21875 
L 54.09375 12.140625 
z
" id="CMR17-78"/>
       <path d="M 30.90625 42 
C 30.90625 43.796875 30.796875 43.890625 30.203125 43.890625 
C 29.796875 43.890625 29.703125 43.796875 28.5 42.296875 
C 28.203125 41.890625 27.296875 40.890625 27 40.5 
C 23.796875 43.890625 19.296875 44 17.59375 44 
C 6.5 44 2.5 38.1875 2.5 32.390625 
C 2.5 23.390625 12.703125 21.296875 15.59375 20.6875 
C 21.90625 19.390625 24.09375 19 26.203125 17.1875 
C 27.5 16 29.703125 13.796875 29.703125 10.1875 
C 29.703125 6 27.296875 0.59375 18.09375 0.59375 
C 9.40625 0.59375 6.296875 7.1875 4.5 16 
C 4.203125 17.390625 4.203125 17.5 3.40625 17.5 
C 2.59375 17.5 2.5 17.390625 2.5 15.390625 
L 2.5 1 
C 2.5 -0.8125 2.59375 -0.90625 3.203125 -0.90625 
C 3.703125 -0.90625 3.796875 -0.8125 4.296875 0 
C 4.90625 0.890625 6.40625 3.296875 7 4.296875 
C 9 1.59375 12.5 -1 18.09375 -1 
C 28 -1 33.296875 4.390625 33.296875 12.1875 
C 33.296875 17.296875 30.59375 20 29.296875 21.1875 
C 26.296875 24.296875 22.796875 25 18.59375 25.796875 
C 13.09375 27 6.09375 28.390625 6.09375 34.5 
C 6.09375 37.09375 7.5 42.59375 17.59375 42.59375 
C 28.296875 42.59375 28.90625 32.59375 29.09375 29.390625 
C 29.203125 28.890625 29.703125 28.796875 30 28.796875 
C 30.90625 28.796875 30.90625 29.09375 30.90625 30.796875 
z
" id="CMR17-115"/>
       <path d="M 15.09375 40.390625 
L 29.09375 40.390625 
L 29.09375 43 
L 15.09375 43 
L 15.09375 62 
L 13.296875 62 
C 13.09375 51.4375 9.59375 42.1875 1.09375 41.984375 
L 1.09375 40.390625 
L 9.796875 40.390625 
L 9.796875 12.15625 
C 9.796875 10.234375 9.796875 -1 21.40625 -1 
C 27.296875 -1 30.703125 4.8125 30.703125 12.25 
L 30.703125 17.984375 
L 28.90625 17.984375 
L 28.90625 12.34375 
C 28.90625 5.421875 26.203125 0.796875 22 0.796875 
C 19.09375 0.796875 15.09375 2.796875 15.09375 11.953125 
z
" id="CMR17-116"/>
       <path d="M 39 34.109375 
C 41.5 40.296875 46 40.390625 47.40625 40.390625 
L 47.40625 43 
C 45.5 42.890625 43 42.796875 41.09375 42.796875 
C 39 42.796875 35.703125 42.796875 33.703125 43 
L 33.703125 40.390625 
C 37.5 40.09375 37.59375 37.25 37.59375 36.4375 
C 37.59375 35.4375 37.40625 34.921875 36.90625 33.71875 
L 26 6.390625 
L 14.09375 35.9375 
C 13.59375 37.15625 13.59375 37.859375 13.59375 37.96875 
C 13.59375 40.1875 15.90625 40.390625 18.296875 40.390625 
L 18.296875 43 
C 15.90625 42.796875 11.59375 42.796875 9.09375 42.796875 
C 6.40625 42.796875 3.203125 42.796875 1 43 
L 1 40.390625 
C 6.40625 40.390625 7 39.890625 8.296875 36.640625 
L 23.203125 -0.484375 
C 18.703125 -12.421875 16.09375 -19.40625 9.796875 -19.40625 
C 8.703125 -19.40625 6.203125 -19.109375 4.40625 -17.28125 
C 6.703125 -17.078125 7.703125 -15.65625 7.703125 -13.9375 
C 7.703125 -12.21875 6.5 -10.703125 4.5 -10.703125 
C 2.296875 -10.703125 1.203125 -12.21875 1.203125 -14.046875 
C 1.203125 -18.09375 5.296875 -21 9.796875 -21 
C 15.59375 -21 19.203125 -15.359375 21.203125 -10.296875 
z
" id="CMR17-121"/>
      </defs>
      <use transform="scale(0.996264)" xlink:href="#CMR17-78"/>
      <use transform="translate(69.07243 0)scale(0.996264)" xlink:href="#CMR17-97"/>
      <use transform="translate(114.762907 0)scale(0.996264)" xlink:href="#CMR17-105"/>
      <use transform="translate(139.633965 0)scale(0.996264)" xlink:href="#CMR17-118"/>
      <use transform="translate(185.324427 0)scale(0.996264)" xlink:href="#CMR17-101"/>
      <use transform="translate(255.886054 0)scale(0.996264)" xlink:href="#CMR17-100"/>
      <use transform="translate(306.781424 0)scale(0.996264)" xlink:href="#CMR17-101"/>
      <use transform="translate(347.267084 0)scale(0.996264)" xlink:href="#CMR17-110"/>
      <use transform="translate(398.162454 0)scale(0.996264)" xlink:href="#CMR17-115"/>
      <use transform="translate(433.963792 0)scale(0.996264)" xlink:href="#CMR17-105"/>
      <use transform="translate(458.83485 0)scale(0.996264)" xlink:href="#CMR17-116"/>
      <use transform="translate(491.513164 0)scale(0.996264)" xlink:href="#CMR17-121"/>
      <use transform="translate(569.882046 0)scale(0.996264)" xlink:href="#CMR17-49"/>
      <use transform="translate(615.572523 0)scale(0.996264)" xlink:href="#CMMI12-61"/>
      <use transform="translate(664.347442 0)scale(0.996264)" xlink:href="#CMMI12-30"/>
     </g>
    </g>
   </g>
   <g id="line2d_40">
    <path clip-path="url(#pb2afda166d)" d="M -0.491877 46.079644 
L 85.985746 54.60041 
L 124.696072 63.121176 
L 152.294012 71.641942 
L 174.426852 80.162708 
L 193.022846 88.683474 
L 209.272399 97.20424 
L 223.726931 105.725006 
L 236.967819 114.245772 
L 249.349816 122.766538 
L 260.898991 131.287304 
L 271.732734 139.808071 
L 282.03619 148.328837 
L 291.756484 156.849603 
L 301.302908 165.370369 
L 310.259692 173.891135 
L 319.163762 182.411901 
L 327.729982 190.932667 
L 336.153788 199.453433 
L 344.167682 207.974199 
L 352.042788 216.494965 
L 359.842947 225.015731 
L 367.513732 233.536498 
L 375.134365 242.057264 
L 382.524245 250.57803 
L 389.862867 259.098796 
L 396.969799 267.619562 
L 403.819676 276.140328 
L 410.955743 284.661094 
L 418.05791 293.18186 
L 417.883377 293.18186 
L 422.48082 298.648565 
L 426.765752 304.11527 
L 430.911775 309.581974 
L 435.398785 315.048679 
L 439.595404 320.515384 
L 443.946246 325.982088 
L 448.304797 331.448793 
L 452.776921 336.915498 
L 456.942043 342.382203 
" style="fill:none;stroke:#d62728;stroke-linecap:square;stroke-width:2;"/>
   </g>
   <g id="line2d_41">
    <path clip-path="url(#pb2afda166d)" d="M 213.837289 346.71279 
L 215.330375 336.730636 
L 216.639659 328.332842 
L 216.956229 326.351194 
L 217.849042 320.863176 
L 218.76727 315.371911 
L 219.976872 308.370121 
L 220.789438 303.811723 
L 222.302476 295.627149 
L 222.709343 293.492345 
L 223.032204 291.817944 
L 224.990742 282.02591 
L 226.086901 276.812765 
L 228.081696 267.800646 
L 230.31866 258.39598 
L 232.281143 250.729013 
L 233.868373 244.910367 
L 236.540939 235.850146 
L 239.387198 227.164485 
L 242.474508 218.793804 
L 247.110667 208.111131 
L 251.806878 199.375826 
L 259.230347 189.278161 
L 273.961707 179.81751 
L 289.368488 180.30816 
L 311.650805 191.396888 
L 324.293656 200.462346 
L 335.652992 209.471557 
L 345.507131 217.73952 
L 354.537845 225.641064 
L 363.091147 233.430856 
L 371.978455 241.892026 
L 380.107417 250.014971 
L 387.674667 257.950165 
L 396.008743 267.139774 
L 403.215166 275.473633 
L 409.195342 282.649684 
L 418.010858 293.597385 
L 422.48082 299.275504 
L 426.176358 304.008526 
L 426.765752 304.765231 
L 430.911775 310.090484 
L 435.398785 315.828558 
L 439.595404 321.127376 
L 443.946246 326.498229 
L 448.304797 331.691162 
L 452.776921 336.749052 
L 456.942043 341.136966 
" style="fill:none;stroke:#1f77b4;stroke-linecap:square;stroke-width:2;"/>
   </g>
   <g id="patch_3">
    <path d="M 85.25374 342.382203 
L 85.25374 15.502203 
" style="fill:none;stroke:#000000;stroke-linecap:square;stroke-linejoin:miter;stroke-width:0.8;"/>
   </g>
   <g id="patch_4">
    <path d="M 479.81374 342.382203 
L 479.81374 15.502203 
" style="fill:none;stroke:#000000;stroke-linecap:square;stroke-linejoin:miter;stroke-width:0.8;"/>
   </g>
   <g id="patch_5">
    <path d="M 85.25374 342.382203 
L 479.81374 342.382203 
" style="fill:none;stroke:#000000;stroke-linecap:square;stroke-linejoin:miter;stroke-width:0.8;"/>
   </g>
   <g id="patch_6">
    <path d="M 85.25374 15.502203 
L 479.81374 15.502203 
" style="fill:none;stroke:#000000;stroke-linecap:square;stroke-linejoin:miter;stroke-width:0.8;"/>
   </g>
   <g id="text_9">
    <!-- Monoclonal -->
    <g transform="translate(136.487252 248.632275)rotate(-90)scale(0.24 -0.24)">
     <defs>
      <path d="M 20.90625 66.390625 
C 20.296875 67.890625 20.203125 68 18.09375 68 
L 5.296875 68 
L 5.296875 65.390625 
C 12.203125 65.390625 13.296875 65.390625 13.296875 60.90625 
L 13.296875 9.75 
C 13.296875 7.265625 13.296875 2.59375 5.296875 2.59375 
L 5.296875 0 
C 7.59375 0.1875 11.796875 0.1875 14.296875 0.1875 
C 16.796875 0.1875 21 0.1875 23.296875 0 
L 23.296875 2.59375 
C 15.296875 2.59375 15.296875 7.265625 15.296875 9.75 
L 15.296875 64.984375 
L 15.40625 64.984375 
L 38.90625 1.59375 
C 39.296875 0.59375 39.5 0 40.296875 0 
C 41.09375 0 41.296875 0.59375 41.703125 1.59375 
L 65.40625 65.484375 
L 65.5 65.484375 
L 65.5 7.078125 
C 65.5 2.59375 64.40625 2.59375 57.5 2.59375 
L 57.5 0 
C 60.203125 0.1875 65.59375 0.1875 68.5 0.1875 
C 71.40625 0.1875 76.90625 0.1875 79.59375 0 
L 79.59375 2.59375 
C 72.703125 2.59375 71.59375 2.59375 71.59375 7.078125 
L 71.59375 60.90625 
C 71.59375 65.390625 72.703125 65.390625 79.59375 65.390625 
L 79.59375 68 
L 66.90625 68 
C 64.796875 68 64.703125 67.890625 64.09375 66.390625 
L 42.5 8.0625 
z
" id="CMR17-77"/>
      <path d="M 43.09375 21.1875 
C 43.09375 34 33.796875 44 22.90625 44 
C 12 44 2.703125 34 2.703125 21.1875 
C 2.703125 8.59375 12 -1 22.90625 -1 
C 33.796875 -1 43.09375 8.59375 43.09375 21.1875 
z
M 22.90625 0.796875 
C 18.203125 0.796875 14.203125 3.59375 11.90625 7.5 
C 9.40625 12 9.09375 17.59375 9.09375 22 
C 9.09375 26.1875 9.296875 31.390625 11.90625 35.890625 
C 13.90625 39.1875 17.796875 42.390625 22.90625 42.390625 
C 27.40625 42.390625 31.203125 39.890625 33.59375 36.390625 
C 36.703125 31.6875 36.703125 25.09375 36.703125 22 
C 36.703125 18.09375 36.5 12.09375 33.796875 7.296875 
C 31 2.6875 26.703125 0.796875 22.90625 0.796875 
z
" id="CMR17-111"/>
     </defs>
     <use transform="scale(0.996264)" xlink:href="#CMR17-77"/>
     <use transform="translate(84.686941 0)scale(0.996264)" xlink:href="#CMR17-111"/>
     <use transform="translate(130.377418 0)scale(0.996264)" xlink:href="#CMR17-110"/>
     <use transform="translate(181.272787 0)scale(0.996264)" xlink:href="#CMR17-111"/>
     <use transform="translate(229.565703 0)scale(0.996264)" xlink:href="#CMR17-99"/>
     <use transform="translate(270.051364 0)scale(0.996264)" xlink:href="#CMR17-108"/>
     <use transform="translate(294.922422 0)scale(0.996264)" xlink:href="#CMR17-111"/>
     <use transform="translate(340.612899 0)scale(0.996264)" xlink:href="#CMR17-110"/>
     <use transform="translate(391.508269 0)scale(0.996264)" xlink:href="#CMR17-97"/>
     <use transform="translate(437.198746 0)scale(0.996264)" xlink:href="#CMR17-108"/>
    </g>
    <!-- response -->
    <g transform="translate(161.063296 248.632275)rotate(-90)scale(0.24 -0.24)">
     <defs>
      <path d="M 22 -17.40625 
C 15.59375 -17.40625 15.203125 -17 15.203125 -13.03125 
L 15.203125 5.9375 
C 18.09375 1.703125 22.296875 -1 27.59375 -1 
C 37.59375 -1 47.703125 7.859375 47.703125 21.59375 
C 47.703125 34.3125 39 44 28.703125 44 
C 22.703125 44 17.796875 40.671875 15 36.640625 
L 15 44 
L 3.09375 42.890625 
L 3.09375 40.265625 
C 9 40.265625 9.90625 39.671875 9.90625 34.8125 
L 9.90625 -13.03125 
C 9.90625 -16.890625 9.5 -17.40625 3.09375 -17.40625 
L 3.09375 -20 
C 5.5 -19.8125 9.90625 -19.8125 12.5 -19.8125 
C 15.09375 -19.8125 19.59375 -19.8125 22 -20 
z
M 15.203125 31.484375 
C 15.203125 32.90625 15.203125 35.015625 19.09375 38.765625 
C 19.59375 39.15625 23 42.1875 28 42.1875 
C 35.296875 42.1875 41.296875 33 41.296875 21.5 
C 41.296875 9.984375 34.90625 0.59375 27 0.59375 
C 23.40625 0.59375 19.5 2.3125 16.5 7.046875 
C 15.203125 9.28125 15.203125 9.875 15.203125 11.5 
z
" id="CMR17-112"/>
     </defs>
     <use transform="scale(0.996264)" xlink:href="#CMR17-114"/>
     <use transform="translate(35.280768 0)scale(0.996264)" xlink:href="#CMR17-101"/>
     <use transform="translate(75.766428 0)scale(0.996264)" xlink:href="#CMR17-115"/>
     <use transform="translate(111.567766 0)scale(0.996264)" xlink:href="#CMR17-112"/>
     <use transform="translate(165.065574 0)scale(0.996264)" xlink:href="#CMR17-111"/>
     <use transform="translate(210.756052 0)scale(0.996264)" xlink:href="#CMR17-110"/>
     <use transform="translate(261.651421 0)scale(0.996264)" xlink:href="#CMR17-115"/>
     <use transform="translate(297.452759 0)scale(0.996264)" xlink:href="#CMR17-101"/>
    </g>
   </g>
   <g id="text_10">
    <!-- Polyclonal -->
    <g transform="translate(272.909655 268.605817)scale(0.24 -0.24)">
     <defs>
      <path d="M 19.796875 32 
L 35.796875 32 
C 48.703125 32 58.09375 40.359375 58.09375 49.796875 
C 58.09375 59.234375 48.90625 68 35.796875 68 
L 5.203125 68 
L 5.203125 65.390625 
C 12.09375 65.390625 13.203125 65.390625 13.203125 60.921875 
L 13.203125 7.078125 
C 13.203125 2.59375 12.09375 2.59375 5.203125 2.59375 
L 5.203125 0 
C 8.09375 0.1875 13.40625 0.1875 16.5 0.1875 
C 19.59375 0.1875 24.90625 0.1875 27.796875 0 
L 27.796875 2.59375 
C 20.90625 2.59375 19.796875 2.59375 19.796875 7.078125 
z
M 19.59375 34.09375 
L 19.59375 61.515625 
C 19.59375 64.890625 19.796875 65.390625 23.796875 65.390625 
L 33.90625 65.390625 
C 46.796875 65.390625 50.5 58.046875 50.5 49.796875 
C 50.5 40.75 46.09375 34.09375 33.90625 34.09375 
z
" id="CMR17-80"/>
     </defs>
     <use transform="scale(0.996264)" xlink:href="#CMR17-80"/>
     <use transform="translate(59.983847 0)scale(0.996264)" xlink:href="#CMR17-111"/>
     <use transform="translate(105.674324 0)scale(0.996264)" xlink:href="#CMR17-108"/>
     <use transform="translate(130.545382 0)scale(0.996264)" xlink:href="#CMR17-121"/>
     <use transform="translate(178.838298 0)scale(0.996264)" xlink:href="#CMR17-99"/>
     <use transform="translate(219.323958 0)scale(0.996264)" xlink:href="#CMR17-108"/>
     <use transform="translate(244.195017 0)scale(0.996264)" xlink:href="#CMR17-111"/>
     <use transform="translate(289.885494 0)scale(0.996264)" xlink:href="#CMR17-110"/>
     <use transform="translate(340.780864 0)scale(0.996264)" xlink:href="#CMR17-97"/>
     <use transform="translate(386.471341 0)scale(0.996264)" xlink:href="#CMR17-108"/>
    </g>
    <!-- response -->
    <g transform="translate(272.909655 293.18186)scale(0.24 -0.24)">
     <use transform="scale(0.996264)" xlink:href="#CMR17-114"/>
     <use transform="translate(35.280768 0)scale(0.996264)" xlink:href="#CMR17-101"/>
     <use transform="translate(75.766428 0)scale(0.996264)" xlink:href="#CMR17-115"/>
     <use transform="translate(111.567766 0)scale(0.996264)" xlink:href="#CMR17-112"/>
     <use transform="translate(165.065574 0)scale(0.996264)" xlink:href="#CMR17-111"/>
     <use transform="translate(210.756052 0)scale(0.996264)" xlink:href="#CMR17-110"/>
     <use transform="translate(261.651421 0)scale(0.996264)" xlink:href="#CMR17-115"/>
     <use transform="translate(297.452759 0)scale(0.996264)" xlink:href="#CMR17-101"/>
    </g>
   </g>
   <g id="text_11">
    <!-- Naive -->
    <g transform="translate(360.164687 105.165817)scale(0.24 -0.24)">
     <use transform="scale(0.996264)" xlink:href="#CMR17-78"/>
     <use transform="translate(69.07243 0)scale(0.996264)" xlink:href="#CMR17-97"/>
     <use transform="translate(114.762907 0)scale(0.996264)" xlink:href="#CMR17-105"/>
     <use transform="translate(139.633965 0)scale(0.996264)" xlink:href="#CMR17-118"/>
     <use transform="translate(185.324427 0)scale(0.996264)" xlink:href="#CMR17-101"/>
    </g>
    <!--  response -->
    <g transform="translate(360.164687 129.74186)scale(0.24 -0.24)">
     <use transform="scale(0.996264)" xlink:href="#CMR17-114"/>
     <use transform="translate(35.280768 0)scale(0.996264)" xlink:href="#CMR17-101"/>
     <use transform="translate(75.766428 0)scale(0.996264)" xlink:href="#CMR17-115"/>
     <use transform="translate(111.567766 0)scale(0.996264)" xlink:href="#CMR17-112"/>
     <use transform="translate(165.065574 0)scale(0.996264)" xlink:href="#CMR17-111"/>
     <use transform="translate(210.756052 0)scale(0.996264)" xlink:href="#CMR17-110"/>
     <use transform="translate(261.651421 0)scale(0.996264)" xlink:href="#CMR17-115"/>
     <use transform="translate(297.452759 0)scale(0.996264)" xlink:href="#CMR17-101"/>
    </g>
   </g>
   <g id="text_12">
    <!-- $\phi_c^{-1} = (1 + \kappa(1 - \gamma))^{-1}$ -->
    <g transform="translate(192.247073 55.818329)scale(0.24 -0.24)">
     <defs>
      <path d="M 64.296875 32 
C 65.796875 32 67.296875 32 67.296875 33.6875 
C 67.296875 35.5 65.59375 35.5 63.90625 35.5 
L 8 35.5 
C 6.296875 35.5 4.59375 35.5 4.59375 33.6875 
C 4.59375 32 6.09375 32 7.59375 32 
z
M 63.90625 14.484375 
C 65.59375 14.484375 67.296875 14.484375 67.296875 16.296875 
C 67.296875 18 65.796875 18 64.296875 18 
L 7.59375 18 
C 6.09375 18 4.59375 18 4.59375 16.296875 
C 4.59375 14.484375 6.296875 14.484375 8 14.484375 
z
" id="CMR17-61"/>
      <path d="M 30.59375 -24.40625 
C 30.59375 -24.3125 30.59375 -24.109375 30.296875 -23.8125 
C 25.703125 -19.109375 13.40625 -6.296875 13.40625 24.9375 
C 13.40625 56.171875 25.5 68.875 30.40625 73.890625 
C 30.40625 73.984375 30.59375 74.1875 30.59375 74.484375 
C 30.59375 74.796875 30.296875 75 29.90625 75 
C 28.796875 75 20.296875 67.578125 15.40625 56.5625 
C 10.40625 45.453125 9 34.65625 9 25.046875 
C 9 17.828125 9.703125 5.625 15.703125 -7.296875 
C 20.5 -17.703125 28.703125 -25 29.90625 -25 
C 30.40625 -25 30.59375 -24.8125 30.59375 -24.40625 
z
" id="CMR17-40"/>
      <path d="M 37.703125 23 
L 64.203125 23 
C 65.59375 23 67.296875 23 67.296875 24.6875 
C 67.296875 26.5 65.703125 26.5 64.203125 26.5 
L 37.703125 26.5 
L 37.703125 52.890625 
C 37.703125 54.296875 37.703125 56 36 56 
C 34.203125 56 34.203125 54.390625 34.203125 52.890625 
L 34.203125 26.5 
L 7.703125 26.5 
C 6.296875 26.5 4.59375 26.5 4.59375 24.796875 
C 4.59375 23 6.203125 23 7.703125 23 
L 34.203125 23 
L 34.203125 -3.03125 
C 34.203125 -4.40625 34.203125 -6.109375 35.90625 -6.109375 
C 37.703125 -6.109375 37.703125 -4.515625 37.703125 -3.03125 
z
" id="CMR17-43"/>
      <path d="M 21.296875 24.921875 
C 24.59375 26.71875 28.296875 29.8125 30.796875 31.90625 
C 36.796875 37.09375 39 38.6875 42.796875 40.1875 
C 42.40625 39.59375 42.296875 38.796875 42.296875 38.09375 
C 42.296875 35.390625 44.59375 34.890625 45.59375 34.890625 
C 48.796875 34.890625 50.59375 37.890625 50.59375 39.796875 
C 50.59375 40.390625 50.40625 43 46.90625 43 
C 40.90625 43 35 37.890625 30.59375 34.1875 
C 24.796875 29.109375 21.90625 26.921875 17.796875 25.625 
L 21.59375 41.484375 
C 21.59375 43.09375 20.296875 44 19 44 
C 18.09375 44 15.90625 43.6875 15.09375 40.484375 
L 5.796875 3.484375 
C 5.5 2.28125 5.5 2.09375 5.5 1.484375 
C 5.5 0.09375 6.59375 -1 8.09375 -1 
C 11.09375 -1 11.703125 1.59375 12.203125 3.6875 
C 12.796875 5.765625 16.90625 22.390625 17.09375 23 
C 29.796875 22.390625 34.09375 19.203125 34.09375 14.328125 
C 34.09375 13.640625 34.09375 13.34375 33.796875 12.234375 
C 33.40625 10.34375 33.40625 9.25 33.40625 8.65625 
C 33.40625 2.6875 37.296875 -1 42.203125 -1 
C 46.296875 -1 48.59375 1.890625 50.09375 4.46875 
C 52.203125 8.359375 53.5 13.828125 53.5 14.234375 
C 53.5 14.734375 53.09375 15.125 52.5 15.125 
C 51.59375 15.125 51.5 14.734375 51.09375 13.140625 
C 49.796875 8.359375 47.59375 1 42.5 1 
C 40.296875 1 39.203125 2.28125 39.203125 5.765625 
C 39.203125 7.65625 39.59375 9.859375 40 11.34375 
C 40.203125 12.34375 40.5 13.53125 40.5 14.625 
C 40.5 23.71875 27.90625 24.625 21.296875 24.921875 
z
" id="CMMI12-20"/>
      <path d="M 37.796875 12.265625 
C 37.59375 17.140625 37.40625 24.78125 33.59375 33.71875 
C 31.59375 38.6875 28.203125 44 20.90625 44 
C 8.59375 44 1.90625 28.359375 1.90625 25.765625 
C 1.90625 24.875 2.59375 24.875 2.90625 24.875 
C 3.796875 24.875 3.796875 25.078125 4.296875 26.375 
C 6.40625 32.515625 12.796875 37.390625 19.703125 37.390625 
C 33.59375 37.390625 35.59375 22 35.59375 12.171875 
C 35.59375 5.90625 34.90625 3.828125 34.296875 1.84375 
C 32.40625 -4.3125 29.09375 -16.625 29.09375 -19.40625 
C 29.09375 -20.203125 29.40625 -21.109375 30.203125 -21.109375 
C 31.703125 -21.109375 32.59375 -17.8125 33.703125 -13.84375 
C 36.09375 -5.109375 36.703125 -0.734375 37.203125 3.234375 
C 37.5 5.625 43.203125 22.015625 51.09375 37.609375 
C 51.796875 39.203125 53.203125 41.890625 53.203125 42.1875 
C 53.203125 42.296875 53.09375 43 52.203125 43 
C 52 43 51.5 43 51.296875 42.59375 
C 51.09375 42.390625 47.59375 35.625 44.59375 28.875 
C 43.09375 25.46875 41.09375 21 37.796875 12.265625 
z
" id="CMMI12-13"/>
      <path d="M 26.296875 24.9375 
C 26.296875 32.140625 25.59375 44.359375 19.59375 57.265625 
C 14.796875 67.6875 6.59375 75 5.40625 75 
C 5.09375 75 4.703125 74.890625 4.703125 74.390625 
C 4.703125 74.1875 4.796875 74.09375 4.90625 73.890625 
C 9.703125 68.875 21.90625 56.171875 21.90625 25.046875 
C 21.90625 -6.1875 9.796875 -18.90625 4.90625 -23.90625 
C 4.796875 -24.109375 4.703125 -24.203125 4.703125 -24.40625 
C 4.703125 -24.90625 5.09375 -25 5.40625 -25 
C 6.5 -25 15 -17.609375 19.90625 -6.59375 
C 24.90625 4.515625 26.296875 15.328125 26.296875 24.9375 
z
" id="CMR17-41"/>
     </defs>
     <use transform="scale(0.996264)" xlink:href="#CMMI12-30"/>
     <use transform="translate(57.73418 36.153639)scale(0.697382)" xlink:href="#CMSY10-0"/>
     <use transform="translate(111.975174 36.153639)scale(0.697382)" xlink:href="#CMR17-49"/>
     <use transform="translate(57.73418 -24.62935)scale(0.697382)" xlink:href="#CMMI12-99"/>
     <use transform="translate(172.130496 0)scale(0.996264)" xlink:href="#CMR17-61"/>
     <use transform="translate(271.519293 0)scale(0.996264)" xlink:href="#CMR17-40"/>
     <use transform="translate(306.800061 0)scale(0.996264)" xlink:href="#CMR17-49"/>
     <use transform="translate(374.629745 0)scale(0.996264)" xlink:href="#CMR17-43"/>
     <use transform="translate(468.483741 0)scale(0.996264)" xlink:href="#CMMI12-20"/>
     <use transform="translate(524.638365 0)scale(0.996264)" xlink:href="#CMR17-40"/>
     <use transform="translate(559.919133 0)scale(0.996264)" xlink:href="#CMR17-49"/>
     <use transform="translate(627.748817 0)scale(0.996264)" xlink:href="#CMSY10-0"/>
     <use transform="translate(727.375491 0)scale(0.996264)" xlink:href="#CMMI12-13"/>
     <use transform="translate(783.394059 0)scale(0.996264)" xlink:href="#CMR17-41"/>
     <use transform="translate(818.674827 0)scale(0.996264)" xlink:href="#CMR17-41"/>
     <use transform="translate(853.955595 36.153639)scale(0.697382)" xlink:href="#CMSY10-0"/>
     <use transform="translate(908.196588 36.153639)scale(0.697382)" xlink:href="#CMR17-49"/>
    </g>
   </g>
  </g>
  <g id="axes_2">
   <g id="patch_7">
    <path d="M 558.72574 342.382203 
L 953.28574 342.382203 
L 953.28574 15.502203 
L 558.72574 15.502203 
z
" style="fill:#ffffff;"/>
   </g>
   <g id="PolyCollection_4">
    <path clip-path="url(#p2be8650b5f)" d="M 542.402048 171688.326665 
L 542.402048 31.124336 
L 564.366874 46.631952 
L 587.652312 62.139568 
L 611.850607 77.647184 
L 636.272928 93.1548 
L 660.679965 108.662416 
L 684.055968 124.170032 
L 706.420602 139.677648 
L 728.246679 155.185264 
L 748.620328 170.69288 
L 750.671225 172.199269 
L 763.463421 182.006636 
L 775.556968 191.814004 
L 787.628452 201.621372 
L 798.937664 211.428739 
L 810.184147 221.236107 
L 821.451106 231.043474 
L 831.876103 240.850842 
L 842.755651 250.65821 
L 853.326453 260.465577 
L 853.287456 260.465577 
L 862.554365 269.567425 
L 872.024135 278.669272 
L 881.126183 287.771119 
L 890.340216 296.872966 
L 898.797978 305.974814 
L 908.098186 315.076661 
L 916.948839 324.178508 
L 926.142663 333.280355 
L 933.719849 342.382203 
L 933.719849 171688.326665 
L 933.719849 171688.326665 
L 926.142663 171688.326665 
L 916.948839 171688.326665 
L 908.098186 171688.326665 
L 898.797978 171688.326665 
L 890.340216 171688.326665 
L 881.126183 171688.326665 
L 872.024135 171688.326665 
L 862.554365 171688.326665 
L 853.287456 171688.326665 
L 853.326453 171688.326665 
L 842.755651 171688.326665 
L 831.876103 171688.326665 
L 821.451106 171688.326665 
L 810.184147 171688.326665 
L 798.937664 171688.326665 
L 787.628452 171688.326665 
L 775.556968 171688.326665 
L 763.463421 171688.326665 
L 750.671225 171688.326665 
L 748.620328 171688.326665 
L 728.246679 171688.326665 
L 706.420602 171688.326665 
L 684.055968 171688.326665 
L 660.679965 171688.326665 
L 636.272928 171688.326665 
L 611.850607 171688.326665 
L 587.652312 171688.326665 
L 564.366874 171688.326665 
L 542.402048 171688.326665 
z
" style="fill:#d62728;fill-opacity:0.4;stroke:#d62728;stroke-opacity:0.4;"/>
   </g>
   <g id="PolyCollection_5">
    <path clip-path="url(#p2be8650b5f)" d="M 661.730995 171688.326665 
L 661.730995 343.566994 
L 664.416018 331.714903 
L 667.104083 320.614676 
L 668.93998 313.456317 
L 671.077943 305.536907 
L 673.576316 296.830197 
L 676.015754 288.875799 
L 678.693951 280.738229 
L 682.235249 270.887217 
L 683.115568 268.59233 
L 688.447603 255.926844 
L 690.66105 251.25986 
L 694.656286 243.65142 
L 705.480321 227.761266 
L 715.996916 217.888518 
L 743.62381 210.286836 
L 752.321488 211.62423 
L 780.134425 222.441956 
L 797.022064 231.800785 
L 814.855577 242.843665 
L 830.345254 253.125536 
L 840.71207 260.354071 
L 843.573255 262.402385 
L 849.594392 266.794342 
L 860.323448 274.917204 
L 870.570006 283.065296 
L 890.340216 299.947009 
L 898.797978 307.619056 
L 908.098186 316.308683 
L 916.948839 324.743924 
L 926.142663 333.550162 
L 933.719849 340.717081 
L 933.719849 171688.326665 
L 933.719849 171688.326665 
L 926.142663 171688.326665 
L 916.948839 171688.326665 
L 908.098186 171688.326665 
L 898.797978 171688.326665 
L 890.340216 171688.326665 
L 870.570006 171688.326665 
L 860.323448 171688.326665 
L 849.594392 171688.326665 
L 843.573255 171688.326665 
L 840.71207 171688.326665 
L 830.345254 171688.326665 
L 814.855577 171688.326665 
L 797.022064 171688.326665 
L 780.134425 171688.326665 
L 752.321488 171688.326665 
L 743.62381 171688.326665 
L 715.996916 171688.326665 
L 705.480321 171688.326665 
L 694.656286 171688.326665 
L 690.66105 171688.326665 
L 688.447603 171688.326665 
L 683.115568 171688.326665 
L 682.235249 171688.326665 
L 678.693951 171688.326665 
L 676.015754 171688.326665 
L 673.576316 171688.326665 
L 671.077943 171688.326665 
L 668.93998 171688.326665 
L 667.104083 171688.326665 
L 664.416018 171688.326665 
L 661.730995 171688.326665 
z
" style="fill:#ffffff;stroke:#ffffff;"/>
   </g>
   <g id="PolyCollection_6">
    <path clip-path="url(#p2be8650b5f)" d="M 661.730995 171688.326665 
L 661.730995 343.566994 
L 664.416018 331.714903 
L 667.104083 320.614676 
L 668.93998 313.456317 
L 671.077943 305.536907 
L 673.576316 296.830197 
L 676.015754 288.875799 
L 678.693951 280.738229 
L 682.235249 270.887217 
L 683.115568 268.59233 
L 688.447603 255.926844 
L 690.66105 251.25986 
L 694.656286 243.65142 
L 705.480321 227.761266 
L 715.996916 217.888518 
L 743.62381 210.286836 
L 752.321488 211.62423 
L 780.134425 222.441956 
L 797.022064 231.800785 
L 814.855577 242.843665 
L 830.345254 253.125536 
L 840.71207 260.354071 
L 843.573255 262.402385 
L 849.594392 266.794342 
L 860.323448 274.917204 
L 870.570006 283.065296 
L 890.340216 299.947009 
L 898.797978 307.619056 
L 908.098186 316.308683 
L 916.948839 324.743924 
L 926.142663 333.550162 
L 933.719849 340.717081 
L 933.719849 171688.326665 
L 933.719849 171688.326665 
L 926.142663 171688.326665 
L 916.948839 171688.326665 
L 908.098186 171688.326665 
L 898.797978 171688.326665 
L 890.340216 171688.326665 
L 870.570006 171688.326665 
L 860.323448 171688.326665 
L 849.594392 171688.326665 
L 843.573255 171688.326665 
L 840.71207 171688.326665 
L 830.345254 171688.326665 
L 814.855577 171688.326665 
L 797.022064 171688.326665 
L 780.134425 171688.326665 
L 752.321488 171688.326665 
L 743.62381 171688.326665 
L 715.996916 171688.326665 
L 705.480321 171688.326665 
L 694.656286 171688.326665 
L 690.66105 171688.326665 
L 688.447603 171688.326665 
L 683.115568 171688.326665 
L 682.235249 171688.326665 
L 678.693951 171688.326665 
L 676.015754 171688.326665 
L 673.576316 171688.326665 
L 671.077943 171688.326665 
L 668.93998 171688.326665 
L 667.104083 171688.326665 
L 664.416018 171688.326665 
L 661.730995 171688.326665 
z
" style="fill:#1f77b4;fill-opacity:0.4;stroke:#1f77b4;stroke-opacity:0.4;"/>
   </g>
   <g id="matplotlib.axis_3">
    <g id="xtick_20">
     <g id="line2d_42">
      <g>
       <use style="stroke:#000000;stroke-width:0.8;" x="633.615775" xlink:href="#mb3d24d9444" y="342.382203"/>
      </g>
     </g>
     <g id="text_13">
      <!-- 1 -->
      <g transform="translate(628.132918 365.986608)scale(0.24 -0.24)">
       <use transform="scale(0.996264)" xlink:href="#CMR17-49"/>
      </g>
     </g>
    </g>
    <g id="xtick_21">
     <g id="line2d_43">
      <g>
       <use style="stroke:#000000;stroke-width:0.6;" x="558.72574" xlink:href="#m3541d457d6" y="342.382203"/>
      </g>
     </g>
    </g>
    <g id="xtick_22">
     <g id="line2d_44">
      <g>
       <use style="stroke:#000000;stroke-width:0.6;" x="581.325134" xlink:href="#m3541d457d6" y="342.382203"/>
      </g>
     </g>
    </g>
    <g id="xtick_23">
     <g id="line2d_45">
      <g>
       <use style="stroke:#000000;stroke-width:0.6;" x="600.901621" xlink:href="#m3541d457d6" y="342.382203"/>
      </g>
     </g>
    </g>
    <g id="xtick_24">
     <g id="line2d_46">
      <g>
       <use style="stroke:#000000;stroke-width:0.6;" x="618.169305" xlink:href="#m3541d457d6" y="342.382203"/>
      </g>
     </g>
    </g>
    <g id="xtick_25">
     <g id="line2d_47">
      <g>
       <use style="stroke:#000000;stroke-width:0.6;" x="735.235222" xlink:href="#m3541d457d6" y="342.382203"/>
      </g>
     </g>
    </g>
    <g id="xtick_26">
     <g id="line2d_48">
      <g>
       <use style="stroke:#000000;stroke-width:0.6;" x="794.678788" xlink:href="#m3541d457d6" y="342.382203"/>
      </g>
     </g>
    </g>
    <g id="xtick_27">
     <g id="line2d_49">
      <g>
       <use style="stroke:#000000;stroke-width:0.6;" x="836.854669" xlink:href="#m3541d457d6" y="342.382203"/>
      </g>
     </g>
    </g>
    <g id="xtick_28">
     <g id="line2d_50">
      <g>
       <use style="stroke:#000000;stroke-width:0.6;" x="869.568824" xlink:href="#m3541d457d6" y="342.382203"/>
      </g>
     </g>
    </g>
    <g id="xtick_29">
     <g id="line2d_51">
      <g>
       <use style="stroke:#000000;stroke-width:0.6;" x="896.298235" xlink:href="#m3541d457d6" y="342.382203"/>
      </g>
     </g>
    </g>
    <g id="xtick_30">
     <g id="line2d_52">
      <g>
       <use style="stroke:#000000;stroke-width:0.6;" x="918.897629" xlink:href="#m3541d457d6" y="342.382203"/>
      </g>
     </g>
    </g>
    <g id="xtick_31">
     <g id="line2d_53">
      <g>
       <use style="stroke:#000000;stroke-width:0.6;" x="938.474116" xlink:href="#m3541d457d6" y="342.382203"/>
      </g>
     </g>
    </g>
    <g id="text_14">
     <!-- Viral divergence $\sigma_v/r_0$ -->
     <g transform="translate(648.591678 392.570117)scale(0.24 -0.24)">
      <use transform="scale(0.996264)" xlink:href="#CMR17-86"/>
      <use transform="translate(69.07243 0)scale(0.996264)" xlink:href="#CMR17-105"/>
      <use transform="translate(93.943488 0)scale(0.996264)" xlink:href="#CMR17-114"/>
      <use transform="translate(129.224256 0)scale(0.996264)" xlink:href="#CMR17-97"/>
      <use transform="translate(174.914733 0)scale(0.996264)" xlink:href="#CMR17-108"/>
      <use transform="translate(229.861758 0)scale(0.996264)" xlink:href="#CMR17-100"/>
      <use transform="translate(280.757128 0)scale(0.996264)" xlink:href="#CMR17-105"/>
      <use transform="translate(305.628186 0)scale(0.996264)" xlink:href="#CMR17-118"/>
      <use transform="translate(351.318648 0)scale(0.996264)" xlink:href="#CMR17-101"/>
      <use transform="translate(391.804309 0)scale(0.996264)" xlink:href="#CMR17-114"/>
      <use transform="translate(427.085076 0)scale(0.996264)" xlink:href="#CMR17-103"/>
      <use transform="translate(472.775554 0)scale(0.996264)" xlink:href="#CMR17-101"/>
      <use transform="translate(513.261214 0)scale(0.996264)" xlink:href="#CMR17-110"/>
      <use transform="translate(564.156584 0)scale(0.996264)" xlink:href="#CMR17-99"/>
      <use transform="translate(604.642244 0)scale(0.996264)" xlink:href="#CMR17-101"/>
      <use transform="translate(675.203871 0)scale(0.996264)" xlink:href="#CMMI12-27"/>
      <use transform="translate(730.649332 -14.943915)scale(0.697382)" xlink:href="#CMMI12-118"/>
      <use transform="translate(766.661914 0)scale(0.996264)" xlink:href="#CMMI12-61"/>
      <use transform="translate(815.436832 0)scale(0.996264)" xlink:href="#CMMI12-114"/>
      <use transform="translate(859.397727 -14.943915)scale(0.697382)" xlink:href="#CMR17-48"/>
     </g>
    </g>
   </g>
   <g id="matplotlib.axis_4">
    <g id="ytick_21">
     <g id="line2d_54">
      <g>
       <use style="stroke:#000000;stroke-width:0.8;" x="558.72574" xlink:href="#mce5dd6a6dc" y="342.382203"/>
      </g>
     </g>
     <g id="text_15">
      <!-- $\mathdefault{10^{-2}}$ -->
      <g transform="translate(508.582336 350.684405)scale(0.24 -0.24)">
       <use transform="scale(0.996264)" xlink:href="#CMR17-49"/>
       <use transform="translate(45.690477 0)scale(0.996264)" xlink:href="#CMR17-48"/>
       <use transform="translate(91.380954 36.153639)scale(0.697382)" xlink:href="#CMSY10-0"/>
       <use transform="translate(145.621947 36.153639)scale(0.697382)" xlink:href="#CMR17-50"/>
      </g>
     </g>
    </g>
    <g id="ytick_22">
     <g id="line2d_55">
      <g>
       <use style="stroke:#000000;stroke-width:0.8;" x="558.72574" xlink:href="#mce5dd6a6dc" y="170.69288"/>
      </g>
     </g>
     <g id="text_16">
      <!-- $\mathdefault{10^{-1}}$ -->
      <g transform="translate(508.582336 178.995082)scale(0.24 -0.24)">
       <use transform="scale(0.996264)" xlink:href="#CMR17-49"/>
       <use transform="translate(45.690477 0)scale(0.996264)" xlink:href="#CMR17-48"/>
       <use transform="translate(91.380954 36.153639)scale(0.697382)" xlink:href="#CMSY10-0"/>
       <use transform="translate(145.621947 36.153639)scale(0.697382)" xlink:href="#CMR17-49"/>
      </g>
     </g>
    </g>
    <g id="ytick_23">
     <g id="line2d_56">
      <g>
       <use style="stroke:#000000;stroke-width:0.6;" x="558.72574" xlink:href="#md589ad1364" y="290.698566"/>
      </g>
     </g>
    </g>
    <g id="ytick_24">
     <g id="line2d_57">
      <g>
       <use style="stroke:#000000;stroke-width:0.6;" x="558.72574" xlink:href="#md589ad1364" y="260.465577"/>
      </g>
     </g>
    </g>
    <g id="ytick_25">
     <g id="line2d_58">
      <g>
       <use style="stroke:#000000;stroke-width:0.6;" x="558.72574" xlink:href="#md589ad1364" y="239.01493"/>
      </g>
     </g>
    </g>
    <g id="ytick_26">
     <g id="line2d_59">
      <g>
       <use style="stroke:#000000;stroke-width:0.6;" x="558.72574" xlink:href="#md589ad1364" y="222.376516"/>
      </g>
     </g>
    </g>
    <g id="ytick_27">
     <g id="line2d_60">
      <g>
       <use style="stroke:#000000;stroke-width:0.6;" x="558.72574" xlink:href="#md589ad1364" y="208.781941"/>
      </g>
     </g>
    </g>
    <g id="ytick_28">
     <g id="line2d_61">
      <g>
       <use style="stroke:#000000;stroke-width:0.6;" x="558.72574" xlink:href="#md589ad1364" y="197.287892"/>
      </g>
     </g>
    </g>
    <g id="ytick_29">
     <g id="line2d_62">
      <g>
       <use style="stroke:#000000;stroke-width:0.6;" x="558.72574" xlink:href="#md589ad1364" y="187.331294"/>
      </g>
     </g>
    </g>
    <g id="ytick_30">
     <g id="line2d_63">
      <g>
       <use style="stroke:#000000;stroke-width:0.6;" x="558.72574" xlink:href="#md589ad1364" y="178.548952"/>
      </g>
     </g>
    </g>
    <g id="ytick_31">
     <g id="line2d_64">
      <g>
       <use style="stroke:#000000;stroke-width:0.6;" x="558.72574" xlink:href="#md589ad1364" y="119.009243"/>
      </g>
     </g>
    </g>
    <g id="ytick_32">
     <g id="line2d_65">
      <g>
       <use style="stroke:#000000;stroke-width:0.6;" x="558.72574" xlink:href="#md589ad1364" y="88.776254"/>
      </g>
     </g>
    </g>
    <g id="ytick_33">
     <g id="line2d_66">
      <g>
       <use style="stroke:#000000;stroke-width:0.6;" x="558.72574" xlink:href="#md589ad1364" y="67.325607"/>
      </g>
     </g>
    </g>
    <g id="ytick_34">
     <g id="line2d_67">
      <g>
       <use style="stroke:#000000;stroke-width:0.6;" x="558.72574" xlink:href="#md589ad1364" y="50.687193"/>
      </g>
     </g>
    </g>
    <g id="ytick_35">
     <g id="line2d_68">
      <g>
       <use style="stroke:#000000;stroke-width:0.6;" x="558.72574" xlink:href="#md589ad1364" y="37.092618"/>
      </g>
     </g>
    </g>
    <g id="ytick_36">
     <g id="line2d_69">
      <g>
       <use style="stroke:#000000;stroke-width:0.6;" x="558.72574" xlink:href="#md589ad1364" y="25.598569"/>
      </g>
     </g>
    </g>
    <g id="ytick_37">
     <g id="line2d_70">
      <g>
       <use style="stroke:#000000;stroke-width:0.6;" x="558.72574" xlink:href="#md589ad1364" y="15.641971"/>
      </g>
     </g>
    </g>
    <g id="text_17">
     <!-- Naive density $1/\phi$ -->
     <g transform="translate(498.604752 265.591975)rotate(-90)scale(0.24 -0.24)">
      <use transform="scale(0.996264)" xlink:href="#CMR17-78"/>
      <use transform="translate(69.07243 0)scale(0.996264)" xlink:href="#CMR17-97"/>
      <use transform="translate(114.762907 0)scale(0.996264)" xlink:href="#CMR17-105"/>
      <use transform="translate(139.633965 0)scale(0.996264)" xlink:href="#CMR17-118"/>
      <use transform="translate(185.324427 0)scale(0.996264)" xlink:href="#CMR17-101"/>
      <use transform="translate(255.886054 0)scale(0.996264)" xlink:href="#CMR17-100"/>
      <use transform="translate(306.781424 0)scale(0.996264)" xlink:href="#CMR17-101"/>
      <use transform="translate(347.267084 0)scale(0.996264)" xlink:href="#CMR17-110"/>
      <use transform="translate(398.162454 0)scale(0.996264)" xlink:href="#CMR17-115"/>
      <use transform="translate(433.963792 0)scale(0.996264)" xlink:href="#CMR17-105"/>
      <use transform="translate(458.83485 0)scale(0.996264)" xlink:href="#CMR17-116"/>
      <use transform="translate(491.513164 0)scale(0.996264)" xlink:href="#CMR17-121"/>
      <use transform="translate(569.882046 0)scale(0.996264)" xlink:href="#CMR17-49"/>
      <use transform="translate(615.572523 0)scale(0.996264)" xlink:href="#CMMI12-61"/>
      <use transform="translate(664.347442 0)scale(0.996264)" xlink:href="#CMMI12-30"/>
     </g>
    </g>
   </g>
   <g id="line2d_71">
    <path clip-path="url(#p2be8650b5f)" d="M 542.402048 31.124336 
L 564.366874 46.631952 
L 587.652312 62.139568 
L 611.850607 77.647184 
L 636.272928 93.1548 
L 660.679965 108.662416 
L 684.055968 124.170032 
L 706.420602 139.677648 
L 728.246679 155.185264 
L 748.620328 170.69288 
L 750.671225 172.199269 
L 763.463421 182.006636 
L 775.556968 191.814004 
L 787.628452 201.621372 
L 798.937664 211.428739 
L 810.184147 221.236107 
L 821.451106 231.043474 
L 831.876103 240.850842 
L 842.755651 250.65821 
L 853.326453 260.465577 
L 853.287456 260.465577 
L 862.554365 269.567425 
L 872.024135 278.669272 
L 881.126183 287.771119 
L 890.340216 296.872966 
L 898.797978 305.974814 
L 908.098186 315.076661 
L 916.948839 324.178508 
L 926.142663 333.280355 
L 933.719849 342.382203 
" style="fill:none;stroke:#d62728;stroke-linecap:square;stroke-width:2;"/>
   </g>
   <g id="line2d_72">
    <path clip-path="url(#p2be8650b5f)" d="M 661.730995 343.566994 
L 664.416018 331.714903 
L 667.104083 320.614676 
L 668.93998 313.456317 
L 671.077943 305.536907 
L 673.576316 296.830197 
L 676.015754 288.875799 
L 678.693951 280.738229 
L 682.235249 270.887217 
L 683.115568 268.59233 
L 688.447603 255.926844 
L 690.66105 251.25986 
L 694.656286 243.65142 
L 705.480321 227.761266 
L 715.996916 217.888518 
L 743.62381 210.286836 
L 752.321488 211.62423 
L 780.134425 222.441956 
L 797.022064 231.800785 
L 814.855577 242.843665 
L 830.345254 253.125536 
L 840.71207 260.354071 
L 843.573255 262.402385 
L 849.594392 266.794342 
L 860.323448 274.917204 
L 870.570006 283.065296 
L 890.340216 299.947009 
L 898.797978 307.619056 
L 908.098186 316.308683 
L 916.948839 324.743924 
L 926.142663 333.550162 
L 933.719849 340.717081 
" style="fill:none;stroke:#1f77b4;stroke-linecap:square;stroke-width:2;"/>
   </g>
   <g id="patch_8">
    <path d="M 558.72574 342.382203 
L 558.72574 15.502203 
" style="fill:none;stroke:#000000;stroke-linecap:square;stroke-linejoin:miter;stroke-width:0.8;"/>
   </g>
   <g id="patch_9">
    <path d="M 953.28574 342.382203 
L 953.28574 15.502203 
" style="fill:none;stroke:#000000;stroke-linecap:square;stroke-linejoin:miter;stroke-width:0.8;"/>
   </g>
   <g id="patch_10">
    <path d="M 558.72574 342.382203 
L 953.28574 342.382203 
" style="fill:none;stroke:#000000;stroke-linecap:square;stroke-linejoin:miter;stroke-width:0.8;"/>
   </g>
   <g id="patch_11">
    <path d="M 558.72574 15.502203 
L 953.28574 15.502203 
" style="fill:none;stroke:#000000;stroke-linecap:square;stroke-linejoin:miter;stroke-width:0.8;"/>
   </g>
   <g id="text_18">
    <!-- Monoclonal -->
    <g transform="translate(608.0443 243.665688)rotate(-90)scale(0.24 -0.24)">
     <use transform="scale(0.996264)" xlink:href="#CMR17-77"/>
     <use transform="translate(84.686941 0)scale(0.996264)" xlink:href="#CMR17-111"/>
     <use transform="translate(130.377418 0)scale(0.996264)" xlink:href="#CMR17-110"/>
     <use transform="translate(181.272787 0)scale(0.996264)" xlink:href="#CMR17-111"/>
     <use transform="translate(229.565703 0)scale(0.996264)" xlink:href="#CMR17-99"/>
     <use transform="translate(270.051364 0)scale(0.996264)" xlink:href="#CMR17-108"/>
     <use transform="translate(294.922422 0)scale(0.996264)" xlink:href="#CMR17-111"/>
     <use transform="translate(340.612899 0)scale(0.996264)" xlink:href="#CMR17-110"/>
     <use transform="translate(391.508269 0)scale(0.996264)" xlink:href="#CMR17-97"/>
     <use transform="translate(437.198746 0)scale(0.996264)" xlink:href="#CMR17-108"/>
    </g>
    <!-- response -->
    <g transform="translate(632.620343 243.665688)rotate(-90)scale(0.24 -0.24)">
     <use transform="scale(0.996264)" xlink:href="#CMR17-114"/>
     <use transform="translate(35.280768 0)scale(0.996264)" xlink:href="#CMR17-101"/>
     <use transform="translate(75.766428 0)scale(0.996264)" xlink:href="#CMR17-115"/>
     <use transform="translate(111.567766 0)scale(0.996264)" xlink:href="#CMR17-112"/>
     <use transform="translate(165.065574 0)scale(0.996264)" xlink:href="#CMR17-111"/>
     <use transform="translate(210.756052 0)scale(0.996264)" xlink:href="#CMR17-110"/>
     <use transform="translate(261.651421 0)scale(0.996264)" xlink:href="#CMR17-115"/>
     <use transform="translate(297.452759 0)scale(0.996264)" xlink:href="#CMR17-101"/>
    </g>
   </g>
   <g id="text_19">
    <!-- Polyclonal -->
    <g transform="translate(702.521067 266.122523)scale(0.24 -0.24)">
     <use transform="scale(0.996264)" xlink:href="#CMR17-80"/>
     <use transform="translate(59.983847 0)scale(0.996264)" xlink:href="#CMR17-111"/>
     <use transform="translate(105.674324 0)scale(0.996264)" xlink:href="#CMR17-108"/>
     <use transform="translate(130.545382 0)scale(0.996264)" xlink:href="#CMR17-121"/>
     <use transform="translate(178.838298 0)scale(0.996264)" xlink:href="#CMR17-99"/>
     <use transform="translate(219.323958 0)scale(0.996264)" xlink:href="#CMR17-108"/>
     <use transform="translate(244.195017 0)scale(0.996264)" xlink:href="#CMR17-111"/>
     <use transform="translate(289.885494 0)scale(0.996264)" xlink:href="#CMR17-110"/>
     <use transform="translate(340.780864 0)scale(0.996264)" xlink:href="#CMR17-97"/>
     <use transform="translate(386.471341 0)scale(0.996264)" xlink:href="#CMR17-108"/>
    </g>
    <!-- response -->
    <g transform="translate(702.521067 290.698566)scale(0.24 -0.24)">
     <use transform="scale(0.996264)" xlink:href="#CMR17-114"/>
     <use transform="translate(35.280768 0)scale(0.996264)" xlink:href="#CMR17-101"/>
     <use transform="translate(75.766428 0)scale(0.996264)" xlink:href="#CMR17-115"/>
     <use transform="translate(111.567766 0)scale(0.996264)" xlink:href="#CMR17-112"/>
     <use transform="translate(165.065574 0)scale(0.996264)" xlink:href="#CMR17-111"/>
     <use transform="translate(210.756052 0)scale(0.996264)" xlink:href="#CMR17-110"/>
     <use transform="translate(261.651421 0)scale(0.996264)" xlink:href="#CMR17-115"/>
     <use transform="translate(297.452759 0)scale(0.996264)" xlink:href="#CMR17-101"/>
    </g>
   </g>
   <g id="text_20">
    <!-- Naive -->
    <g transform="translate(836.854669 94.4332)scale(0.24 -0.24)">
     <use transform="scale(0.996264)" xlink:href="#CMR17-78"/>
     <use transform="translate(69.07243 0)scale(0.996264)" xlink:href="#CMR17-97"/>
     <use transform="translate(114.762907 0)scale(0.996264)" xlink:href="#CMR17-105"/>
     <use transform="translate(139.633965 0)scale(0.996264)" xlink:href="#CMR17-118"/>
     <use transform="translate(185.324427 0)scale(0.996264)" xlink:href="#CMR17-101"/>
    </g>
    <!--  response -->
    <g transform="translate(836.854669 119.009243)scale(0.24 -0.24)">
     <use transform="scale(0.996264)" xlink:href="#CMR17-114"/>
     <use transform="translate(35.280768 0)scale(0.996264)" xlink:href="#CMR17-101"/>
     <use transform="translate(75.766428 0)scale(0.996264)" xlink:href="#CMR17-115"/>
     <use transform="translate(111.567766 0)scale(0.996264)" xlink:href="#CMR17-112"/>
     <use transform="translate(165.065574 0)scale(0.996264)" xlink:href="#CMR17-111"/>
     <use transform="translate(210.756052 0)scale(0.996264)" xlink:href="#CMR17-110"/>
     <use transform="translate(261.651421 0)scale(0.996264)" xlink:href="#CMR17-115"/>
     <use transform="translate(297.452759 0)scale(0.996264)" xlink:href="#CMR17-101"/>
    </g>
   </g>
  </g>
 </g>
 <defs>
  <clipPath id="pb2afda166d">
   <rect height="326.88" width="394.56" x="85.25374" y="15.502203"/>
  </clipPath>
  <clipPath id="p2be8650b5f">
   <rect height="326.88" width="394.56" x="558.72574" y="15.502203"/>
  </clipPath>
 </defs>
</svg>
