<?xml version="1.0" encoding="utf-8" standalone="no"?>
<!DOCTYPE svg PUBLIC "-//W3C//DTD SVG 1.1//EN"
  "http://www.w3.org/Graphics/SVG/1.1/DTD/svg11.dtd">
<!-- Created with matplotlib (https://matplotlib.org/) -->
<svg height="694.975163pt" version="1.1" viewBox="0 0 500.697144 694.975163" width="500.697144pt" xmlns="http://www.w3.org/2000/svg" xmlns:xlink="http://www.w3.org/1999/xlink">
 <metadata>
  <rdf:RDF xmlns:cc="http://creativecommons.org/ns#" xmlns:dc="http://purl.org/dc/elements/1.1/" xmlns:rdf="http://www.w3.org/1999/02/22-rdf-syntax-ns#">
   <cc:Work>
    <dc:type rdf:resource="http://purl.org/dc/dcmitype/StillImage"/>
    <dc:date>2021-07-01T17:31:33.563228</dc:date>
    <dc:format>image/svg+xml</dc:format>
    <dc:creator>
     <cc:Agent>
      <dc:title>Matplotlib v3.3.4, https://matplotlib.org/</dc:title>
     </cc:Agent>
    </dc:creator>
   </cc:Work>
  </rdf:RDF>
 </metadata>
 <defs>
  <style type="text/css">*{stroke-linecap:butt;stroke-linejoin:round;}</style>
 </defs>
 <g id="figure_1">
  <g id="patch_1">
   <path d="M 0 694.975163 
L 500.697144 694.975163 
L 500.697144 0 
L 0 0 
z
" style="fill:none;"/>
  </g>
  <g id="axes_1">
   <g id="patch_2">
    <path d="M 160.640353 303.709091 
L 379.953934 303.709091 
L 379.953934 7.2 
L 160.640353 7.2 
z
" style="fill:#ffffff;"/>
   </g>
   <g id="matplotlib.axis_1">
    <g id="xtick_1">
     <g id="line2d_1">
      <defs>
       <path d="M 0 0 
L 0 3.5 
" id="mdf5c2d9e4a" style="stroke:#000000;stroke-width:0.8;"/>
      </defs>
      <g>
       <use style="stroke:#000000;stroke-width:0.8;" x="185.346917" xlink:href="#mdf5c2d9e4a" y="303.709091"/>
      </g>
     </g>
     <g id="text_1">
      <!-- $\mathdefault{−2}$ -->
      <g transform="translate(170.565562 327.313496)scale(0.24 -0.24)">
       <defs>
        <path d="M 65.90625 23 
C 67.59375 23 69.40625 23 69.40625 25 
C 69.40625 27 67.59375 27 65.90625 27 
L 11.796875 27 
C 10.09375 27 8.296875 27 8.296875 25 
C 8.296875 23 10.09375 23 11.796875 23 
z
" id="CMSY10-0"/>
        <path d="M 41.703125 15.46875 
L 39.90625 15.46875 
C 38.90625 8.390625 38.09375 7.1875 37.703125 6.59375 
C 37.203125 5.796875 30 5.796875 28.59375 5.796875 
L 9.40625 5.796875 
C 13 9.6875 20 16.765625 28.5 24.9375 
C 34.59375 30.71875 41.703125 37.5 41.703125 47.390625 
C 41.703125 59.1875 32.296875 66 21.796875 66 
C 10.796875 66 4.09375 56.296875 4.09375 47.296875 
C 4.09375 43.390625 7 42.890625 8.203125 42.890625 
C 9.203125 42.890625 12.203125 43.484375 12.203125 46.984375 
C 12.203125 50.09375 9.59375 51 8.203125 51 
C 7.59375 51 7 50.890625 6.59375 50.6875 
C 8.5 59.1875 14.296875 63.390625 20.40625 63.390625 
C 29.09375 63.390625 34.796875 56.5 34.796875 47.390625 
C 34.796875 38.703125 29.703125 31.21875 24 24.734375 
L 4.09375 2.296875 
L 4.09375 0 
L 39.296875 0 
z
" id="CMR17-50"/>
       </defs>
       <use transform="scale(0.996264)" xlink:href="#CMSY10-0"/>
       <use transform="translate(77.487468 0)scale(0.996264)" xlink:href="#CMR17-50"/>
      </g>
     </g>
    </g>
    <g id="xtick_2">
     <g id="line2d_2">
      <g>
       <use style="stroke:#000000;stroke-width:0.8;" x="296.550926" xlink:href="#mdf5c2d9e4a" y="303.709091"/>
      </g>
     </g>
     <g id="text_2">
      <!-- $\mathdefault{0}$ -->
      <g transform="translate(291.068069 327.313496)scale(0.24 -0.24)">
       <defs>
        <path d="M 42 31.84375 
C 42 37.96875 41.90625 48.421875 37.703125 56.453125 
C 34 63.484375 28.09375 66 22.90625 66 
C 18.09375 66 12 63.78125 8.203125 56.5625 
C 4.203125 49.015625 3.796875 39.671875 3.796875 31.84375 
C 3.796875 26.109375 3.90625 17.375 7 9.734375 
C 11.296875 -0.609375 19 -2 22.90625 -2 
C 27.5 -2 34.5 -0.109375 38.59375 9.4375 
C 41.59375 16.375 42 24.5 42 31.84375 
z
M 22.90625 -0.40625 
C 16.5 -0.40625 12.703125 5.125 11.296875 12.75 
C 10.203125 18.6875 10.203125 27.328125 10.203125 32.953125 
C 10.203125 40.6875 10.203125 47.109375 11.5 53.234375 
C 13.40625 61.78125 19 64.390625 22.90625 64.390625 
C 27 64.390625 32.296875 61.671875 34.203125 53.4375 
C 35.5 47.71875 35.59375 40.984375 35.59375 32.953125 
C 35.59375 26.421875 35.59375 18.375 34.40625 12.453125 
C 32.296875 1.5 26.40625 -0.40625 22.90625 -0.40625 
z
" id="CMR17-48"/>
       </defs>
       <use transform="scale(0.996264)" xlink:href="#CMR17-48"/>
      </g>
     </g>
    </g>
   </g>
   <g id="matplotlib.axis_2">
    <g id="ytick_1">
     <g id="line2d_3">
      <defs>
       <path d="M 0 0 
L -3.5 0 
" id="m669d817082" style="stroke:#000000;stroke-width:0.8;"/>
      </defs>
      <g>
       <use style="stroke:#000000;stroke-width:0.8;" x="160.640353" xlink:href="#m669d817082" y="275.908088"/>
      </g>
     </g>
     <g id="text_3">
      <!-- $\mathdefault{−1}$ -->
      <g transform="translate(124.077645 284.210291)scale(0.24 -0.24)">
       <defs>
        <path d="M 26.59375 63.796875 
C 26.59375 65.890625 26.5 66 25.09375 66 
C 21.203125 61.359375 15.296875 59.890625 9.703125 59.6875 
C 9.40625 59.6875 8.90625 59.6875 8.796875 59.5 
C 8.703125 59.296875 8.703125 59.09375 8.703125 57 
C 11.796875 57 17 57.59375 21 59.984375 
L 21 7.296875 
C 21 3.796875 20.796875 2.59375 12.203125 2.59375 
L 9.203125 2.59375 
L 9.203125 0 
C 14 0.09375 19 0.1875 23.796875 0.1875 
C 28.59375 0.1875 33.59375 0.09375 38.40625 0 
L 38.40625 2.59375 
L 35.40625 2.59375 
C 26.796875 2.59375 26.59375 3.6875 26.59375 7.296875 
z
" id="CMR17-49"/>
       </defs>
       <use transform="scale(0.996264)" xlink:href="#CMSY10-0"/>
       <use transform="translate(77.487468 0)scale(0.996264)" xlink:href="#CMR17-49"/>
      </g>
     </g>
    </g>
    <g id="ytick_2">
     <g id="line2d_4">
      <g>
       <use style="stroke:#000000;stroke-width:0.8;" x="160.640353" xlink:href="#m669d817082" y="220.306084"/>
      </g>
     </g>
     <g id="text_4">
      <!-- $\mathdefault{0}$ -->
      <g transform="translate(142.674639 228.608286)scale(0.24 -0.24)">
       <use transform="scale(0.996264)" xlink:href="#CMR17-48"/>
      </g>
     </g>
    </g>
    <g id="ytick_3">
     <g id="line2d_5">
      <g>
       <use style="stroke:#000000;stroke-width:0.8;" x="160.640353" xlink:href="#m669d817082" y="164.704079"/>
      </g>
     </g>
     <g id="text_5">
      <!-- $\mathdefault{1}$ -->
      <g transform="translate(142.674639 173.006281)scale(0.24 -0.24)">
       <use transform="scale(0.996264)" xlink:href="#CMR17-49"/>
      </g>
     </g>
    </g>
    <g id="ytick_4">
     <g id="line2d_6">
      <g>
       <use style="stroke:#000000;stroke-width:0.8;" x="160.640353" xlink:href="#m669d817082" y="109.102074"/>
      </g>
     </g>
     <g id="text_6">
      <!-- $\mathdefault{2}$ -->
      <g transform="translate(142.674639 117.404277)scale(0.24 -0.24)">
       <use transform="scale(0.996264)" xlink:href="#CMR17-50"/>
      </g>
     </g>
    </g>
    <g id="ytick_5">
     <g id="line2d_7">
      <g>
       <use style="stroke:#000000;stroke-width:0.8;" x="160.640353" xlink:href="#m669d817082" y="53.500069"/>
      </g>
     </g>
     <g id="text_7">
      <!-- $\mathdefault{3}$ -->
      <g transform="translate(142.674639 61.802272)scale(0.24 -0.24)">
       <defs>
        <path d="M 22.09375 34 
C 31 34 34.90625 26.140625 34.90625 17.09375 
C 34.90625 5.03125 28.5 0.390625 22.703125 0.390625 
C 17.40625 0.390625 8.796875 3.015625 6.09375 10.796875 
C 6.59375 10.59375 7.09375 10.59375 7.59375 10.59375 
C 10 10.59375 11.796875 12.1875 11.796875 14.796875 
C 11.796875 17.6875 9.59375 19 7.59375 19 
C 5.90625 19 3.296875 18.1875 3.296875 14.484375 
C 3.296875 5.234375 12.296875 -2 22.90625 -2 
C 34 -2 42.5 6.75 42.5 16.984375 
C 42.5 26.84375 34.5 34 25 35.09375 
C 32.59375 36.671875 39.90625 43.375 39.90625 52.390625 
C 39.90625 60.25 32 66 23 66 
C 13.90625 66 5.90625 60.34375 5.90625 52.296875 
C 5.90625 48.796875 8.5 48.1875 9.796875 48.1875 
C 11.90625 48.1875 13.703125 49.484375 13.703125 52.09375 
C 13.703125 54.6875 11.90625 56 9.796875 56 
C 9.40625 56 8.90625 56 8.5 55.796875 
C 11.40625 62.484375 19.296875 63.6875 22.796875 63.6875 
C 26.296875 63.6875 32.90625 61.96875 32.90625 52.296875 
C 32.90625 49.484375 32.5 44.546875 29.09375 40.21875 
C 26.09375 36.390625 22.703125 36.1875 19.40625 35.890625 
C 18.90625 35.890625 16.59375 35.6875 16.203125 35.6875 
C 15.5 35.59375 15.09375 35.5 15.09375 34.796875 
C 15.09375 34.09375 15.203125 34 17.203125 34 
z
" id="CMR17-51"/>
       </defs>
       <use transform="scale(0.996264)" xlink:href="#CMR17-51"/>
      </g>
     </g>
    </g>
   </g>
   <g id="line2d_8">
    <path clip-path="url(#p9c2c6cb328)" d="M 296.550926 220.306084 
L 299.965216 225.914244 
L 322.097182 244.182667 
L 286.786089 225.962043 
L 268.99961 213.386082 
L 295.369833 183.536111 
L 297.853144 168.469555 
L 288.41607 162.166134 
L 251.694492 219.206042 
L 275.412264 215.556314 
L 270.79069 193.416601 
L 250.280566 166.320319 
L 237.446594 145.979361 
L 248.448399 127.783529 
L 228.930623 137.562209 
L 225.471189 144.870052 
L 199.699897 146.316227 
L 188.441356 103.779379 
L 230.411394 168.907574 
L 234.40344 188.769141 
L 230.288705 184.973098 
L 219.307253 191.929216 
L 209.827789 128.60353 
L 225.687314 106.892386 
L 217.796874 98.37446 
L 206.271744 88.404527 
L 233.228867 73.997548 
L 292.020573 71.277086 
L 265.749311 90.188542 
L 236.164395 104.033401 
L 215.875757 45.202433 
L 221.08698 58.568072 
L 222.936844 35.001002 
L 231.824682 78.2369 
L 220.108106 54.31625 
" style="fill:none;stroke:#1f77b4;stroke-linecap:square;stroke-width:1.5;"/>
    <defs>
     <path d="M 0 3 
C 0.795609 3 1.55874 2.683901 2.12132 2.12132 
C 2.683901 1.55874 3 0.795609 3 0 
C 3 -0.795609 2.683901 -1.55874 2.12132 -2.12132 
C 1.55874 -2.683901 0.795609 -3 0 -3 
C -0.795609 -3 -1.55874 -2.683901 -2.12132 -2.12132 
C -2.683901 -1.55874 -3 -0.795609 -3 0 
C -3 0.795609 -2.683901 1.55874 -2.12132 2.12132 
C -1.55874 2.683901 -0.795609 3 0 3 
z
" id="m33f15dafce" style="stroke:#1f77b4;"/>
    </defs>
    <g clip-path="url(#p9c2c6cb328)">
     <use style="fill:#1f77b4;stroke:#1f77b4;" x="296.550926" xlink:href="#m33f15dafce" y="220.306084"/>
     <use style="fill:#1f77b4;stroke:#1f77b4;" x="299.965216" xlink:href="#m33f15dafce" y="225.914244"/>
     <use style="fill:#1f77b4;stroke:#1f77b4;" x="322.097182" xlink:href="#m33f15dafce" y="244.182667"/>
     <use style="fill:#1f77b4;stroke:#1f77b4;" x="286.786089" xlink:href="#m33f15dafce" y="225.962043"/>
     <use style="fill:#1f77b4;stroke:#1f77b4;" x="268.99961" xlink:href="#m33f15dafce" y="213.386082"/>
     <use style="fill:#1f77b4;stroke:#1f77b4;" x="295.369833" xlink:href="#m33f15dafce" y="183.536111"/>
     <use style="fill:#1f77b4;stroke:#1f77b4;" x="297.853144" xlink:href="#m33f15dafce" y="168.469555"/>
     <use style="fill:#1f77b4;stroke:#1f77b4;" x="288.41607" xlink:href="#m33f15dafce" y="162.166134"/>
     <use style="fill:#1f77b4;stroke:#1f77b4;" x="251.694492" xlink:href="#m33f15dafce" y="219.206042"/>
     <use style="fill:#1f77b4;stroke:#1f77b4;" x="275.412264" xlink:href="#m33f15dafce" y="215.556314"/>
     <use style="fill:#1f77b4;stroke:#1f77b4;" x="270.79069" xlink:href="#m33f15dafce" y="193.416601"/>
     <use style="fill:#1f77b4;stroke:#1f77b4;" x="250.280566" xlink:href="#m33f15dafce" y="166.320319"/>
     <use style="fill:#1f77b4;stroke:#1f77b4;" x="237.446594" xlink:href="#m33f15dafce" y="145.979361"/>
     <use style="fill:#1f77b4;stroke:#1f77b4;" x="248.448399" xlink:href="#m33f15dafce" y="127.783529"/>
     <use style="fill:#1f77b4;stroke:#1f77b4;" x="228.930623" xlink:href="#m33f15dafce" y="137.562209"/>
     <use style="fill:#1f77b4;stroke:#1f77b4;" x="225.471189" xlink:href="#m33f15dafce" y="144.870052"/>
     <use style="fill:#1f77b4;stroke:#1f77b4;" x="199.699897" xlink:href="#m33f15dafce" y="146.316227"/>
     <use style="fill:#1f77b4;stroke:#1f77b4;" x="188.441356" xlink:href="#m33f15dafce" y="103.779379"/>
     <use style="fill:#1f77b4;stroke:#1f77b4;" x="230.411394" xlink:href="#m33f15dafce" y="168.907574"/>
     <use style="fill:#1f77b4;stroke:#1f77b4;" x="234.40344" xlink:href="#m33f15dafce" y="188.769141"/>
     <use style="fill:#1f77b4;stroke:#1f77b4;" x="230.288705" xlink:href="#m33f15dafce" y="184.973098"/>
     <use style="fill:#1f77b4;stroke:#1f77b4;" x="219.307253" xlink:href="#m33f15dafce" y="191.929216"/>
     <use style="fill:#1f77b4;stroke:#1f77b4;" x="209.827789" xlink:href="#m33f15dafce" y="128.60353"/>
     <use style="fill:#1f77b4;stroke:#1f77b4;" x="225.687314" xlink:href="#m33f15dafce" y="106.892386"/>
     <use style="fill:#1f77b4;stroke:#1f77b4;" x="217.796874" xlink:href="#m33f15dafce" y="98.37446"/>
     <use style="fill:#1f77b4;stroke:#1f77b4;" x="206.271744" xlink:href="#m33f15dafce" y="88.404527"/>
     <use style="fill:#1f77b4;stroke:#1f77b4;" x="233.228867" xlink:href="#m33f15dafce" y="73.997548"/>
     <use style="fill:#1f77b4;stroke:#1f77b4;" x="292.020573" xlink:href="#m33f15dafce" y="71.277086"/>
     <use style="fill:#1f77b4;stroke:#1f77b4;" x="265.749311" xlink:href="#m33f15dafce" y="90.188542"/>
     <use style="fill:#1f77b4;stroke:#1f77b4;" x="236.164395" xlink:href="#m33f15dafce" y="104.033401"/>
     <use style="fill:#1f77b4;stroke:#1f77b4;" x="215.875757" xlink:href="#m33f15dafce" y="45.202433"/>
     <use style="fill:#1f77b4;stroke:#1f77b4;" x="221.08698" xlink:href="#m33f15dafce" y="58.568072"/>
     <use style="fill:#1f77b4;stroke:#1f77b4;" x="222.936844" xlink:href="#m33f15dafce" y="35.001002"/>
     <use style="fill:#1f77b4;stroke:#1f77b4;" x="231.824682" xlink:href="#m33f15dafce" y="78.2369"/>
     <use style="fill:#1f77b4;stroke:#1f77b4;" x="220.108106" xlink:href="#m33f15dafce" y="54.31625"/>
    </g>
   </g>
   <g id="patch_3">
    <path d="M 160.640353 303.709091 
L 160.640353 7.2 
" style="fill:none;stroke:#000000;stroke-linecap:square;stroke-linejoin:miter;stroke-width:0.8;"/>
   </g>
   <g id="patch_4">
    <path d="M 379.953934 303.709091 
L 379.953934 7.2 
" style="fill:none;stroke:#000000;stroke-linecap:square;stroke-linejoin:miter;stroke-width:0.8;"/>
   </g>
   <g id="patch_5">
    <path d="M 160.640353 303.709091 
L 379.953934 303.709091 
" style="fill:none;stroke:#000000;stroke-linecap:square;stroke-linejoin:miter;stroke-width:0.8;"/>
   </g>
   <g id="patch_6">
    <path d="M 160.640353 7.2 
L 379.953934 7.2 
" style="fill:none;stroke:#000000;stroke-linecap:square;stroke-linejoin:miter;stroke-width:0.8;"/>
   </g>
   <g id="patch_7">
    <path clip-path="url(#p9c2c6cb328)" d="M 296.550926 275.908088 
C 311.29675 275.908088 325.440609 270.04951 335.867481 259.622638 
C 346.294353 249.195766 352.152931 235.051908 352.152931 220.306084 
C 352.152931 205.56026 346.294353 191.416401 335.867481 180.989529 
C 325.440609 170.562657 311.29675 164.704079 296.550926 164.704079 
C 281.805102 164.704079 267.661244 170.562657 257.234372 180.989529 
C 246.807499 191.416401 240.948921 205.56026 240.948921 220.306084 
C 240.948921 235.051908 246.807499 249.195766 257.234372 259.622638 
C 267.661244 270.04951 281.805102 275.908088 296.550926 275.908088 
z
" style="fill:none;stroke:#000000;stroke-linejoin:miter;"/>
   </g>
  </g>
  <g id="axes_2">
   <g id="patch_8">
    <path d="M 47.097144 659.52 
L 493.497144 659.52 
L 493.497144 363.010909 
L 47.097144 363.010909 
z
" style="fill:#ffffff;"/>
   </g>
   <g id="matplotlib.axis_3">
    <g id="xtick_3">
     <g id="line2d_9">
      <g>
       <use style="stroke:#000000;stroke-width:0.8;" x="67.388053" xlink:href="#mdf5c2d9e4a" y="659.52"/>
      </g>
     </g>
     <g id="text_8">
      <!-- $\mathdefault{0}$ -->
      <g transform="translate(61.905195 683.124405)scale(0.24 -0.24)">
       <use transform="scale(0.996264)" xlink:href="#CMR17-48"/>
      </g>
     </g>
    </g>
    <g id="xtick_4">
     <g id="line2d_10">
      <g>
       <use style="stroke:#000000;stroke-width:0.8;" x="186.746341" xlink:href="#mdf5c2d9e4a" y="659.52"/>
      </g>
     </g>
     <g id="text_9">
      <!-- $\mathdefault{20}$ -->
      <g transform="translate(175.780627 683.124405)scale(0.24 -0.24)">
       <use transform="scale(0.996264)" xlink:href="#CMR17-50"/>
       <use transform="translate(45.690477 0)scale(0.996264)" xlink:href="#CMR17-48"/>
      </g>
     </g>
    </g>
    <g id="xtick_5">
     <g id="line2d_11">
      <g>
       <use style="stroke:#000000;stroke-width:0.8;" x="306.10463" xlink:href="#mdf5c2d9e4a" y="659.52"/>
      </g>
     </g>
     <g id="text_10">
      <!-- $\mathdefault{40}$ -->
      <g transform="translate(295.138916 683.124405)scale(0.24 -0.24)">
       <defs>
        <path d="M 33.59375 64.796875 
C 33.59375 66.890625 33.5 67 31.703125 67 
L 2 19.59375 
L 2 17 
L 27.796875 17 
L 27.796875 7.1875 
C 27.796875 3.59375 27.59375 2.59375 20.59375 2.59375 
L 18.703125 2.59375 
L 18.703125 0 
C 21.90625 0.1875 27.296875 0.1875 30.703125 0.1875 
C 34.09375 0.1875 39.5 0.1875 42.703125 0 
L 42.703125 2.59375 
L 40.796875 2.59375 
C 33.796875 2.59375 33.59375 3.59375 33.59375 7.1875 
L 33.59375 17 
L 43.796875 17 
L 43.796875 19.59375 
L 33.59375 19.59375 
z
M 28.09375 58.171875 
L 28.09375 19.59375 
L 4 19.59375 
z
" id="CMR17-52"/>
       </defs>
       <use transform="scale(0.996264)" xlink:href="#CMR17-52"/>
       <use transform="translate(45.690477 0)scale(0.996264)" xlink:href="#CMR17-48"/>
      </g>
     </g>
    </g>
    <g id="xtick_6">
     <g id="line2d_12">
      <g>
       <use style="stroke:#000000;stroke-width:0.8;" x="425.462919" xlink:href="#mdf5c2d9e4a" y="659.52"/>
      </g>
     </g>
     <g id="text_11">
      <!-- $\mathdefault{60}$ -->
      <g transform="translate(414.497204 683.124405)scale(0.24 -0.24)">
       <defs>
        <path d="M 10.59375 34.34375 
C 10.59375 58 21.796875 63.6875 28.296875 63.6875 
C 30.40625 63.6875 35.5 63.265625 37.5 59.09375 
C 35.90625 59.09375 32.90625 59.09375 32.90625 55.59375 
C 32.90625 52.890625 35.09375 52 36.5 52 
C 37.40625 52 40.09375 52.390625 40.09375 55.796875 
C 40.09375 62.296875 35.09375 66 28.203125 66 
C 16.296875 66 3.796875 53.296875 3.796875 31.421875 
C 3.796875 4.015625 15.09375 -2 23.09375 -2 
C 32.796875 -2 42 6.734375 42 20.234375 
C 42 32.828125 33.90625 42 23.703125 42 
C 17.59375 42 13.09375 37.96875 10.59375 30.921875 
z
M 23.09375 0.390625 
C 10.796875 0.390625 10.796875 18.9375 10.796875 22.65625 
C 10.796875 29.90625 14.203125 40.390625 23.5 40.390625 
C 25.203125 40.390625 30.09375 40.390625 33.40625 33.4375 
C 35.203125 29.515625 35.203125 25.375 35.203125 20.34375 
C 35.203125 14.90625 35.203125 10.875 33.09375 6.84375 
C 30.90625 2.703125 27.703125 0.390625 23.09375 0.390625 
z
" id="CMR17-54"/>
       </defs>
       <use transform="scale(0.996264)" xlink:href="#CMR17-54"/>
       <use transform="translate(45.690477 0)scale(0.996264)" xlink:href="#CMR17-48"/>
      </g>
     </g>
    </g>
   </g>
   <g id="matplotlib.axis_4">
    <g id="ytick_6">
     <g id="line2d_13">
      <g>
       <use style="stroke:#000000;stroke-width:0.8;" x="47.097144" xlink:href="#m669d817082" y="646.042314"/>
      </g>
     </g>
     <g id="text_12">
      <!-- $\mathdefault{0}$ -->
      <g transform="translate(29.131429 654.344517)scale(0.24 -0.24)">
       <use transform="scale(0.996264)" xlink:href="#CMR17-48"/>
      </g>
     </g>
    </g>
    <g id="ytick_7">
     <g id="line2d_14">
      <g>
       <use style="stroke:#000000;stroke-width:0.8;" x="47.097144" xlink:href="#m669d817082" y="567.225437"/>
      </g>
     </g>
     <g id="text_13">
      <!-- $\mathdefault{50}$ -->
      <g transform="translate(18.165715 575.52764)scale(0.24 -0.24)">
       <defs>
        <path d="M 11.40625 58.59375 
C 12.40625 58.1875 16.5 56.890625 20.703125 56.890625 
C 30 56.890625 35.09375 61.890625 38 64.6875 
C 38 65.484375 38 66 37.40625 66 
C 37.296875 66 37.09375 66 36.296875 65.59375 
C 32.796875 64.09375 28.703125 63 23.703125 63 
C 20.703125 63 16.203125 63.359375 11.296875 65.484375 
C 10.203125 66 10 66 9.90625 66 
C 9.40625 66 9.296875 65.890625 9.296875 63.90625 
L 9.296875 34.859375 
C 9.296875 33.015625 9.296875 32.5 10.296875 32.5 
C 10.796875 32.5 11 32.703125 11.5 33.421875 
C 14.703125 38.046875 19.09375 40 24.09375 40 
C 27.59375 40 35.09375 37.734375 35.09375 20.203125 
C 35.09375 16.984375 35.09375 11.1875 32.09375 6.59375 
C 29.59375 2.484375 25.703125 0.390625 21.40625 0.390625 
C 14.796875 0.390625 8.09375 4.984375 6.296875 12.6875 
C 6.703125 12.59375 7.5 12.390625 7.90625 12.390625 
C 9.203125 12.390625 11.703125 13.09375 11.703125 16.1875 
C 11.703125 18.890625 9.796875 20 7.90625 20 
C 5.59375 20 4.09375 18.59375 4.09375 15.796875 
C 4.09375 7.09375 11 -2 21.59375 -2 
C 31.90625 -2 41.703125 6.890625 41.703125 19.796875 
C 41.703125 32.09375 33.90625 41.59375 24.203125 41.59375 
C 19.09375 41.59375 14.796875 39.6875 11.40625 36 
z
" id="CMR17-53"/>
       </defs>
       <use transform="scale(0.996264)" xlink:href="#CMR17-53"/>
       <use transform="translate(45.690477 0)scale(0.996264)" xlink:href="#CMR17-48"/>
      </g>
     </g>
    </g>
    <g id="ytick_8">
     <g id="line2d_15">
      <g>
       <use style="stroke:#000000;stroke-width:0.8;" x="47.097144" xlink:href="#m669d817082" y="488.40856"/>
      </g>
     </g>
     <g id="text_14">
      <!-- $\mathdefault{100}$ -->
      <g transform="translate(7.2 496.710763)scale(0.24 -0.24)">
       <use transform="scale(0.996264)" xlink:href="#CMR17-49"/>
       <use transform="translate(45.690477 0)scale(0.996264)" xlink:href="#CMR17-48"/>
       <use transform="translate(91.380954 0)scale(0.996264)" xlink:href="#CMR17-48"/>
      </g>
     </g>
    </g>
    <g id="ytick_9">
     <g id="line2d_16">
      <g>
       <use style="stroke:#000000;stroke-width:0.8;" x="47.097144" xlink:href="#m669d817082" y="409.591683"/>
      </g>
     </g>
     <g id="text_15">
      <!-- $\mathdefault{150}$ -->
      <g transform="translate(7.2 417.893886)scale(0.24 -0.24)">
       <use transform="scale(0.996264)" xlink:href="#CMR17-49"/>
       <use transform="translate(45.690477 0)scale(0.996264)" xlink:href="#CMR17-53"/>
       <use transform="translate(91.380954 0)scale(0.996264)" xlink:href="#CMR17-48"/>
      </g>
     </g>
    </g>
   </g>
   <g id="line2d_17">
    <path clip-path="url(#p6f71f0bbe0)" d="M 67.388053 644.465977 
L 73.355967 642.889639 
L 79.323881 641.313301 
L 85.291796 642.889639 
L 91.25971 642.889639 
L 97.227625 641.313301 
L 103.195539 638.160626 
L 109.163454 631.855276 
L 115.131368 623.973589 
L 121.099283 609.786551 
L 127.067197 606.633876 
L 133.035111 592.446838 
L 139.003026 581.412475 
L 144.97094 560.920087 
L 150.938855 576.683462 
L 156.906769 559.343749 
L 162.874684 535.698686 
L 168.842598 501.019261 
L 174.810513 461.610822 
L 180.778427 423.778721 
L 186.746341 376.488595 
L 192.714256 420.626046 
L 198.68217 441.118434 
L 204.650085 467.916172 
L 210.617999 496.290248 
L 216.585914 529.393336 
L 222.553828 551.462062 
L 228.521742 571.95445 
L 234.489657 578.2598 
L 240.457571 587.717825 
L 246.425486 597.17585 
L 252.3934 598.752188 
L 258.361315 609.786551 
L 264.329229 616.091901 
L 270.297144 619.244576 
L 276.265058 623.973589 
L 282.232972 630.278939 
L 288.200887 633.431614 
L 294.168801 633.431614 
L 300.136716 636.584289 
L 306.10463 639.736964 
L 312.072545 639.736964 
L 318.040459 639.736964 
L 324.008373 639.736964 
L 329.976288 639.736964 
L 335.944202 639.736964 
L 341.912117 641.313301 
L 347.880031 646.042314 
L 353.847946 646.042314 
L 359.81586 646.042314 
L 365.783775 646.042314 
L 371.751689 646.042314 
L 377.719603 646.042314 
L 383.687518 646.042314 
L 389.655432 646.042314 
L 395.623347 646.042314 
L 401.591261 646.042314 
L 407.559176 646.042314 
L 413.52709 646.042314 
L 419.495004 646.042314 
L 425.462919 646.042314 
L 431.430833 646.042314 
L 437.398748 646.042314 
L 443.366662 646.042314 
L 449.334577 646.042314 
L 455.302491 646.042314 
L 461.270406 646.042314 
L 467.23832 646.042314 
L 473.206234 646.042314 
" style="fill:none;stroke:#1f77b4;stroke-linecap:square;stroke-width:1.5;"/>
    <defs>
     <path d="M 0 3 
C 0.795609 3 1.55874 2.683901 2.12132 2.12132 
C 2.683901 1.55874 3 0.795609 3 0 
C 3 -0.795609 2.683901 -1.55874 2.12132 -2.12132 
C 1.55874 -2.683901 0.795609 -3 0 -3 
C -0.795609 -3 -1.55874 -2.683901 -2.12132 -2.12132 
C -2.683901 -1.55874 -3 -0.795609 -3 0 
C -3 0.795609 -2.683901 1.55874 -2.12132 2.12132 
C -1.55874 2.683901 -0.795609 3 0 3 
z
" id="m68d9ef0b92" style="stroke:#1f77b4;"/>
    </defs>
    <g clip-path="url(#p6f71f0bbe0)">
     <use style="fill:#ffffff;stroke:#1f77b4;" x="67.388053" xlink:href="#m68d9ef0b92" y="644.465977"/>
     <use style="fill:#ffffff;stroke:#1f77b4;" x="73.355967" xlink:href="#m68d9ef0b92" y="642.889639"/>
     <use style="fill:#ffffff;stroke:#1f77b4;" x="79.323881" xlink:href="#m68d9ef0b92" y="641.313301"/>
     <use style="fill:#ffffff;stroke:#1f77b4;" x="85.291796" xlink:href="#m68d9ef0b92" y="642.889639"/>
     <use style="fill:#ffffff;stroke:#1f77b4;" x="91.25971" xlink:href="#m68d9ef0b92" y="642.889639"/>
     <use style="fill:#ffffff;stroke:#1f77b4;" x="97.227625" xlink:href="#m68d9ef0b92" y="641.313301"/>
     <use style="fill:#ffffff;stroke:#1f77b4;" x="103.195539" xlink:href="#m68d9ef0b92" y="638.160626"/>
     <use style="fill:#ffffff;stroke:#1f77b4;" x="109.163454" xlink:href="#m68d9ef0b92" y="631.855276"/>
     <use style="fill:#ffffff;stroke:#1f77b4;" x="115.131368" xlink:href="#m68d9ef0b92" y="623.973589"/>
     <use style="fill:#ffffff;stroke:#1f77b4;" x="121.099283" xlink:href="#m68d9ef0b92" y="609.786551"/>
     <use style="fill:#ffffff;stroke:#1f77b4;" x="127.067197" xlink:href="#m68d9ef0b92" y="606.633876"/>
     <use style="fill:#ffffff;stroke:#1f77b4;" x="133.035111" xlink:href="#m68d9ef0b92" y="592.446838"/>
     <use style="fill:#ffffff;stroke:#1f77b4;" x="139.003026" xlink:href="#m68d9ef0b92" y="581.412475"/>
     <use style="fill:#ffffff;stroke:#1f77b4;" x="144.97094" xlink:href="#m68d9ef0b92" y="560.920087"/>
     <use style="fill:#ffffff;stroke:#1f77b4;" x="150.938855" xlink:href="#m68d9ef0b92" y="576.683462"/>
     <use style="fill:#ffffff;stroke:#1f77b4;" x="156.906769" xlink:href="#m68d9ef0b92" y="559.343749"/>
     <use style="fill:#ffffff;stroke:#1f77b4;" x="162.874684" xlink:href="#m68d9ef0b92" y="535.698686"/>
     <use style="fill:#ffffff;stroke:#1f77b4;" x="168.842598" xlink:href="#m68d9ef0b92" y="501.019261"/>
     <use style="fill:#ffffff;stroke:#1f77b4;" x="174.810513" xlink:href="#m68d9ef0b92" y="461.610822"/>
     <use style="fill:#ffffff;stroke:#1f77b4;" x="180.778427" xlink:href="#m68d9ef0b92" y="423.778721"/>
     <use style="fill:#ffffff;stroke:#1f77b4;" x="186.746341" xlink:href="#m68d9ef0b92" y="376.488595"/>
     <use style="fill:#ffffff;stroke:#1f77b4;" x="192.714256" xlink:href="#m68d9ef0b92" y="420.626046"/>
     <use style="fill:#ffffff;stroke:#1f77b4;" x="198.68217" xlink:href="#m68d9ef0b92" y="441.118434"/>
     <use style="fill:#ffffff;stroke:#1f77b4;" x="204.650085" xlink:href="#m68d9ef0b92" y="467.916172"/>
     <use style="fill:#ffffff;stroke:#1f77b4;" x="210.617999" xlink:href="#m68d9ef0b92" y="496.290248"/>
     <use style="fill:#ffffff;stroke:#1f77b4;" x="216.585914" xlink:href="#m68d9ef0b92" y="529.393336"/>
     <use style="fill:#ffffff;stroke:#1f77b4;" x="222.553828" xlink:href="#m68d9ef0b92" y="551.462062"/>
     <use style="fill:#ffffff;stroke:#1f77b4;" x="228.521742" xlink:href="#m68d9ef0b92" y="571.95445"/>
     <use style="fill:#ffffff;stroke:#1f77b4;" x="234.489657" xlink:href="#m68d9ef0b92" y="578.2598"/>
     <use style="fill:#ffffff;stroke:#1f77b4;" x="240.457571" xlink:href="#m68d9ef0b92" y="587.717825"/>
     <use style="fill:#ffffff;stroke:#1f77b4;" x="246.425486" xlink:href="#m68d9ef0b92" y="597.17585"/>
     <use style="fill:#ffffff;stroke:#1f77b4;" x="252.3934" xlink:href="#m68d9ef0b92" y="598.752188"/>
     <use style="fill:#ffffff;stroke:#1f77b4;" x="258.361315" xlink:href="#m68d9ef0b92" y="609.786551"/>
     <use style="fill:#ffffff;stroke:#1f77b4;" x="264.329229" xlink:href="#m68d9ef0b92" y="616.091901"/>
     <use style="fill:#ffffff;stroke:#1f77b4;" x="270.297144" xlink:href="#m68d9ef0b92" y="619.244576"/>
     <use style="fill:#ffffff;stroke:#1f77b4;" x="276.265058" xlink:href="#m68d9ef0b92" y="623.973589"/>
     <use style="fill:#ffffff;stroke:#1f77b4;" x="282.232972" xlink:href="#m68d9ef0b92" y="630.278939"/>
     <use style="fill:#ffffff;stroke:#1f77b4;" x="288.200887" xlink:href="#m68d9ef0b92" y="633.431614"/>
     <use style="fill:#ffffff;stroke:#1f77b4;" x="294.168801" xlink:href="#m68d9ef0b92" y="633.431614"/>
     <use style="fill:#ffffff;stroke:#1f77b4;" x="300.136716" xlink:href="#m68d9ef0b92" y="636.584289"/>
     <use style="fill:#ffffff;stroke:#1f77b4;" x="306.10463" xlink:href="#m68d9ef0b92" y="639.736964"/>
     <use style="fill:#ffffff;stroke:#1f77b4;" x="312.072545" xlink:href="#m68d9ef0b92" y="639.736964"/>
     <use style="fill:#ffffff;stroke:#1f77b4;" x="318.040459" xlink:href="#m68d9ef0b92" y="639.736964"/>
     <use style="fill:#ffffff;stroke:#1f77b4;" x="324.008373" xlink:href="#m68d9ef0b92" y="639.736964"/>
     <use style="fill:#ffffff;stroke:#1f77b4;" x="329.976288" xlink:href="#m68d9ef0b92" y="639.736964"/>
     <use style="fill:#ffffff;stroke:#1f77b4;" x="335.944202" xlink:href="#m68d9ef0b92" y="639.736964"/>
     <use style="fill:#ffffff;stroke:#1f77b4;" x="341.912117" xlink:href="#m68d9ef0b92" y="641.313301"/>
     <use style="fill:#ffffff;stroke:#1f77b4;" x="347.880031" xlink:href="#m68d9ef0b92" y="646.042314"/>
     <use style="fill:#ffffff;stroke:#1f77b4;" x="353.847946" xlink:href="#m68d9ef0b92" y="646.042314"/>
     <use style="fill:#ffffff;stroke:#1f77b4;" x="359.81586" xlink:href="#m68d9ef0b92" y="646.042314"/>
     <use style="fill:#ffffff;stroke:#1f77b4;" x="365.783775" xlink:href="#m68d9ef0b92" y="646.042314"/>
     <use style="fill:#ffffff;stroke:#1f77b4;" x="371.751689" xlink:href="#m68d9ef0b92" y="646.042314"/>
     <use style="fill:#ffffff;stroke:#1f77b4;" x="377.719603" xlink:href="#m68d9ef0b92" y="646.042314"/>
     <use style="fill:#ffffff;stroke:#1f77b4;" x="383.687518" xlink:href="#m68d9ef0b92" y="646.042314"/>
     <use style="fill:#ffffff;stroke:#1f77b4;" x="389.655432" xlink:href="#m68d9ef0b92" y="646.042314"/>
     <use style="fill:#ffffff;stroke:#1f77b4;" x="395.623347" xlink:href="#m68d9ef0b92" y="646.042314"/>
     <use style="fill:#ffffff;stroke:#1f77b4;" x="401.591261" xlink:href="#m68d9ef0b92" y="646.042314"/>
     <use style="fill:#ffffff;stroke:#1f77b4;" x="407.559176" xlink:href="#m68d9ef0b92" y="646.042314"/>
     <use style="fill:#ffffff;stroke:#1f77b4;" x="413.52709" xlink:href="#m68d9ef0b92" y="646.042314"/>
     <use style="fill:#ffffff;stroke:#1f77b4;" x="419.495004" xlink:href="#m68d9ef0b92" y="646.042314"/>
     <use style="fill:#ffffff;stroke:#1f77b4;" x="425.462919" xlink:href="#m68d9ef0b92" y="646.042314"/>
     <use style="fill:#ffffff;stroke:#1f77b4;" x="431.430833" xlink:href="#m68d9ef0b92" y="646.042314"/>
     <use style="fill:#ffffff;stroke:#1f77b4;" x="437.398748" xlink:href="#m68d9ef0b92" y="646.042314"/>
     <use style="fill:#ffffff;stroke:#1f77b4;" x="443.366662" xlink:href="#m68d9ef0b92" y="646.042314"/>
     <use style="fill:#ffffff;stroke:#1f77b4;" x="449.334577" xlink:href="#m68d9ef0b92" y="646.042314"/>
     <use style="fill:#ffffff;stroke:#1f77b4;" x="455.302491" xlink:href="#m68d9ef0b92" y="646.042314"/>
     <use style="fill:#ffffff;stroke:#1f77b4;" x="461.270406" xlink:href="#m68d9ef0b92" y="646.042314"/>
     <use style="fill:#ffffff;stroke:#1f77b4;" x="467.23832" xlink:href="#m68d9ef0b92" y="646.042314"/>
     <use style="fill:#ffffff;stroke:#1f77b4;" x="473.206234" xlink:href="#m68d9ef0b92" y="646.042314"/>
    </g>
   </g>
   <g id="patch_9">
    <path d="M 47.097144 659.52 
L 47.097144 363.010909 
" style="fill:none;stroke:#000000;stroke-linecap:square;stroke-linejoin:miter;stroke-width:0.8;"/>
   </g>
   <g id="patch_10">
    <path d="M 493.497144 659.52 
L 493.497144 363.010909 
" style="fill:none;stroke:#000000;stroke-linecap:square;stroke-linejoin:miter;stroke-width:0.8;"/>
   </g>
   <g id="patch_11">
    <path d="M 47.097144 659.52 
L 493.497144 659.52 
" style="fill:none;stroke:#000000;stroke-linecap:square;stroke-linejoin:miter;stroke-width:0.8;"/>
   </g>
   <g id="patch_12">
    <path d="M 47.097144 363.010909 
L 493.497144 363.010909 
" style="fill:none;stroke:#000000;stroke-linecap:square;stroke-linejoin:miter;stroke-width:0.8;"/>
   </g>
  </g>
 </g>
 <defs>
  <clipPath id="p9c2c6cb328">
   <rect height="296.509091" width="219.31358" x="160.640353" y="7.2"/>
  </clipPath>
  <clipPath id="p6f71f0bbe0">
   <rect height="296.509091" width="446.4" x="47.097144" y="363.010909"/>
  </clipPath>
 </defs>
</svg>
