<?xml version="1.0" encoding="utf-8" standalone="no"?>
<!DOCTYPE svg PUBLIC "-//W3C//DTD SVG 1.1//EN"
  "http://www.w3.org/Graphics/SVG/1.1/DTD/svg11.dtd">
<!-- Created with matplotlib (https://matplotlib.org/) -->
<svg height="694.975163pt" version="1.1" viewBox="0 0 500.697144 694.975163" width="500.697144pt" xmlns="http://www.w3.org/2000/svg" xmlns:xlink="http://www.w3.org/1999/xlink">
 <metadata>
  <rdf:RDF xmlns:cc="http://creativecommons.org/ns#" xmlns:dc="http://purl.org/dc/elements/1.1/" xmlns:rdf="http://www.w3.org/1999/02/22-rdf-syntax-ns#">
   <cc:Work>
    <dc:type rdf:resource="http://purl.org/dc/dcmitype/StillImage"/>
    <dc:date>2021-07-01T15:17:59.224503</dc:date>
    <dc:format>image/svg+xml</dc:format>
    <dc:creator>
     <cc:Agent>
      <dc:title>Matplotlib v3.3.4, https://matplotlib.org/</dc:title>
     </cc:Agent>
    </dc:creator>
   </cc:Work>
  </rdf:RDF>
 </metadata>
 <defs>
  <style type="text/css">*{stroke-linecap:butt;stroke-linejoin:round;}</style>
 </defs>
 <g id="figure_1">
  <g id="patch_1">
   <path d="M 0 694.975163 
L 500.697144 694.975163 
L 500.697144 0 
L 0 0 
z
" style="fill:none;"/>
  </g>
  <g id="axes_1">
   <g id="patch_2">
    <path d="M 108.583762 303.709091 
L 432.010525 303.709091 
L 432.010525 7.2 
L 108.583762 7.2 
z
" style="fill:#ffffff;"/>
   </g>
   <g id="matplotlib.axis_1">
    <g id="xtick_1">
     <g id="line2d_1">
      <defs>
       <path d="M 0 0 
L 0 3.5 
" id="ma2e2b09881" style="stroke:#000000;stroke-width:0.8;"/>
      </defs>
      <g>
       <use style="stroke:#000000;stroke-width:0.8;" x="178.207627" xlink:href="#ma2e2b09881" y="303.709091"/>
      </g>
     </g>
     <g id="text_1">
      <!-- $\mathdefault{0}$ -->
      <g transform="translate(172.72477 327.313496)scale(0.24 -0.24)">
       <defs>
        <path d="M 42 31.84375 
C 42 37.96875 41.90625 48.421875 37.703125 56.453125 
C 34 63.484375 28.09375 66 22.90625 66 
C 18.09375 66 12 63.78125 8.203125 56.5625 
C 4.203125 49.015625 3.796875 39.671875 3.796875 31.84375 
C 3.796875 26.109375 3.90625 17.375 7 9.734375 
C 11.296875 -0.609375 19 -2 22.90625 -2 
C 27.5 -2 34.5 -0.109375 38.59375 9.4375 
C 41.59375 16.375 42 24.5 42 31.84375 
z
M 22.90625 -0.40625 
C 16.5 -0.40625 12.703125 5.125 11.296875 12.75 
C 10.203125 18.6875 10.203125 27.328125 10.203125 32.953125 
C 10.203125 40.6875 10.203125 47.109375 11.5 53.234375 
C 13.40625 61.78125 19 64.390625 22.90625 64.390625 
C 27 64.390625 32.296875 61.671875 34.203125 53.4375 
C 35.5 47.71875 35.59375 40.984375 35.59375 32.953125 
C 35.59375 26.421875 35.59375 18.375 34.40625 12.453125 
C 32.296875 1.5 26.40625 -0.40625 22.90625 -0.40625 
z
" id="CMR17-48"/>
       </defs>
       <use transform="scale(0.996264)" xlink:href="#CMR17-48"/>
      </g>
     </g>
    </g>
    <g id="xtick_2">
     <g id="line2d_2">
      <g>
       <use style="stroke:#000000;stroke-width:0.8;" x="271.039447" xlink:href="#ma2e2b09881" y="303.709091"/>
      </g>
     </g>
     <g id="text_2">
      <!-- $\mathdefault{2}$ -->
      <g transform="translate(265.55659 327.313496)scale(0.24 -0.24)">
       <defs>
        <path d="M 41.703125 15.46875 
L 39.90625 15.46875 
C 38.90625 8.390625 38.09375 7.1875 37.703125 6.59375 
C 37.203125 5.796875 30 5.796875 28.59375 5.796875 
L 9.40625 5.796875 
C 13 9.6875 20 16.765625 28.5 24.9375 
C 34.59375 30.71875 41.703125 37.5 41.703125 47.390625 
C 41.703125 59.1875 32.296875 66 21.796875 66 
C 10.796875 66 4.09375 56.296875 4.09375 47.296875 
C 4.09375 43.390625 7 42.890625 8.203125 42.890625 
C 9.203125 42.890625 12.203125 43.484375 12.203125 46.984375 
C 12.203125 50.09375 9.59375 51 8.203125 51 
C 7.59375 51 7 50.890625 6.59375 50.6875 
C 8.5 59.1875 14.296875 63.390625 20.40625 63.390625 
C 29.09375 63.390625 34.796875 56.5 34.796875 47.390625 
C 34.796875 38.703125 29.703125 31.21875 24 24.734375 
L 4.09375 2.296875 
L 4.09375 0 
L 39.296875 0 
z
" id="CMR17-50"/>
       </defs>
       <use transform="scale(0.996264)" xlink:href="#CMR17-50"/>
      </g>
     </g>
    </g>
    <g id="xtick_3">
     <g id="line2d_3">
      <g>
       <use style="stroke:#000000;stroke-width:0.8;" x="363.871267" xlink:href="#ma2e2b09881" y="303.709091"/>
      </g>
     </g>
     <g id="text_3">
      <!-- $\mathdefault{4}$ -->
      <g transform="translate(358.388409 327.313496)scale(0.24 -0.24)">
       <defs>
        <path d="M 33.59375 64.796875 
C 33.59375 66.890625 33.5 67 31.703125 67 
L 2 19.59375 
L 2 17 
L 27.796875 17 
L 27.796875 7.1875 
C 27.796875 3.59375 27.59375 2.59375 20.59375 2.59375 
L 18.703125 2.59375 
L 18.703125 0 
C 21.90625 0.1875 27.296875 0.1875 30.703125 0.1875 
C 34.09375 0.1875 39.5 0.1875 42.703125 0 
L 42.703125 2.59375 
L 40.796875 2.59375 
C 33.796875 2.59375 33.59375 3.59375 33.59375 7.1875 
L 33.59375 17 
L 43.796875 17 
L 43.796875 19.59375 
L 33.59375 19.59375 
z
M 28.09375 58.171875 
L 28.09375 19.59375 
L 4 19.59375 
z
" id="CMR17-52"/>
       </defs>
       <use transform="scale(0.996264)" xlink:href="#CMR17-52"/>
      </g>
     </g>
    </g>
   </g>
   <g id="matplotlib.axis_2">
    <g id="ytick_1">
     <g id="line2d_4">
      <defs>
       <path d="M 0 0 
L -3.5 0 
" id="ma4ce872a8f" style="stroke:#000000;stroke-width:0.8;"/>
      </defs>
      <g>
       <use style="stroke:#000000;stroke-width:0.8;" x="108.583762" xlink:href="#ma4ce872a8f" y="234.085226"/>
      </g>
     </g>
     <g id="text_4">
      <!-- $\mathdefault{0}$ -->
      <g transform="translate(90.618047 242.387429)scale(0.24 -0.24)">
       <use transform="scale(0.996264)" xlink:href="#CMR17-48"/>
      </g>
     </g>
    </g>
    <g id="ytick_2">
     <g id="line2d_5">
      <g>
       <use style="stroke:#000000;stroke-width:0.8;" x="108.583762" xlink:href="#ma4ce872a8f" y="141.253406"/>
      </g>
     </g>
     <g id="text_5">
      <!-- $\mathdefault{2}$ -->
      <g transform="translate(90.618047 149.555609)scale(0.24 -0.24)">
       <use transform="scale(0.996264)" xlink:href="#CMR17-50"/>
      </g>
     </g>
    </g>
    <g id="ytick_3">
     <g id="line2d_6">
      <g>
       <use style="stroke:#000000;stroke-width:0.8;" x="108.583762" xlink:href="#ma4ce872a8f" y="48.421586"/>
      </g>
     </g>
     <g id="text_6">
      <!-- $\mathdefault{4}$ -->
      <g transform="translate(90.618047 56.723789)scale(0.24 -0.24)">
       <use transform="scale(0.996264)" xlink:href="#CMR17-52"/>
      </g>
     </g>
    </g>
   </g>
   <g id="line2d_7">
    <path clip-path="url(#p213667e704)" d="M 178.207627 234.085226 
L 165.36966 265.511924 
L 178.52391 258.045761 
L 206.189404 257.006351 
L 236.790142 205.100508 
L 217.353763 216.626827 
L 201.75591 227.499637 
L 206.693004 203.725353 
L 204.205399 196.53356 
L 195.915452 242.868709 
L 215.037993 233.422094 
L 226.545763 225.200785 
L 227.871836 231.700602 
L 219.762198 239.846193 
L 215.187596 251.096871 
L 179.589739 194.912528 
L 167.778153 212.335978 
L 151.527854 241.633229 
L 178.624261 226.157981 
L 190.77861 233.532871 
L 179.739773 242.307062 
L 203.318741 230.379648 
L 238.254606 233.475011 
L 231.76964 209.195941 
L 258.493799 249.308803 
L 247.215862 231.891315 
L 240.462669 185.739233 
L 239.855106 169.915975 
L 230.218085 178.036731 
L 239.105911 190.982599 
L 259.616154 168.830514 
L 308.794699 196.146414 
L 275.514754 230.795437 
L 266.334396 228.058746 
L 301.796728 227.621476 
L 307.926057 210.778931 
L 291.792501 180.646899 
L 310.00431 184.246721 
L 327.346104 178.278581 
L 311.546486 194.305143 
L 297.066903 190.742046 
L 313.639208 220.045548 
L 302.091422 215.323978 
L 345.812026 205.434981 
L 329.047151 202.388584 
L 329.413238 187.598258 
L 325.935234 135.147384 
L 336.221375 169.825939 
L 340.109489 190.829523 
L 337.497498 184.011578 
L 359.373111 141.129654 
L 379.404257 115.218201 
L 377.329035 106.519931 
L 408.80257 86.921561 
L 392.168926 89.495196 
L 383.72557 69.686283 
L 382.445544 46.63605 
L 394.309435 53.65703 
L 373.455422 68.679837 
L 351.495781 98.592975 
L 310.359585 91.849103 
L 322.370232 80.930068 
L 266.309965 64.100895 
L 283.304031 45.472612 
L 285.46992 63.301799 
L 316.229497 72.953475 
L 321.442672 30.407955 
L 328.725442 51.792518 
L 317.688899 55.437829 
" style="fill:none;stroke:#1f77b4;stroke-linecap:square;stroke-width:1.5;"/>
    <defs>
     <path d="M 0 3 
C 0.795609 3 1.55874 2.683901 2.12132 2.12132 
C 2.683901 1.55874 3 0.795609 3 0 
C 3 -0.795609 2.683901 -1.55874 2.12132 -2.12132 
C 1.55874 -2.683901 0.795609 -3 0 -3 
C -0.795609 -3 -1.55874 -2.683901 -2.12132 -2.12132 
C -2.683901 -1.55874 -3 -0.795609 -3 0 
C -3 0.795609 -2.683901 1.55874 -2.12132 2.12132 
C -1.55874 2.683901 -0.795609 3 0 3 
z
" id="m57a8b1487b" style="stroke:#1f77b4;"/>
    </defs>
    <g clip-path="url(#p213667e704)">
     <use style="fill:#1f77b4;stroke:#1f77b4;" x="178.207627" xlink:href="#m57a8b1487b" y="234.085226"/>
     <use style="fill:#1f77b4;stroke:#1f77b4;" x="165.36966" xlink:href="#m57a8b1487b" y="265.511924"/>
     <use style="fill:#1f77b4;stroke:#1f77b4;" x="178.52391" xlink:href="#m57a8b1487b" y="258.045761"/>
     <use style="fill:#1f77b4;stroke:#1f77b4;" x="206.189404" xlink:href="#m57a8b1487b" y="257.006351"/>
     <use style="fill:#1f77b4;stroke:#1f77b4;" x="236.790142" xlink:href="#m57a8b1487b" y="205.100508"/>
     <use style="fill:#1f77b4;stroke:#1f77b4;" x="217.353763" xlink:href="#m57a8b1487b" y="216.626827"/>
     <use style="fill:#1f77b4;stroke:#1f77b4;" x="201.75591" xlink:href="#m57a8b1487b" y="227.499637"/>
     <use style="fill:#1f77b4;stroke:#1f77b4;" x="206.693004" xlink:href="#m57a8b1487b" y="203.725353"/>
     <use style="fill:#1f77b4;stroke:#1f77b4;" x="204.205399" xlink:href="#m57a8b1487b" y="196.53356"/>
     <use style="fill:#1f77b4;stroke:#1f77b4;" x="195.915452" xlink:href="#m57a8b1487b" y="242.868709"/>
     <use style="fill:#1f77b4;stroke:#1f77b4;" x="215.037993" xlink:href="#m57a8b1487b" y="233.422094"/>
     <use style="fill:#1f77b4;stroke:#1f77b4;" x="226.545763" xlink:href="#m57a8b1487b" y="225.200785"/>
     <use style="fill:#1f77b4;stroke:#1f77b4;" x="227.871836" xlink:href="#m57a8b1487b" y="231.700602"/>
     <use style="fill:#1f77b4;stroke:#1f77b4;" x="219.762198" xlink:href="#m57a8b1487b" y="239.846193"/>
     <use style="fill:#1f77b4;stroke:#1f77b4;" x="215.187596" xlink:href="#m57a8b1487b" y="251.096871"/>
     <use style="fill:#1f77b4;stroke:#1f77b4;" x="179.589739" xlink:href="#m57a8b1487b" y="194.912528"/>
     <use style="fill:#1f77b4;stroke:#1f77b4;" x="167.778153" xlink:href="#m57a8b1487b" y="212.335978"/>
     <use style="fill:#1f77b4;stroke:#1f77b4;" x="151.527854" xlink:href="#m57a8b1487b" y="241.633229"/>
     <use style="fill:#1f77b4;stroke:#1f77b4;" x="178.624261" xlink:href="#m57a8b1487b" y="226.157981"/>
     <use style="fill:#1f77b4;stroke:#1f77b4;" x="190.77861" xlink:href="#m57a8b1487b" y="233.532871"/>
     <use style="fill:#1f77b4;stroke:#1f77b4;" x="179.739773" xlink:href="#m57a8b1487b" y="242.307062"/>
     <use style="fill:#1f77b4;stroke:#1f77b4;" x="203.318741" xlink:href="#m57a8b1487b" y="230.379648"/>
     <use style="fill:#1f77b4;stroke:#1f77b4;" x="238.254606" xlink:href="#m57a8b1487b" y="233.475011"/>
     <use style="fill:#1f77b4;stroke:#1f77b4;" x="231.76964" xlink:href="#m57a8b1487b" y="209.195941"/>
     <use style="fill:#1f77b4;stroke:#1f77b4;" x="258.493799" xlink:href="#m57a8b1487b" y="249.308803"/>
     <use style="fill:#1f77b4;stroke:#1f77b4;" x="247.215862" xlink:href="#m57a8b1487b" y="231.891315"/>
     <use style="fill:#1f77b4;stroke:#1f77b4;" x="240.462669" xlink:href="#m57a8b1487b" y="185.739233"/>
     <use style="fill:#1f77b4;stroke:#1f77b4;" x="239.855106" xlink:href="#m57a8b1487b" y="169.915975"/>
     <use style="fill:#1f77b4;stroke:#1f77b4;" x="230.218085" xlink:href="#m57a8b1487b" y="178.036731"/>
     <use style="fill:#1f77b4;stroke:#1f77b4;" x="239.105911" xlink:href="#m57a8b1487b" y="190.982599"/>
     <use style="fill:#1f77b4;stroke:#1f77b4;" x="259.616154" xlink:href="#m57a8b1487b" y="168.830514"/>
     <use style="fill:#1f77b4;stroke:#1f77b4;" x="308.794699" xlink:href="#m57a8b1487b" y="196.146414"/>
     <use style="fill:#1f77b4;stroke:#1f77b4;" x="275.514754" xlink:href="#m57a8b1487b" y="230.795437"/>
     <use style="fill:#1f77b4;stroke:#1f77b4;" x="266.334396" xlink:href="#m57a8b1487b" y="228.058746"/>
     <use style="fill:#1f77b4;stroke:#1f77b4;" x="301.796728" xlink:href="#m57a8b1487b" y="227.621476"/>
     <use style="fill:#1f77b4;stroke:#1f77b4;" x="307.926057" xlink:href="#m57a8b1487b" y="210.778931"/>
     <use style="fill:#1f77b4;stroke:#1f77b4;" x="291.792501" xlink:href="#m57a8b1487b" y="180.646899"/>
     <use style="fill:#1f77b4;stroke:#1f77b4;" x="310.00431" xlink:href="#m57a8b1487b" y="184.246721"/>
     <use style="fill:#1f77b4;stroke:#1f77b4;" x="327.346104" xlink:href="#m57a8b1487b" y="178.278581"/>
     <use style="fill:#1f77b4;stroke:#1f77b4;" x="311.546486" xlink:href="#m57a8b1487b" y="194.305143"/>
     <use style="fill:#1f77b4;stroke:#1f77b4;" x="297.066903" xlink:href="#m57a8b1487b" y="190.742046"/>
     <use style="fill:#1f77b4;stroke:#1f77b4;" x="313.639208" xlink:href="#m57a8b1487b" y="220.045548"/>
     <use style="fill:#1f77b4;stroke:#1f77b4;" x="302.091422" xlink:href="#m57a8b1487b" y="215.323978"/>
     <use style="fill:#1f77b4;stroke:#1f77b4;" x="345.812026" xlink:href="#m57a8b1487b" y="205.434981"/>
     <use style="fill:#1f77b4;stroke:#1f77b4;" x="329.047151" xlink:href="#m57a8b1487b" y="202.388584"/>
     <use style="fill:#1f77b4;stroke:#1f77b4;" x="329.413238" xlink:href="#m57a8b1487b" y="187.598258"/>
     <use style="fill:#1f77b4;stroke:#1f77b4;" x="325.935234" xlink:href="#m57a8b1487b" y="135.147384"/>
     <use style="fill:#1f77b4;stroke:#1f77b4;" x="336.221375" xlink:href="#m57a8b1487b" y="169.825939"/>
     <use style="fill:#1f77b4;stroke:#1f77b4;" x="340.109489" xlink:href="#m57a8b1487b" y="190.829523"/>
     <use style="fill:#1f77b4;stroke:#1f77b4;" x="337.497498" xlink:href="#m57a8b1487b" y="184.011578"/>
     <use style="fill:#1f77b4;stroke:#1f77b4;" x="359.373111" xlink:href="#m57a8b1487b" y="141.129654"/>
     <use style="fill:#1f77b4;stroke:#1f77b4;" x="379.404257" xlink:href="#m57a8b1487b" y="115.218201"/>
     <use style="fill:#1f77b4;stroke:#1f77b4;" x="377.329035" xlink:href="#m57a8b1487b" y="106.519931"/>
     <use style="fill:#1f77b4;stroke:#1f77b4;" x="408.80257" xlink:href="#m57a8b1487b" y="86.921561"/>
     <use style="fill:#1f77b4;stroke:#1f77b4;" x="392.168926" xlink:href="#m57a8b1487b" y="89.495196"/>
     <use style="fill:#1f77b4;stroke:#1f77b4;" x="383.72557" xlink:href="#m57a8b1487b" y="69.686283"/>
     <use style="fill:#1f77b4;stroke:#1f77b4;" x="382.445544" xlink:href="#m57a8b1487b" y="46.63605"/>
     <use style="fill:#1f77b4;stroke:#1f77b4;" x="394.309435" xlink:href="#m57a8b1487b" y="53.65703"/>
     <use style="fill:#1f77b4;stroke:#1f77b4;" x="373.455422" xlink:href="#m57a8b1487b" y="68.679837"/>
     <use style="fill:#1f77b4;stroke:#1f77b4;" x="351.495781" xlink:href="#m57a8b1487b" y="98.592975"/>
     <use style="fill:#1f77b4;stroke:#1f77b4;" x="310.359585" xlink:href="#m57a8b1487b" y="91.849103"/>
     <use style="fill:#1f77b4;stroke:#1f77b4;" x="322.370232" xlink:href="#m57a8b1487b" y="80.930068"/>
     <use style="fill:#1f77b4;stroke:#1f77b4;" x="266.309965" xlink:href="#m57a8b1487b" y="64.100895"/>
     <use style="fill:#1f77b4;stroke:#1f77b4;" x="283.304031" xlink:href="#m57a8b1487b" y="45.472612"/>
     <use style="fill:#1f77b4;stroke:#1f77b4;" x="285.46992" xlink:href="#m57a8b1487b" y="63.301799"/>
     <use style="fill:#1f77b4;stroke:#1f77b4;" x="316.229497" xlink:href="#m57a8b1487b" y="72.953475"/>
     <use style="fill:#1f77b4;stroke:#1f77b4;" x="321.442672" xlink:href="#m57a8b1487b" y="30.407955"/>
     <use style="fill:#1f77b4;stroke:#1f77b4;" x="328.725442" xlink:href="#m57a8b1487b" y="51.792518"/>
     <use style="fill:#1f77b4;stroke:#1f77b4;" x="317.688899" xlink:href="#m57a8b1487b" y="55.437829"/>
    </g>
   </g>
   <g id="patch_3">
    <path d="M 108.583762 303.709091 
L 108.583762 7.2 
" style="fill:none;stroke:#000000;stroke-linecap:square;stroke-linejoin:miter;stroke-width:0.8;"/>
   </g>
   <g id="patch_4">
    <path d="M 432.010525 303.709091 
L 432.010525 7.2 
" style="fill:none;stroke:#000000;stroke-linecap:square;stroke-linejoin:miter;stroke-width:0.8;"/>
   </g>
   <g id="patch_5">
    <path d="M 108.583762 303.709091 
L 432.010525 303.709091 
" style="fill:none;stroke:#000000;stroke-linecap:square;stroke-linejoin:miter;stroke-width:0.8;"/>
   </g>
   <g id="patch_6">
    <path d="M 108.583762 7.2 
L 432.010525 7.2 
" style="fill:none;stroke:#000000;stroke-linecap:square;stroke-linejoin:miter;stroke-width:0.8;"/>
   </g>
   <g id="patch_7">
    <path clip-path="url(#p213667e704)" d="M 178.207627 280.501136 
C 190.51727 280.501136 202.324399 275.610463 211.028631 266.906231 
C 219.732864 258.201998 224.623537 246.394869 224.623537 234.085226 
C 224.623537 221.775583 219.732864 209.968453 211.028631 201.264221 
C 202.324399 192.559989 190.51727 187.669316 178.207627 187.669316 
C 165.897984 187.669316 154.090854 192.559989 145.386622 201.264221 
C 136.68239 209.968453 131.791717 221.775583 131.791717 234.085226 
C 131.791717 246.394869 136.68239 258.201998 145.386622 266.906231 
C 154.090854 275.610463 165.897984 280.501136 178.207627 280.501136 
z
" style="fill:none;stroke:#000000;stroke-linejoin:miter;"/>
   </g>
  </g>
  <g id="axes_2">
   <g id="patch_8">
    <path d="M 47.097144 659.52 
L 493.497144 659.52 
L 493.497144 363.010909 
L 47.097144 363.010909 
z
" style="fill:#ffffff;"/>
   </g>
   <g id="matplotlib.axis_3">
    <g id="xtick_4">
     <g id="line2d_8">
      <g>
       <use style="stroke:#000000;stroke-width:0.8;" x="67.388053" xlink:href="#ma2e2b09881" y="659.52"/>
      </g>
     </g>
     <g id="text_7">
      <!-- $\mathdefault{0}$ -->
      <g transform="translate(61.905195 683.124405)scale(0.24 -0.24)">
       <use transform="scale(0.996264)" xlink:href="#CMR17-48"/>
      </g>
     </g>
    </g>
    <g id="xtick_5">
     <g id="line2d_9">
      <g>
       <use style="stroke:#000000;stroke-width:0.8;" x="186.746341" xlink:href="#ma2e2b09881" y="659.52"/>
      </g>
     </g>
     <g id="text_8">
      <!-- $\mathdefault{20}$ -->
      <g transform="translate(175.780627 683.124405)scale(0.24 -0.24)">
       <use transform="scale(0.996264)" xlink:href="#CMR17-50"/>
       <use transform="translate(45.690477 0)scale(0.996264)" xlink:href="#CMR17-48"/>
      </g>
     </g>
    </g>
    <g id="xtick_6">
     <g id="line2d_10">
      <g>
       <use style="stroke:#000000;stroke-width:0.8;" x="306.10463" xlink:href="#ma2e2b09881" y="659.52"/>
      </g>
     </g>
     <g id="text_9">
      <!-- $\mathdefault{40}$ -->
      <g transform="translate(295.138916 683.124405)scale(0.24 -0.24)">
       <use transform="scale(0.996264)" xlink:href="#CMR17-52"/>
       <use transform="translate(45.690477 0)scale(0.996264)" xlink:href="#CMR17-48"/>
      </g>
     </g>
    </g>
    <g id="xtick_7">
     <g id="line2d_11">
      <g>
       <use style="stroke:#000000;stroke-width:0.8;" x="425.462919" xlink:href="#ma2e2b09881" y="659.52"/>
      </g>
     </g>
     <g id="text_10">
      <!-- $\mathdefault{60}$ -->
      <g transform="translate(414.497204 683.124405)scale(0.24 -0.24)">
       <defs>
        <path d="M 10.59375 34.34375 
C 10.59375 58 21.796875 63.6875 28.296875 63.6875 
C 30.40625 63.6875 35.5 63.265625 37.5 59.09375 
C 35.90625 59.09375 32.90625 59.09375 32.90625 55.59375 
C 32.90625 52.890625 35.09375 52 36.5 52 
C 37.40625 52 40.09375 52.390625 40.09375 55.796875 
C 40.09375 62.296875 35.09375 66 28.203125 66 
C 16.296875 66 3.796875 53.296875 3.796875 31.421875 
C 3.796875 4.015625 15.09375 -2 23.09375 -2 
C 32.796875 -2 42 6.734375 42 20.234375 
C 42 32.828125 33.90625 42 23.703125 42 
C 17.59375 42 13.09375 37.96875 10.59375 30.921875 
z
M 23.09375 0.390625 
C 10.796875 0.390625 10.796875 18.9375 10.796875 22.65625 
C 10.796875 29.90625 14.203125 40.390625 23.5 40.390625 
C 25.203125 40.390625 30.09375 40.390625 33.40625 33.4375 
C 35.203125 29.515625 35.203125 25.375 35.203125 20.34375 
C 35.203125 14.90625 35.203125 10.875 33.09375 6.84375 
C 30.90625 2.703125 27.703125 0.390625 23.09375 0.390625 
z
" id="CMR17-54"/>
       </defs>
       <use transform="scale(0.996264)" xlink:href="#CMR17-54"/>
       <use transform="translate(45.690477 0)scale(0.996264)" xlink:href="#CMR17-48"/>
      </g>
     </g>
    </g>
   </g>
   <g id="matplotlib.axis_4">
    <g id="ytick_4">
     <g id="line2d_12">
      <g>
       <use style="stroke:#000000;stroke-width:0.8;" x="47.097144" xlink:href="#ma4ce872a8f" y="646.042314"/>
      </g>
     </g>
     <g id="text_11">
      <!-- $\mathdefault{0}$ -->
      <g transform="translate(29.131429 654.344517)scale(0.24 -0.24)">
       <use transform="scale(0.996264)" xlink:href="#CMR17-48"/>
      </g>
     </g>
    </g>
    <g id="ytick_5">
     <g id="line2d_13">
      <g>
       <use style="stroke:#000000;stroke-width:0.8;" x="47.097144" xlink:href="#ma4ce872a8f" y="568.136615"/>
      </g>
     </g>
     <g id="text_12">
      <!-- $\mathdefault{50}$ -->
      <g transform="translate(18.165715 576.438818)scale(0.24 -0.24)">
       <defs>
        <path d="M 11.40625 58.59375 
C 12.40625 58.1875 16.5 56.890625 20.703125 56.890625 
C 30 56.890625 35.09375 61.890625 38 64.6875 
C 38 65.484375 38 66 37.40625 66 
C 37.296875 66 37.09375 66 36.296875 65.59375 
C 32.796875 64.09375 28.703125 63 23.703125 63 
C 20.703125 63 16.203125 63.359375 11.296875 65.484375 
C 10.203125 66 10 66 9.90625 66 
C 9.40625 66 9.296875 65.890625 9.296875 63.90625 
L 9.296875 34.859375 
C 9.296875 33.015625 9.296875 32.5 10.296875 32.5 
C 10.796875 32.5 11 32.703125 11.5 33.421875 
C 14.703125 38.046875 19.09375 40 24.09375 40 
C 27.59375 40 35.09375 37.734375 35.09375 20.203125 
C 35.09375 16.984375 35.09375 11.1875 32.09375 6.59375 
C 29.59375 2.484375 25.703125 0.390625 21.40625 0.390625 
C 14.796875 0.390625 8.09375 4.984375 6.296875 12.6875 
C 6.703125 12.59375 7.5 12.390625 7.90625 12.390625 
C 9.203125 12.390625 11.703125 13.09375 11.703125 16.1875 
C 11.703125 18.890625 9.796875 20 7.90625 20 
C 5.59375 20 4.09375 18.59375 4.09375 15.796875 
C 4.09375 7.09375 11 -2 21.59375 -2 
C 31.90625 -2 41.703125 6.890625 41.703125 19.796875 
C 41.703125 32.09375 33.90625 41.59375 24.203125 41.59375 
C 19.09375 41.59375 14.796875 39.6875 11.40625 36 
z
" id="CMR17-53"/>
       </defs>
       <use transform="scale(0.996264)" xlink:href="#CMR17-53"/>
       <use transform="translate(45.690477 0)scale(0.996264)" xlink:href="#CMR17-48"/>
      </g>
     </g>
    </g>
    <g id="ytick_6">
     <g id="line2d_14">
      <g>
       <use style="stroke:#000000;stroke-width:0.8;" x="47.097144" xlink:href="#ma4ce872a8f" y="490.230916"/>
      </g>
     </g>
     <g id="text_13">
      <!-- $\mathdefault{100}$ -->
      <g transform="translate(7.2 498.533118)scale(0.24 -0.24)">
       <defs>
        <path d="M 26.59375 63.796875 
C 26.59375 65.890625 26.5 66 25.09375 66 
C 21.203125 61.359375 15.296875 59.890625 9.703125 59.6875 
C 9.40625 59.6875 8.90625 59.6875 8.796875 59.5 
C 8.703125 59.296875 8.703125 59.09375 8.703125 57 
C 11.796875 57 17 57.59375 21 59.984375 
L 21 7.296875 
C 21 3.796875 20.796875 2.59375 12.203125 2.59375 
L 9.203125 2.59375 
L 9.203125 0 
C 14 0.09375 19 0.1875 23.796875 0.1875 
C 28.59375 0.1875 33.59375 0.09375 38.40625 0 
L 38.40625 2.59375 
L 35.40625 2.59375 
C 26.796875 2.59375 26.59375 3.6875 26.59375 7.296875 
z
" id="CMR17-49"/>
       </defs>
       <use transform="scale(0.996264)" xlink:href="#CMR17-49"/>
       <use transform="translate(45.690477 0)scale(0.996264)" xlink:href="#CMR17-48"/>
       <use transform="translate(91.380954 0)scale(0.996264)" xlink:href="#CMR17-48"/>
      </g>
     </g>
    </g>
    <g id="ytick_7">
     <g id="line2d_15">
      <g>
       <use style="stroke:#000000;stroke-width:0.8;" x="47.097144" xlink:href="#ma4ce872a8f" y="412.325217"/>
      </g>
     </g>
     <g id="text_14">
      <!-- $\mathdefault{150}$ -->
      <g transform="translate(7.2 420.627419)scale(0.24 -0.24)">
       <use transform="scale(0.996264)" xlink:href="#CMR17-49"/>
       <use transform="translate(45.690477 0)scale(0.996264)" xlink:href="#CMR17-53"/>
       <use transform="translate(91.380954 0)scale(0.996264)" xlink:href="#CMR17-48"/>
      </g>
     </g>
    </g>
   </g>
   <g id="line2d_16">
    <path clip-path="url(#p9e30a3ffcd)" d="M 67.388053 644.4842 
L 73.355967 644.4842 
L 79.323881 644.4842 
L 85.291796 642.926086 
L 91.25971 644.4842 
L 97.227625 644.4842 
L 103.195539 642.926086 
L 109.163454 642.926086 
L 115.131368 639.809858 
L 121.099283 633.577402 
L 127.067197 622.670604 
L 133.035111 624.228718 
L 139.003026 627.344946 
L 144.97094 622.670604 
L 150.938855 611.763806 
L 156.906769 596.182667 
L 162.874684 579.043413 
L 168.842598 557.229817 
L 174.810513 527.625651 
L 180.778427 494.905258 
L 186.746341 438.813154 
L 192.714256 376.488595 
L 198.68217 423.232015 
L 204.650085 462.184864 
L 210.617999 493.347144 
L 216.585914 519.835081 
L 222.553828 538.532449 
L 228.521742 558.787931 
L 234.489657 572.810957 
L 240.457571 582.159641 
L 246.425486 588.392097 
L 252.3934 600.857009 
L 258.361315 607.089464 
L 264.329229 617.996262 
L 270.297144 625.786832 
L 276.265058 628.90306 
L 282.232972 632.019288 
L 288.200887 633.577402 
L 294.168801 633.577402 
L 300.136716 633.577402 
L 306.10463 633.577402 
L 312.072545 636.69363 
L 318.040459 638.251744 
L 324.008373 638.251744 
L 329.976288 641.367972 
L 335.944202 641.367972 
L 341.912117 641.367972 
L 347.880031 641.367972 
L 353.847946 644.4842 
L 359.81586 644.4842 
L 365.783775 644.4842 
L 371.751689 644.4842 
L 377.719603 646.042314 
L 383.687518 646.042314 
L 389.655432 646.042314 
L 395.623347 646.042314 
L 401.591261 646.042314 
L 407.559176 646.042314 
L 413.52709 646.042314 
L 419.495004 646.042314 
L 425.462919 646.042314 
L 431.430833 646.042314 
L 437.398748 646.042314 
L 443.366662 646.042314 
L 449.334577 646.042314 
L 455.302491 646.042314 
L 461.270406 646.042314 
L 467.23832 646.042314 
L 473.206234 646.042314 
" style="fill:none;stroke:#1f77b4;stroke-linecap:square;stroke-width:1.5;"/>
    <defs>
     <path d="M 0 3 
C 0.795609 3 1.55874 2.683901 2.12132 2.12132 
C 2.683901 1.55874 3 0.795609 3 0 
C 3 -0.795609 2.683901 -1.55874 2.12132 -2.12132 
C 1.55874 -2.683901 0.795609 -3 0 -3 
C -0.795609 -3 -1.55874 -2.683901 -2.12132 -2.12132 
C -2.683901 -1.55874 -3 -0.795609 -3 0 
C -3 0.795609 -2.683901 1.55874 -2.12132 2.12132 
C -1.55874 2.683901 -0.795609 3 0 3 
z
" id="me0184cc71e" style="stroke:#1f77b4;"/>
    </defs>
    <g clip-path="url(#p9e30a3ffcd)">
     <use style="fill:#ffffff;stroke:#1f77b4;" x="67.388053" xlink:href="#me0184cc71e" y="644.4842"/>
     <use style="fill:#ffffff;stroke:#1f77b4;" x="73.355967" xlink:href="#me0184cc71e" y="644.4842"/>
     <use style="fill:#ffffff;stroke:#1f77b4;" x="79.323881" xlink:href="#me0184cc71e" y="644.4842"/>
     <use style="fill:#ffffff;stroke:#1f77b4;" x="85.291796" xlink:href="#me0184cc71e" y="642.926086"/>
     <use style="fill:#ffffff;stroke:#1f77b4;" x="91.25971" xlink:href="#me0184cc71e" y="644.4842"/>
     <use style="fill:#ffffff;stroke:#1f77b4;" x="97.227625" xlink:href="#me0184cc71e" y="644.4842"/>
     <use style="fill:#ffffff;stroke:#1f77b4;" x="103.195539" xlink:href="#me0184cc71e" y="642.926086"/>
     <use style="fill:#ffffff;stroke:#1f77b4;" x="109.163454" xlink:href="#me0184cc71e" y="642.926086"/>
     <use style="fill:#ffffff;stroke:#1f77b4;" x="115.131368" xlink:href="#me0184cc71e" y="639.809858"/>
     <use style="fill:#ffffff;stroke:#1f77b4;" x="121.099283" xlink:href="#me0184cc71e" y="633.577402"/>
     <use style="fill:#ffffff;stroke:#1f77b4;" x="127.067197" xlink:href="#me0184cc71e" y="622.670604"/>
     <use style="fill:#ffffff;stroke:#1f77b4;" x="133.035111" xlink:href="#me0184cc71e" y="624.228718"/>
     <use style="fill:#ffffff;stroke:#1f77b4;" x="139.003026" xlink:href="#me0184cc71e" y="627.344946"/>
     <use style="fill:#ffffff;stroke:#1f77b4;" x="144.97094" xlink:href="#me0184cc71e" y="622.670604"/>
     <use style="fill:#ffffff;stroke:#1f77b4;" x="150.938855" xlink:href="#me0184cc71e" y="611.763806"/>
     <use style="fill:#ffffff;stroke:#1f77b4;" x="156.906769" xlink:href="#me0184cc71e" y="596.182667"/>
     <use style="fill:#ffffff;stroke:#1f77b4;" x="162.874684" xlink:href="#me0184cc71e" y="579.043413"/>
     <use style="fill:#ffffff;stroke:#1f77b4;" x="168.842598" xlink:href="#me0184cc71e" y="557.229817"/>
     <use style="fill:#ffffff;stroke:#1f77b4;" x="174.810513" xlink:href="#me0184cc71e" y="527.625651"/>
     <use style="fill:#ffffff;stroke:#1f77b4;" x="180.778427" xlink:href="#me0184cc71e" y="494.905258"/>
     <use style="fill:#ffffff;stroke:#1f77b4;" x="186.746341" xlink:href="#me0184cc71e" y="438.813154"/>
     <use style="fill:#ffffff;stroke:#1f77b4;" x="192.714256" xlink:href="#me0184cc71e" y="376.488595"/>
     <use style="fill:#ffffff;stroke:#1f77b4;" x="198.68217" xlink:href="#me0184cc71e" y="423.232015"/>
     <use style="fill:#ffffff;stroke:#1f77b4;" x="204.650085" xlink:href="#me0184cc71e" y="462.184864"/>
     <use style="fill:#ffffff;stroke:#1f77b4;" x="210.617999" xlink:href="#me0184cc71e" y="493.347144"/>
     <use style="fill:#ffffff;stroke:#1f77b4;" x="216.585914" xlink:href="#me0184cc71e" y="519.835081"/>
     <use style="fill:#ffffff;stroke:#1f77b4;" x="222.553828" xlink:href="#me0184cc71e" y="538.532449"/>
     <use style="fill:#ffffff;stroke:#1f77b4;" x="228.521742" xlink:href="#me0184cc71e" y="558.787931"/>
     <use style="fill:#ffffff;stroke:#1f77b4;" x="234.489657" xlink:href="#me0184cc71e" y="572.810957"/>
     <use style="fill:#ffffff;stroke:#1f77b4;" x="240.457571" xlink:href="#me0184cc71e" y="582.159641"/>
     <use style="fill:#ffffff;stroke:#1f77b4;" x="246.425486" xlink:href="#me0184cc71e" y="588.392097"/>
     <use style="fill:#ffffff;stroke:#1f77b4;" x="252.3934" xlink:href="#me0184cc71e" y="600.857009"/>
     <use style="fill:#ffffff;stroke:#1f77b4;" x="258.361315" xlink:href="#me0184cc71e" y="607.089464"/>
     <use style="fill:#ffffff;stroke:#1f77b4;" x="264.329229" xlink:href="#me0184cc71e" y="617.996262"/>
     <use style="fill:#ffffff;stroke:#1f77b4;" x="270.297144" xlink:href="#me0184cc71e" y="625.786832"/>
     <use style="fill:#ffffff;stroke:#1f77b4;" x="276.265058" xlink:href="#me0184cc71e" y="628.90306"/>
     <use style="fill:#ffffff;stroke:#1f77b4;" x="282.232972" xlink:href="#me0184cc71e" y="632.019288"/>
     <use style="fill:#ffffff;stroke:#1f77b4;" x="288.200887" xlink:href="#me0184cc71e" y="633.577402"/>
     <use style="fill:#ffffff;stroke:#1f77b4;" x="294.168801" xlink:href="#me0184cc71e" y="633.577402"/>
     <use style="fill:#ffffff;stroke:#1f77b4;" x="300.136716" xlink:href="#me0184cc71e" y="633.577402"/>
     <use style="fill:#ffffff;stroke:#1f77b4;" x="306.10463" xlink:href="#me0184cc71e" y="633.577402"/>
     <use style="fill:#ffffff;stroke:#1f77b4;" x="312.072545" xlink:href="#me0184cc71e" y="636.69363"/>
     <use style="fill:#ffffff;stroke:#1f77b4;" x="318.040459" xlink:href="#me0184cc71e" y="638.251744"/>
     <use style="fill:#ffffff;stroke:#1f77b4;" x="324.008373" xlink:href="#me0184cc71e" y="638.251744"/>
     <use style="fill:#ffffff;stroke:#1f77b4;" x="329.976288" xlink:href="#me0184cc71e" y="641.367972"/>
     <use style="fill:#ffffff;stroke:#1f77b4;" x="335.944202" xlink:href="#me0184cc71e" y="641.367972"/>
     <use style="fill:#ffffff;stroke:#1f77b4;" x="341.912117" xlink:href="#me0184cc71e" y="641.367972"/>
     <use style="fill:#ffffff;stroke:#1f77b4;" x="347.880031" xlink:href="#me0184cc71e" y="641.367972"/>
     <use style="fill:#ffffff;stroke:#1f77b4;" x="353.847946" xlink:href="#me0184cc71e" y="644.4842"/>
     <use style="fill:#ffffff;stroke:#1f77b4;" x="359.81586" xlink:href="#me0184cc71e" y="644.4842"/>
     <use style="fill:#ffffff;stroke:#1f77b4;" x="365.783775" xlink:href="#me0184cc71e" y="644.4842"/>
     <use style="fill:#ffffff;stroke:#1f77b4;" x="371.751689" xlink:href="#me0184cc71e" y="644.4842"/>
     <use style="fill:#ffffff;stroke:#1f77b4;" x="377.719603" xlink:href="#me0184cc71e" y="646.042314"/>
     <use style="fill:#ffffff;stroke:#1f77b4;" x="383.687518" xlink:href="#me0184cc71e" y="646.042314"/>
     <use style="fill:#ffffff;stroke:#1f77b4;" x="389.655432" xlink:href="#me0184cc71e" y="646.042314"/>
     <use style="fill:#ffffff;stroke:#1f77b4;" x="395.623347" xlink:href="#me0184cc71e" y="646.042314"/>
     <use style="fill:#ffffff;stroke:#1f77b4;" x="401.591261" xlink:href="#me0184cc71e" y="646.042314"/>
     <use style="fill:#ffffff;stroke:#1f77b4;" x="407.559176" xlink:href="#me0184cc71e" y="646.042314"/>
     <use style="fill:#ffffff;stroke:#1f77b4;" x="413.52709" xlink:href="#me0184cc71e" y="646.042314"/>
     <use style="fill:#ffffff;stroke:#1f77b4;" x="419.495004" xlink:href="#me0184cc71e" y="646.042314"/>
     <use style="fill:#ffffff;stroke:#1f77b4;" x="425.462919" xlink:href="#me0184cc71e" y="646.042314"/>
     <use style="fill:#ffffff;stroke:#1f77b4;" x="431.430833" xlink:href="#me0184cc71e" y="646.042314"/>
     <use style="fill:#ffffff;stroke:#1f77b4;" x="437.398748" xlink:href="#me0184cc71e" y="646.042314"/>
     <use style="fill:#ffffff;stroke:#1f77b4;" x="443.366662" xlink:href="#me0184cc71e" y="646.042314"/>
     <use style="fill:#ffffff;stroke:#1f77b4;" x="449.334577" xlink:href="#me0184cc71e" y="646.042314"/>
     <use style="fill:#ffffff;stroke:#1f77b4;" x="455.302491" xlink:href="#me0184cc71e" y="646.042314"/>
     <use style="fill:#ffffff;stroke:#1f77b4;" x="461.270406" xlink:href="#me0184cc71e" y="646.042314"/>
     <use style="fill:#ffffff;stroke:#1f77b4;" x="467.23832" xlink:href="#me0184cc71e" y="646.042314"/>
     <use style="fill:#ffffff;stroke:#1f77b4;" x="473.206234" xlink:href="#me0184cc71e" y="646.042314"/>
    </g>
   </g>
   <g id="patch_9">
    <path d="M 47.097144 659.52 
L 47.097144 363.010909 
" style="fill:none;stroke:#000000;stroke-linecap:square;stroke-linejoin:miter;stroke-width:0.8;"/>
   </g>
   <g id="patch_10">
    <path d="M 493.497144 659.52 
L 493.497144 363.010909 
" style="fill:none;stroke:#000000;stroke-linecap:square;stroke-linejoin:miter;stroke-width:0.8;"/>
   </g>
   <g id="patch_11">
    <path d="M 47.097144 659.52 
L 493.497144 659.52 
" style="fill:none;stroke:#000000;stroke-linecap:square;stroke-linejoin:miter;stroke-width:0.8;"/>
   </g>
   <g id="patch_12">
    <path d="M 47.097144 363.010909 
L 493.497144 363.010909 
" style="fill:none;stroke:#000000;stroke-linecap:square;stroke-linejoin:miter;stroke-width:0.8;"/>
   </g>
  </g>
 </g>
 <defs>
  <clipPath id="p213667e704">
   <rect height="296.509091" width="323.426763" x="108.583762" y="7.2"/>
  </clipPath>
  <clipPath id="p9e30a3ffcd">
   <rect height="296.509091" width="446.4" x="47.097144" y="363.010909"/>
  </clipPath>
 </defs>
</svg>
