<?xml version="1.0" encoding="utf-8" standalone="no"?>
<!DOCTYPE svg PUBLIC "-//W3C//DTD SVG 1.1//EN"
  "http://www.w3.org/Graphics/SVG/1.1/DTD/svg11.dtd">
<!-- Created with matplotlib (https://matplotlib.org/) -->
<svg height="394.070325pt" version="1.1" viewBox="0 0 409.889914 394.070325" width="409.889914pt" xmlns="http://www.w3.org/2000/svg" xmlns:xlink="http://www.w3.org/1999/xlink">
 <metadata>
  <rdf:RDF xmlns:cc="http://creativecommons.org/ns#" xmlns:dc="http://purl.org/dc/elements/1.1/" xmlns:rdf="http://www.w3.org/1999/02/22-rdf-syntax-ns#">
   <cc:Work>
    <dc:type rdf:resource="http://purl.org/dc/dcmitype/StillImage"/>
    <dc:date>2021-07-20T11:43:23.539818</dc:date>
    <dc:format>image/svg+xml</dc:format>
    <dc:creator>
     <cc:Agent>
      <dc:title>Matplotlib v3.3.4, https://matplotlib.org/</dc:title>
     </cc:Agent>
    </dc:creator>
   </cc:Work>
  </rdf:RDF>
 </metadata>
 <defs>
  <style type="text/css">*{stroke-linecap:butt;stroke-linejoin:round;}</style>
 </defs>
 <g id="figure_1">
  <g id="patch_1">
   <path d="M 0 394.070325 
L 409.889914 394.070325 
L 409.889914 0 
L 0 0 
z
" style="fill:none;"/>
  </g>
  <g id="axes_1">
   <g id="patch_2">
    <path d="M 67.889914 170.28 
L 402.689914 170.28 
L 402.689914 7.2 
L 67.889914 7.2 
z
" style="fill:#ffffff;"/>
   </g>
   <g id="matplotlib.axis_1"/>
   <g id="matplotlib.axis_2"/>
   <g id="line2d_1">
    <path clip-path="url(#p99fae2a474)" d="M 294.631207 110.333969 
L 309.610709 111.285134 
L 299.669799 113.401501 
L 297.493312 111.269022 
L 316.082868 133.285729 
L 288.023261 112.942631 
L 299.712743 101.560855 
L 290.932512 87.568704 
L 288.414006 85.580783 
L 278.300868 102.120896 
L 261.595619 109.272828 
L 251.352866 124.450203 
L 248.059233 111.503933 
L 251.909803 112.003959 
L 242.395992 103.025294 
L 271.776717 100.729495 
L 293.642886 70.033185 
L 286.258282 83.189537 
L 290.363828 91.342164 
L 277.687968 75.29962 
L 270.47264 87.18996 
L 253.733179 69.134513 
L 246.128275 68.762859 
L 243.758612 66.782317 
L 227.853159 57.232314 
L 223.951852 55.134396 
L 211.505308 67.116768 
L 213.736923 57.166082 
L 220.290859 49.581231 
L 216.458524 48.616487 
L 226.856512 46.47314 
L 214.536952 26.786721 
L 228.155813 23.319198 
L 210.654155 20.836978 
L 189.939036 13.204082 
L 239.80707 20.015005 
L 248.452766 50.911614 
L 258.107578 55.246845 
L 266.297179 54.498225 
L 259.244117 61.569914 
L 262.886665 50.801385 
L 260.354721 33.737589 
L 269.136314 40.935217 
L 234.464366 39.637874 
L 212.242029 32.418494 
L 208.863523 36.719774 
L 192.735885 46.667315 
L 205.008674 47.834062 
L 185.083045 39.578233 
L 194.336145 33.798035 
L 176.125666 29.223604 
L 158.719971 28.874897 
L 163.181869 53.442942 
L 154.49696 54.921867 
L 160.7377 106.263721 
" style="fill:none;stroke:#d62728;stroke-linecap:square;stroke-width:1.5;"/>
    <defs>
     <path d="M 0 2.5 
C 0.663008 2.5 1.29895 2.236584 1.767767 1.767767 
C 2.236584 1.29895 2.5 0.663008 2.5 0 
C 2.5 -0.663008 2.236584 -1.29895 1.767767 -1.767767 
C 1.29895 -2.236584 0.663008 -2.5 0 -2.5 
C -0.663008 -2.5 -1.29895 -2.236584 -1.767767 -1.767767 
C -2.236584 -1.29895 -2.5 -0.663008 -2.5 0 
C -2.5 0.663008 -2.236584 1.29895 -1.767767 1.767767 
C -1.29895 2.236584 -0.663008 2.5 0 2.5 
z
" id="m92f3bf4374" style="stroke:#d62728;"/>
    </defs>
    <g clip-path="url(#p99fae2a474)">
     <use style="fill:#d62728;stroke:#d62728;" x="294.631207" xlink:href="#m92f3bf4374" y="110.333969"/>
     <use style="fill:#d62728;stroke:#d62728;" x="309.610709" xlink:href="#m92f3bf4374" y="111.285134"/>
     <use style="fill:#d62728;stroke:#d62728;" x="299.669799" xlink:href="#m92f3bf4374" y="113.401501"/>
     <use style="fill:#d62728;stroke:#d62728;" x="297.493312" xlink:href="#m92f3bf4374" y="111.269022"/>
     <use style="fill:#d62728;stroke:#d62728;" x="316.082868" xlink:href="#m92f3bf4374" y="133.285729"/>
     <use style="fill:#d62728;stroke:#d62728;" x="288.023261" xlink:href="#m92f3bf4374" y="112.942631"/>
     <use style="fill:#d62728;stroke:#d62728;" x="299.712743" xlink:href="#m92f3bf4374" y="101.560855"/>
     <use style="fill:#d62728;stroke:#d62728;" x="290.932512" xlink:href="#m92f3bf4374" y="87.568704"/>
     <use style="fill:#d62728;stroke:#d62728;" x="288.414006" xlink:href="#m92f3bf4374" y="85.580783"/>
     <use style="fill:#d62728;stroke:#d62728;" x="278.300868" xlink:href="#m92f3bf4374" y="102.120896"/>
     <use style="fill:#d62728;stroke:#d62728;" x="261.595619" xlink:href="#m92f3bf4374" y="109.272828"/>
     <use style="fill:#d62728;stroke:#d62728;" x="251.352866" xlink:href="#m92f3bf4374" y="124.450203"/>
     <use style="fill:#d62728;stroke:#d62728;" x="248.059233" xlink:href="#m92f3bf4374" y="111.503933"/>
     <use style="fill:#d62728;stroke:#d62728;" x="251.909803" xlink:href="#m92f3bf4374" y="112.003959"/>
     <use style="fill:#d62728;stroke:#d62728;" x="242.395992" xlink:href="#m92f3bf4374" y="103.025294"/>
     <use style="fill:#d62728;stroke:#d62728;" x="271.776717" xlink:href="#m92f3bf4374" y="100.729495"/>
     <use style="fill:#d62728;stroke:#d62728;" x="293.642886" xlink:href="#m92f3bf4374" y="70.033185"/>
     <use style="fill:#d62728;stroke:#d62728;" x="286.258282" xlink:href="#m92f3bf4374" y="83.189537"/>
     <use style="fill:#d62728;stroke:#d62728;" x="290.363828" xlink:href="#m92f3bf4374" y="91.342164"/>
     <use style="fill:#d62728;stroke:#d62728;" x="277.687968" xlink:href="#m92f3bf4374" y="75.29962"/>
     <use style="fill:#d62728;stroke:#d62728;" x="270.47264" xlink:href="#m92f3bf4374" y="87.18996"/>
     <use style="fill:#d62728;stroke:#d62728;" x="253.733179" xlink:href="#m92f3bf4374" y="69.134513"/>
     <use style="fill:#d62728;stroke:#d62728;" x="246.128275" xlink:href="#m92f3bf4374" y="68.762859"/>
     <use style="fill:#d62728;stroke:#d62728;" x="243.758612" xlink:href="#m92f3bf4374" y="66.782317"/>
     <use style="fill:#d62728;stroke:#d62728;" x="227.853159" xlink:href="#m92f3bf4374" y="57.232314"/>
     <use style="fill:#d62728;stroke:#d62728;" x="223.951852" xlink:href="#m92f3bf4374" y="55.134396"/>
     <use style="fill:#d62728;stroke:#d62728;" x="211.505308" xlink:href="#m92f3bf4374" y="67.116768"/>
     <use style="fill:#d62728;stroke:#d62728;" x="213.736923" xlink:href="#m92f3bf4374" y="57.166082"/>
     <use style="fill:#d62728;stroke:#d62728;" x="220.290859" xlink:href="#m92f3bf4374" y="49.581231"/>
     <use style="fill:#d62728;stroke:#d62728;" x="216.458524" xlink:href="#m92f3bf4374" y="48.616487"/>
     <use style="fill:#d62728;stroke:#d62728;" x="226.856512" xlink:href="#m92f3bf4374" y="46.47314"/>
     <use style="fill:#d62728;stroke:#d62728;" x="214.536952" xlink:href="#m92f3bf4374" y="26.786721"/>
     <use style="fill:#d62728;stroke:#d62728;" x="228.155813" xlink:href="#m92f3bf4374" y="23.319198"/>
     <use style="fill:#d62728;stroke:#d62728;" x="210.654155" xlink:href="#m92f3bf4374" y="20.836978"/>
     <use style="fill:#d62728;stroke:#d62728;" x="189.939036" xlink:href="#m92f3bf4374" y="13.204082"/>
     <use style="fill:#d62728;stroke:#d62728;" x="239.80707" xlink:href="#m92f3bf4374" y="20.015005"/>
     <use style="fill:#d62728;stroke:#d62728;" x="248.452766" xlink:href="#m92f3bf4374" y="50.911614"/>
     <use style="fill:#d62728;stroke:#d62728;" x="258.107578" xlink:href="#m92f3bf4374" y="55.246845"/>
     <use style="fill:#d62728;stroke:#d62728;" x="266.297179" xlink:href="#m92f3bf4374" y="54.498225"/>
     <use style="fill:#d62728;stroke:#d62728;" x="259.244117" xlink:href="#m92f3bf4374" y="61.569914"/>
     <use style="fill:#d62728;stroke:#d62728;" x="262.886665" xlink:href="#m92f3bf4374" y="50.801385"/>
     <use style="fill:#d62728;stroke:#d62728;" x="260.354721" xlink:href="#m92f3bf4374" y="33.737589"/>
     <use style="fill:#d62728;stroke:#d62728;" x="269.136314" xlink:href="#m92f3bf4374" y="40.935217"/>
     <use style="fill:#d62728;stroke:#d62728;" x="234.464366" xlink:href="#m92f3bf4374" y="39.637874"/>
     <use style="fill:#d62728;stroke:#d62728;" x="212.242029" xlink:href="#m92f3bf4374" y="32.418494"/>
     <use style="fill:#d62728;stroke:#d62728;" x="208.863523" xlink:href="#m92f3bf4374" y="36.719774"/>
     <use style="fill:#d62728;stroke:#d62728;" x="192.735885" xlink:href="#m92f3bf4374" y="46.667315"/>
     <use style="fill:#d62728;stroke:#d62728;" x="205.008674" xlink:href="#m92f3bf4374" y="47.834062"/>
     <use style="fill:#d62728;stroke:#d62728;" x="185.083045" xlink:href="#m92f3bf4374" y="39.578233"/>
     <use style="fill:#d62728;stroke:#d62728;" x="194.336145" xlink:href="#m92f3bf4374" y="33.798035"/>
     <use style="fill:#d62728;stroke:#d62728;" x="176.125666" xlink:href="#m92f3bf4374" y="29.223604"/>
     <use style="fill:#d62728;stroke:#d62728;" x="158.719971" xlink:href="#m92f3bf4374" y="28.874897"/>
     <use style="fill:#d62728;stroke:#d62728;" x="163.181869" xlink:href="#m92f3bf4374" y="53.442942"/>
     <use style="fill:#d62728;stroke:#d62728;" x="154.49696" xlink:href="#m92f3bf4374" y="54.921867"/>
     <use style="fill:#d62728;stroke:#d62728;" x="160.7377" xlink:href="#m92f3bf4374" y="106.263721"/>
    </g>
   </g>
   <g id="line2d_2">
    <path clip-path="url(#p99fae2a474)" d="M 294.631207 110.333969 
" style="fill:none;stroke:#2ca02c;stroke-linecap:square;stroke-width:1.5;"/>
    <defs>
     <path d="M 0 4.25 
C 1.127113 4.25 2.208214 3.802193 3.005204 3.005204 
C 3.802193 2.208214 4.25 1.127113 4.25 0 
C 4.25 -1.127113 3.802193 -2.208214 3.005204 -3.005204 
C 2.208214 -3.802193 1.127113 -4.25 0 -4.25 
C -1.127113 -4.25 -2.208214 -3.802193 -3.005204 -3.005204 
C -3.802193 -2.208214 -4.25 -1.127113 -4.25 0 
C -4.25 1.127113 -3.802193 2.208214 -3.005204 3.005204 
C -2.208214 3.802193 -1.127113 4.25 0 4.25 
z
" id="m6a0e4f8e57" style="stroke:#2ca02c;"/>
    </defs>
    <g clip-path="url(#p99fae2a474)">
     <use style="fill:#2ca02c;stroke:#2ca02c;" x="294.631207" xlink:href="#m6a0e4f8e57" y="110.333969"/>
    </g>
   </g>
   <g id="line2d_3">
    <path clip-path="url(#p99fae2a474)" d="M 271.487198 86.175401 
" style="fill:none;stroke:#1f77b4;stroke-linecap:square;stroke-width:1.5;"/>
    <defs>
     <path d="M 0 4.25 
C 1.127113 4.25 2.208214 3.802193 3.005204 3.005204 
C 3.802193 2.208214 4.25 1.127113 4.25 0 
C 4.25 -1.127113 3.802193 -2.208214 3.005204 -3.005204 
C 2.208214 -3.802193 1.127113 -4.25 0 -4.25 
C -1.127113 -4.25 -2.208214 -3.802193 -3.005204 -3.005204 
C -3.802193 -2.208214 -4.25 -1.127113 -4.25 0 
C -4.25 1.127113 -3.802193 2.208214 -3.005204 3.005204 
C -2.208214 3.802193 -1.127113 4.25 0 4.25 
z
" id="mfb265abb0f" style="stroke:#1f77b4;"/>
    </defs>
    <g clip-path="url(#p99fae2a474)">
     <use style="fill:#1f77b4;stroke:#1f77b4;" x="271.487198" xlink:href="#mfb265abb0f" y="86.175401"/>
    </g>
   </g>
   <g id="text_1">
    <!-- $t = 0$ -->
    <g style="fill:#2ca02c;" transform="translate(294.631207 110.333969)scale(0.24 -0.24)">
     <defs>
      <path d="M 20.09375 40.09375 
L 29.296875 40.09375 
C 31.203125 40.09375 32.203125 40.09375 32.203125 41.890625 
C 32.203125 43 31.59375 43 29.59375 43 
L 20.796875 43 
L 24.5 57.25 
C 24.90625 58.625 24.90625 58.8125 24.90625 59.5 
C 24.90625 61.09375 23.59375 62 22.296875 62 
C 21.5 62 19.203125 61.6875 18.40625 58.53125 
L 14.5 43 
L 5.09375 43 
C 3.09375 43 2.203125 43 2.203125 41.09375 
C 2.203125 40.09375 2.90625 40.09375 4.796875 40.09375 
L 13.703125 40.09375 
L 7.09375 13.765625 
C 6.296875 10.265625 6 9.265625 6 7.96875 
C 6 3.28125 9.296875 -1 14.90625 -1 
C 25 -1 30.40625 13.5625 30.40625 14.265625 
C 30.40625 14.859375 30 15.15625 29.40625 15.15625 
C 29.203125 15.15625 28.796875 15.15625 28.59375 14.75 
C 28.5 14.65625 28.40625 14.5625 27.703125 12.96875 
C 25.59375 7.96875 21 1 15.203125 1 
C 12.203125 1 12 3.484375 12 5.6875 
C 12 5.78125 12 7.671875 12.296875 8.875 
z
" id="CMMI12-116"/>
      <path d="M 64.296875 32 
C 65.796875 32 67.296875 32 67.296875 33.6875 
C 67.296875 35.5 65.59375 35.5 63.90625 35.5 
L 8 35.5 
C 6.296875 35.5 4.59375 35.5 4.59375 33.6875 
C 4.59375 32 6.09375 32 7.59375 32 
z
M 63.90625 14.484375 
C 65.59375 14.484375 67.296875 14.484375 67.296875 16.296875 
C 67.296875 18 65.796875 18 64.296875 18 
L 7.59375 18 
C 6.09375 18 4.59375 18 4.59375 16.296875 
C 4.59375 14.484375 6.296875 14.484375 8 14.484375 
z
" id="CMR17-61"/>
      <path d="M 42 31.84375 
C 42 37.96875 41.90625 48.421875 37.703125 56.453125 
C 34 63.484375 28.09375 66 22.90625 66 
C 18.09375 66 12 63.78125 8.203125 56.5625 
C 4.203125 49.015625 3.796875 39.671875 3.796875 31.84375 
C 3.796875 26.109375 3.90625 17.375 7 9.734375 
C 11.296875 -0.609375 19 -2 22.90625 -2 
C 27.5 -2 34.5 -0.109375 38.59375 9.4375 
C 41.59375 16.375 42 24.5 42 31.84375 
z
M 22.90625 -0.40625 
C 16.5 -0.40625 12.703125 5.125 11.296875 12.75 
C 10.203125 18.6875 10.203125 27.328125 10.203125 32.953125 
C 10.203125 40.6875 10.203125 47.109375 11.5 53.234375 
C 13.40625 61.78125 19 64.390625 22.90625 64.390625 
C 27 64.390625 32.296875 61.671875 34.203125 53.4375 
C 35.5 47.71875 35.59375 40.984375 35.59375 32.953125 
C 35.59375 26.421875 35.59375 18.375 34.40625 12.453125 
C 32.296875 1.5 26.40625 -0.40625 22.90625 -0.40625 
z
" id="CMR17-48"/>
     </defs>
     <use transform="scale(0.996264)" xlink:href="#CMMI12-116"/>
     <use transform="translate(62.900339 0)scale(0.996264)" xlink:href="#CMR17-61"/>
     <use transform="translate(162.289136 0)scale(0.996264)" xlink:href="#CMR17-48"/>
    </g>
   </g>
   <g id="text_2">
    <!-- $t = t^*$ -->
    <g style="fill:#1f77b4;" transform="translate(294.631207 60.378943)scale(0.24 -0.24)">
     <defs>
      <path d="M 27.5 43.15625 
C 27.59375 44.578125 27.59375 47 25 47 
C 23.40625 47 22.09375 45.6875 22.40625 44.375 
L 22.40625 43.046875 
L 23.796875 27.1875 
L 11 36.703125 
C 10.09375 37.21875 9.90625 37.421875 9.203125 37.421875 
C 7.796875 37.421875 6.5 35.984375 6.5 34.5625 
C 6.5 32.921875 7.5 32.515625 8.5 32 
L 22.703125 25.046875 
L 8.90625 18.1875 
C 7.296875 17.375 6.5 16.953125 6.5 15.421875 
C 6.5 13.890625 7.796875 12.5625 9.203125 12.5625 
C 9.90625 12.5625 10.09375 12.5625 12.59375 14.5 
L 23.796875 22.796875 
L 22.296875 5.609375 
C 22.296875 3.5 24.09375 3 24.90625 3 
C 26.09375 3 27.59375 3.6875 27.59375 5.609375 
L 26.09375 22.796875 
L 38.90625 13.28125 
C 39.796875 12.765625 40 12.5625 40.703125 12.5625 
C 42.09375 12.5625 43.40625 14 43.40625 15.421875 
C 43.40625 16.953125 42.5 17.46875 41.296875 18.078125 
C 35.296875 21.15625 35.09375 21.15625 27.203125 24.9375 
L 41 31.796875 
C 42.59375 32.609375 43.40625 33.015625 43.40625 34.5625 
C 43.40625 36.09375 42.09375 37.421875 40.703125 37.421875 
C 40 37.421875 39.796875 37.421875 37.296875 35.484375 
L 26.09375 27.1875 
z
" id="CMSY10-3"/>
     </defs>
     <use transform="scale(0.996264)" xlink:href="#CMMI12-116"/>
     <use transform="translate(62.900339 0)scale(0.996264)" xlink:href="#CMR17-61"/>
     <use transform="translate(162.289136 0)scale(0.996264)" xlink:href="#CMMI12-116"/>
     <use transform="translate(197.515466 36.153639)scale(0.697382)" xlink:href="#CMSY10-3"/>
    </g>
   </g>
   <g id="text_3">
    <!-- $r^*$ -->
    <g transform="translate(294.631207 160.288995)scale(0.24 -0.24)">
     <defs>
      <path d="M 38.90625 41.140625 
C 35.796875 40.59375 34.203125 38.390625 34.203125 36.1875 
C 34.203125 33.796875 36.09375 32.984375 37.5 32.984375 
C 40.296875 32.984375 42.59375 35.390625 42.59375 38.390625 
C 42.59375 41.421875 39.5 44 34.5 44 
C 30.5 44 25.90625 42.1875 21.703125 36.484375 
C 21 41.5625 17 44 13 44 
C 9.09375 44 7.09375 41.28125 5.90625 39.1875 
C 4.203125 35.59375 2.703125 29.5625 2.703125 29.0625 
C 2.703125 28.65625 3.09375 28.140625 3.796875 28.140625 
C 4.59375 28.140625 4.703125 28.25 5.296875 30.578125 
C 6.796875 36.59375 8.703125 41.984375 12.703125 41.984375 
C 15.09375 41.984375 15.796875 40.6875 15.796875 37.796875 
C 15.796875 35.59375 14.796875 31.6875 14.09375 28.546875 
L 11.296875 17.65625 
C 10.90625 15.734375 9.796875 11.1875 9.296875 9.375 
C 8.59375 6.75 7.5 2 7.5 1.5 
C 7.5 0.09375 8.59375 -1 10.09375 -1 
C 11.203125 -1 13.09375 -0.3125 13.703125 1.703125 
C 14 2.5 17.703125 17.75 18.296875 20.078125 
C 18.796875 22.296875 19.40625 24.40625 19.90625 26.640625 
C 20.296875 28.046875 20.703125 29.65625 21 30.96875 
C 21.296875 31.875 24 36.796875 26.5 38.984375 
C 27.703125 40.09375 30.296875 41.984375 34.40625 41.984375 
C 36 41.984375 37.59375 41.78125 38.90625 41.140625 
z
" id="CMMI12-114"/>
     </defs>
     <use transform="scale(0.996264)" xlink:href="#CMMI12-114"/>
     <use transform="translate(46.670612 36.153639)scale(0.697382)" xlink:href="#CMSY10-3"/>
    </g>
   </g>
   <g id="patch_3">
    <path clip-path="url(#p99fae2a474)" d="M 294.631207 160.288995 
C 307.879435 160.288995 320.586833 155.025418 329.954745 145.657506 
C 339.322657 136.289595 344.586233 123.582196 344.586233 110.333969 
C 344.586233 97.085741 339.322657 84.378343 329.954745 75.010431 
C 320.586833 65.642519 307.879435 60.378943 294.631207 60.378943 
C 281.382979 60.378943 268.675581 65.642519 259.307669 75.010431 
C 249.939758 84.378343 244.676181 97.085741 244.676181 110.333969 
C 244.676181 123.582196 249.939758 136.289595 259.307669 145.657506 
C 268.675581 155.025418 281.382979 160.288995 294.631207 160.288995 
z
" style="fill:none;stroke:#000000;stroke-linejoin:miter;"/>
   </g>
  </g>
  <g id="axes_2">
   <g id="patch_4">
    <path d="M 67.889914 333.36 
L 402.689914 333.36 
L 402.689914 170.28 
L 67.889914 170.28 
z
" style="fill:#ffffff;"/>
   </g>
   <g id="matplotlib.axis_3">
    <g id="xtick_1">
     <g id="line2d_4">
      <defs>
       <path d="M 0 0 
L 0 3.5 
" id="mcf8103a538" style="stroke:#000000;stroke-width:0.8;"/>
      </defs>
      <g>
       <use style="stroke:#000000;stroke-width:0.8;" x="67.889914" xlink:href="#mcf8103a538" y="333.36"/>
      </g>
     </g>
     <g id="text_4">
      <!-- $\mathdefault{0}$ -->
      <g transform="translate(62.407057 356.964405)scale(0.24 -0.24)">
       <use transform="scale(0.996264)" xlink:href="#CMR17-48"/>
      </g>
     </g>
    </g>
    <g id="xtick_2">
     <g id="line2d_5">
      <g>
       <use style="stroke:#000000;stroke-width:0.8;" x="207.389914" xlink:href="#mcf8103a538" y="333.36"/>
      </g>
     </g>
     <g id="text_5">
      <!-- $t^{*}$ -->
      <g transform="translate(198.978449 356.964405)scale(0.24 -0.24)">
       <use transform="scale(0.996264)" xlink:href="#CMMI12-116"/>
       <use transform="translate(35.22633 36.153639)scale(0.697382)" xlink:href="#CMSY10-3"/>
      </g>
     </g>
    </g>
    <g id="xtick_3">
     <g id="line2d_6">
      <g>
       <use style="stroke:#000000;stroke-width:0.8;" x="346.889914" xlink:href="#mcf8103a538" y="333.36"/>
      </g>
     </g>
     <g id="text_6">
      <!-- $\mathdefault{40}$ -->
      <g transform="translate(335.9242 356.964405)scale(0.24 -0.24)">
       <defs>
        <path d="M 33.59375 64.796875 
C 33.59375 66.890625 33.5 67 31.703125 67 
L 2 19.59375 
L 2 17 
L 27.796875 17 
L 27.796875 7.1875 
C 27.796875 3.59375 27.59375 2.59375 20.59375 2.59375 
L 18.703125 2.59375 
L 18.703125 0 
C 21.90625 0.1875 27.296875 0.1875 30.703125 0.1875 
C 34.09375 0.1875 39.5 0.1875 42.703125 0 
L 42.703125 2.59375 
L 40.796875 2.59375 
C 33.796875 2.59375 33.59375 3.59375 33.59375 7.1875 
L 33.59375 17 
L 43.796875 17 
L 43.796875 19.59375 
L 33.59375 19.59375 
z
M 28.09375 58.171875 
L 28.09375 19.59375 
L 4 19.59375 
z
" id="CMR17-52"/>
       </defs>
       <use transform="scale(0.996264)" xlink:href="#CMR17-52"/>
       <use transform="translate(45.690477 0)scale(0.996264)" xlink:href="#CMR17-48"/>
      </g>
     </g>
    </g>
    <g id="xtick_4">
     <g id="line2d_7">
      <g>
       <use style="stroke:#000000;stroke-width:0.8;" x="207.389914" xlink:href="#mcf8103a538" y="333.36"/>
      </g>
     </g>
     <g id="text_7">
      <!-- $t^{*}$ -->
      <g transform="translate(198.978449 356.964405)scale(0.24 -0.24)">
       <use transform="scale(0.996264)" xlink:href="#CMMI12-116"/>
       <use transform="translate(35.22633 36.153639)scale(0.697382)" xlink:href="#CMSY10-3"/>
      </g>
     </g>
    </g>
    <g id="xtick_5">
     <g id="line2d_8">
      <g>
       <use style="stroke:#000000;stroke-width:0.8;" x="388.739914" xlink:href="#mcf8103a538" y="333.36"/>
      </g>
     </g>
     <g id="text_8">
      <!-- $t_l$ -->
      <g transform="translate(382.071941 356.964405)scale(0.24 -0.24)">
       <defs>
        <path d="M 25.40625 66.484375 
C 25.5 66.890625 25.703125 67.484375 25.703125 67.984375 
C 25.703125 69 24.703125 69 24.5 69 
C 24.40625 69 20.796875 68.6875 19 68.484375 
C 17.296875 68.390625 15.796875 68.1875 14 68.09375 
C 11.59375 67.890625 10.90625 67.796875 10.90625 65.984375 
C 10.90625 64.984375 11.90625 64.984375 12.90625 64.984375 
C 18 64.984375 18 64.09375 18 63.109375 
C 18 62.703125 18 62.515625 17.5 60.71875 
L 5.09375 11.421875 
C 4.796875 10.328125 4.59375 9.53125 4.59375 7.953125 
C 4.59375 2.984375 8.296875 -1 13.40625 -1 
C 16.703125 -1 18.90625 1.1875 20.5 4.265625 
C 22.203125 7.546875 23.59375 13.8125 23.59375 14.203125 
C 23.59375 14.703125 23.203125 15.109375 22.59375 15.109375 
C 21.703125 15.109375 21.59375 14.609375 21.203125 13.109375 
C 19.40625 6.265625 17.59375 1 13.59375 1 
C 10.59375 1 10.59375 4.171875 10.59375 5.5625 
C 10.59375 5.96875 10.59375 8.046875 11.296875 10.828125 
z
" id="CMMI12-108"/>
       </defs>
       <use transform="scale(0.996264)" xlink:href="#CMMI12-116"/>
       <use transform="translate(35.22633 -14.943915)scale(0.697382)" xlink:href="#CMMI12-108"/>
      </g>
     </g>
    </g>
    <g id="text_9">
     <!-- Time $t$ -->
     <g transform="translate(202.3993 382.219568)scale(0.24 -0.24)">
      <defs>
       <path d="M 62.203125 67.6875 
L 4.5 67.6875 
L 2.796875 45.6875 
L 4.59375 45.6875 
C 5.90625 62.203125 7.296875 65.09375 22.703125 65.09375 
C 24.5 65.09375 27.40625 65.09375 28.203125 64.984375 
C 30.09375 64.6875 30.09375 63.5 30.09375 61.203125 
L 30.09375 7.265625 
C 30.09375 3.6875 29.796875 2.59375 21.5 2.59375 
L 18.703125 2.59375 
L 18.703125 0 
C 23.5 0.09375 28.5 0.1875 33.40625 0.1875 
C 38.296875 0.1875 43.296875 0.09375 48.09375 0 
L 48.09375 2.59375 
L 45.296875 2.59375 
C 37 2.59375 36.703125 3.6875 36.703125 7.265625 
L 36.703125 61.203125 
C 36.703125 63.390625 36.703125 64.59375 38.5 64.984375 
C 39.296875 65.09375 42.203125 65.09375 44 65.09375 
C 59.296875 65.09375 60.796875 62.203125 62.09375 45.6875 
L 63.90625 45.6875 
z
" id="CMR17-84"/>
       <path d="M 15.5 61.890625 
C 15.5 64.09375 13.703125 66 11.40625 66 
C 9.203125 66 7.296875 64.1875 7.296875 61.890625 
C 7.296875 59.6875 9.09375 57.796875 11.40625 57.796875 
C 13.59375 57.796875 15.5 59.59375 15.5 61.890625 
z
M 3.796875 42.890625 
L 3.796875 40.296875 
C 9.40625 40.296875 10.203125 39.6875 10.203125 34.859375 
L 10.203125 6.921875 
C 10.203125 3.09375 9.796875 2.59375 3.40625 2.59375 
L 3.40625 0 
C 5.796875 0.1875 10.09375 0.1875 12.59375 0.1875 
C 15 0.1875 19.09375 0.1875 21.40625 0 
L 21.40625 2.59375 
C 15.5 2.59375 15.296875 3.203125 15.296875 6.8125 
L 15.296875 44 
z
" id="CMR17-105"/>
       <path d="M 67.59375 30.53125 
C 67.59375 35.5625 66.703125 44 54.796875 44 
C 48 44 43.296875 39.375 41.5 33.953125 
L 41.40625 33.953125 
C 40.203125 42.1875 34.296875 44 28.703125 44 
C 20.796875 44 16.703125 37.875 15.203125 33.84375 
L 15.09375 33.84375 
L 15.09375 44 
L 3.296875 42.890625 
L 3.296875 40.28125 
C 9.203125 40.28125 10.09375 39.6875 10.09375 34.859375 
L 10.09375 6.921875 
C 10.09375 3.09375 9.703125 2.59375 3.296875 2.59375 
L 3.296875 0 
C 5.703125 0.1875 10.09375 0.1875 12.703125 0.1875 
C 15.296875 0.1875 19.796875 0.1875 22.203125 0 
L 22.203125 2.59375 
C 15.796875 2.59375 15.40625 3 15.40625 6.921875 
L 15.40625 26.21875 
C 15.40625 35.453125 21 42.390625 28 42.390625 
C 35.40625 42.390625 36.203125 35.765625 36.203125 30.9375 
L 36.203125 6.921875 
C 36.203125 3.09375 35.796875 2.59375 29.40625 2.59375 
L 29.40625 0 
C 31.796875 0.1875 36.203125 0.1875 38.796875 0.1875 
C 41.40625 0.1875 45.90625 0.1875 48.296875 0 
L 48.296875 2.59375 
C 41.90625 2.59375 41.5 3 41.5 6.921875 
L 41.5 26.21875 
C 41.5 35.453125 47.09375 42.390625 54.09375 42.390625 
C 61.5 42.390625 62.296875 35.765625 62.296875 30.9375 
L 62.296875 6.921875 
C 62.296875 3.09375 61.90625 2.59375 55.5 2.59375 
L 55.5 0 
C 57.90625 0.1875 62.296875 0.1875 64.90625 0.1875 
C 67.5 0.1875 72 0.1875 74.40625 0 
L 74.40625 2.59375 
C 68 2.59375 67.59375 3 67.59375 6.921875 
z
" id="CMR17-109"/>
       <path d="M 38.09375 23.484375 
C 38.5 23.890625 38.5 24.09375 38.5 25.09375 
C 38.5 35.171875 33.09375 44 21.703125 44 
C 11.09375 44 2.703125 33.984375 2.703125 21.78125 
C 2.703125 8.65625 12.203125 -1 22.796875 -1 
C 34 -1 38.40625 9.671875 38.40625 11.796875 
C 38.40625 12.5 37.796875 12.5 37.59375 12.5 
C 36.90625 12.5 36.796875 12.296875 36.40625 11.078125 
C 34.203125 4.21875 28.703125 0.796875 23.5 0.796875 
C 19.203125 0.796875 14.90625 3.21875 12.203125 7.65625 
C 9.09375 12.796875 9.09375 18.75 9.09375 23.484375 
z
M 9.203125 25 
C 9.90625 39.234375 17.59375 42.390625 21.59375 42.390625 
C 28.40625 42.390625 33 36.0625 33.09375 25 
z
" id="CMR17-101"/>
      </defs>
      <use transform="scale(0.996264)" xlink:href="#CMR17-84"/>
      <use transform="translate(66.509881 0)scale(0.996264)" xlink:href="#CMR17-105"/>
      <use transform="translate(91.380939 0)scale(0.996264)" xlink:href="#CMR17-109"/>
      <use transform="translate(168.300529 0)scale(0.996264)" xlink:href="#CMR17-101"/>
      <use transform="translate(238.862156 0)scale(0.996264)" xlink:href="#CMMI12-116"/>
     </g>
    </g>
   </g>
   <g id="matplotlib.axis_4">
    <g id="ytick_1">
     <g id="line2d_9">
      <defs>
       <path d="M 0 0 
L -3.5 0 
" id="m59e8e67a91" style="stroke:#000000;stroke-width:0.8;"/>
      </defs>
      <g>
       <use style="stroke:#000000;stroke-width:0.8;" x="67.889914" xlink:href="#m59e8e67a91" y="333.36"/>
      </g>
     </g>
     <g id="text_10">
      <!-- $\mathdefault{0.0}$ -->
      <g transform="translate(32.455163 341.662203)scale(0.24 -0.24)">
       <defs>
        <path d="M 18.40625 4.796875 
C 18.40625 7.6875 16 9.6875 13.59375 9.6875 
C 10.703125 9.6875 8.703125 7.296875 8.703125 4.890625 
C 8.703125 2 11.09375 0 13.5 0 
C 16.40625 0 18.40625 2.390625 18.40625 4.796875 
z
" id="CMMI12-58"/>
       </defs>
       <use transform="scale(0.996264)" xlink:href="#CMR17-48"/>
       <use transform="translate(45.690477 0)scale(0.996264)" xlink:href="#CMMI12-58"/>
       <use transform="translate(72.787654 0)scale(0.996264)" xlink:href="#CMR17-48"/>
      </g>
     </g>
    </g>
    <g id="ytick_2">
     <g id="line2d_10">
      <g>
       <use style="stroke:#000000;stroke-width:0.8;" x="67.889914" xlink:href="#m59e8e67a91" y="268.02635"/>
      </g>
     </g>
     <g id="text_11">
      <!-- $\mathdefault{2.5}$ -->
      <g transform="translate(32.455163 276.328552)scale(0.24 -0.24)">
       <defs>
        <path d="M 41.703125 15.46875 
L 39.90625 15.46875 
C 38.90625 8.390625 38.09375 7.1875 37.703125 6.59375 
C 37.203125 5.796875 30 5.796875 28.59375 5.796875 
L 9.40625 5.796875 
C 13 9.6875 20 16.765625 28.5 24.9375 
C 34.59375 30.71875 41.703125 37.5 41.703125 47.390625 
C 41.703125 59.1875 32.296875 66 21.796875 66 
C 10.796875 66 4.09375 56.296875 4.09375 47.296875 
C 4.09375 43.390625 7 42.890625 8.203125 42.890625 
C 9.203125 42.890625 12.203125 43.484375 12.203125 46.984375 
C 12.203125 50.09375 9.59375 51 8.203125 51 
C 7.59375 51 7 50.890625 6.59375 50.6875 
C 8.5 59.1875 14.296875 63.390625 20.40625 63.390625 
C 29.09375 63.390625 34.796875 56.5 34.796875 47.390625 
C 34.796875 38.703125 29.703125 31.21875 24 24.734375 
L 4.09375 2.296875 
L 4.09375 0 
L 39.296875 0 
z
" id="CMR17-50"/>
        <path d="M 11.40625 58.59375 
C 12.40625 58.1875 16.5 56.890625 20.703125 56.890625 
C 30 56.890625 35.09375 61.890625 38 64.6875 
C 38 65.484375 38 66 37.40625 66 
C 37.296875 66 37.09375 66 36.296875 65.59375 
C 32.796875 64.09375 28.703125 63 23.703125 63 
C 20.703125 63 16.203125 63.359375 11.296875 65.484375 
C 10.203125 66 10 66 9.90625 66 
C 9.40625 66 9.296875 65.890625 9.296875 63.90625 
L 9.296875 34.859375 
C 9.296875 33.015625 9.296875 32.5 10.296875 32.5 
C 10.796875 32.5 11 32.703125 11.5 33.421875 
C 14.703125 38.046875 19.09375 40 24.09375 40 
C 27.59375 40 35.09375 37.734375 35.09375 20.203125 
C 35.09375 16.984375 35.09375 11.1875 32.09375 6.59375 
C 29.59375 2.484375 25.703125 0.390625 21.40625 0.390625 
C 14.796875 0.390625 8.09375 4.984375 6.296875 12.6875 
C 6.703125 12.59375 7.5 12.390625 7.90625 12.390625 
C 9.203125 12.390625 11.703125 13.09375 11.703125 16.1875 
C 11.703125 18.890625 9.796875 20 7.90625 20 
C 5.59375 20 4.09375 18.59375 4.09375 15.796875 
C 4.09375 7.09375 11 -2 21.59375 -2 
C 31.90625 -2 41.703125 6.890625 41.703125 19.796875 
C 41.703125 32.09375 33.90625 41.59375 24.203125 41.59375 
C 19.09375 41.59375 14.796875 39.6875 11.40625 36 
z
" id="CMR17-53"/>
       </defs>
       <use transform="scale(0.996264)" xlink:href="#CMR17-50"/>
       <use transform="translate(45.690477 0)scale(0.996264)" xlink:href="#CMMI12-58"/>
       <use transform="translate(72.787654 0)scale(0.996264)" xlink:href="#CMR17-53"/>
      </g>
     </g>
    </g>
    <g id="ytick_3">
     <g id="line2d_11">
      <g>
       <use style="stroke:#000000;stroke-width:0.8;" x="67.889914" xlink:href="#m59e8e67a91" y="202.692699"/>
      </g>
     </g>
     <g id="text_12">
      <!-- $\mathdefault{5.0}$ -->
      <g transform="translate(32.455163 210.994902)scale(0.24 -0.24)">
       <use transform="scale(0.996264)" xlink:href="#CMR17-53"/>
       <use transform="translate(45.690477 0)scale(0.996264)" xlink:href="#CMMI12-58"/>
       <use transform="translate(72.787654 0)scale(0.996264)" xlink:href="#CMR17-48"/>
      </g>
     </g>
    </g>
    <g id="text_13">
     <!-- Log clonotype size $n$ -->
     <g transform="translate(23.804405 350.394194)rotate(-90)scale(0.24 -0.24)">
      <defs>
       <path d="M 54.203125 25.1875 
L 52.40625 25.1875 
C 51.59375 15.328125 50.296875 2.59375 33.203125 2.59375 
L 23.90625 2.59375 
C 19.90625 2.59375 19.703125 3.09375 19.703125 6.46875 
L 19.703125 60.8125 
C 19.703125 64.390625 19.90625 65.390625 27.5 65.390625 
L 29.703125 65.390625 
L 29.703125 68 
C 25.59375 67.796875 20.796875 67.796875 16.703125 67.796875 
C 13.59375 67.796875 8 67.796875 5.09375 68 
L 5.09375 65.390625 
C 12 65.390625 13.09375 65.390625 13.09375 60.90625 
L 13.09375 7.078125 
C 13.09375 2.59375 12 2.59375 5.09375 2.59375 
L 5.09375 0 
L 51.796875 0 
z
" id="CMR17-76"/>
       <path d="M 43.09375 21.1875 
C 43.09375 34 33.796875 44 22.90625 44 
C 12 44 2.703125 34 2.703125 21.1875 
C 2.703125 8.59375 12 -1 22.90625 -1 
C 33.796875 -1 43.09375 8.59375 43.09375 21.1875 
z
M 22.90625 0.796875 
C 18.203125 0.796875 14.203125 3.59375 11.90625 7.5 
C 9.40625 12 9.09375 17.59375 9.09375 22 
C 9.09375 26.1875 9.296875 31.390625 11.90625 35.890625 
C 13.90625 39.1875 17.796875 42.390625 22.90625 42.390625 
C 27.40625 42.390625 31.203125 39.890625 33.59375 36.390625 
C 36.703125 31.6875 36.703125 25.09375 36.703125 22 
C 36.703125 18.09375 36.5 12.09375 33.796875 7.296875 
C 31 2.6875 26.703125 0.796875 22.90625 0.796875 
z
" id="CMR17-111"/>
       <path d="M 11.09375 18.203125 
C 13 16.6875 16.296875 15 20.296875 15 
C 28.203125 15 35 21.234375 35 29.609375 
C 35 32.234375 34.203125 36.265625 31.203125 39.390625 
C 34 42.390625 38.09375 43.390625 40.40625 43.390625 
C 40.796875 43.390625 41.40625 43.390625 41.90625 43.09375 
C 41.5 42.984375 40.59375 42.59375 40.59375 40.984375 
C 40.59375 39.6875 41.5 38.796875 42.796875 38.796875 
C 44.296875 38.796875 45.09375 39.796875 45.09375 41.09375 
C 45.09375 42.984375 43.59375 45 40.40625 45 
C 36.40625 45 32.90625 43.09375 30.09375 40.484375 
C 27.09375 43.1875 23.5 44.1875 20.296875 44.1875 
C 12.40625 44.1875 5.59375 37.984375 5.59375 29.609375 
C 5.59375 23.859375 8.90625 20.21875 9.90625 19.21875 
C 6.90625 15.6875 6.90625 11.59375 6.90625 11.09375 
C 6.90625 8.5 7.90625 4.6875 11.296875 2.59375 
C 6.09375 1.28125 2 -2.875 2 -8.078125 
C 2 -15.5625 11.5 -21 22.90625 -21 
C 33.90625 -21 43.796875 -15.765625 43.796875 -7.96875 
C 43.796875 6 29 6 21.296875 6 
C 19 6 14.90625 6 14.40625 6.09375 
C 11.296875 6.59375 9.203125 9.390625 9.203125 12.890625 
C 9.203125 13.796875 9.203125 16 11.09375 18.203125 
z
M 20.296875 16.6875 
C 11.5 16.6875 11.5 27.59375 11.5 29.609375 
C 11.5 31.625 11.5 42.484375 20.296875 42.484375 
C 29.09375 42.484375 29.09375 31.625 29.09375 29.609375 
C 29.09375 27.59375 29.09375 16.6875 20.296875 16.6875 
z
M 22.90625 -19.3125 
C 12.90625 -19.3125 6 -13.796875 6 -8.078125 
C 6 -4.859375 7.703125 -1.84375 9.90625 -0.171875 
C 12.40625 1.59375 13.40625 1.59375 20.203125 1.59375 
C 28.40625 1.59375 39.796875 1.59375 39.796875 -8.078125 
C 39.796875 -13.796875 32.90625 -19.3125 22.90625 -19.3125 
z
" id="CMR17-103"/>
       <path d="M 34.90625 35 
C 33 35 30.203125 35 30.203125 31.484375 
C 30.203125 28.6875 32.5 27.890625 33.796875 27.890625 
C 34.5 27.890625 37.40625 28.1875 37.40625 31.6875 
C 37.40625 38.6875 30.59375 44 22.90625 44 
C 12.296875 44 3.296875 34.390625 3.296875 21.546875 
C 3.296875 8.140625 12.703125 -1 22.90625 -1 
C 35.296875 -1 38.40625 10.5625 38.40625 11.671875 
C 38.40625 12.078125 38.296875 12.375 37.59375 12.375 
C 36.90625 12.375 36.796875 12.28125 36.40625 10.96875 
C 33.796875 2.8125 28.09375 0.796875 23.796875 0.796875 
C 17.40625 0.796875 9.703125 6.734375 9.703125 21.640625 
C 9.703125 36.84375 17.09375 42.1875 23 42.1875 
C 26.90625 42.1875 32.703125 40.34375 34.90625 35 
z
" id="CMR17-99"/>
       <path d="M 15.296875 69 
L 3.40625 67.890625 
L 3.40625 65.296875 
C 9.296875 65.296875 10.203125 64.703125 10.203125 59.921875 
L 10.203125 6.859375 
C 10.203125 3.09375 9.796875 2.59375 3.40625 2.59375 
L 3.40625 0 
C 5.796875 0.1875 10.203125 0.1875 12.703125 0.1875 
C 15.296875 0.1875 19.703125 0.1875 22.09375 0 
L 22.09375 2.59375 
C 15.703125 2.59375 15.296875 2.984375 15.296875 6.859375 
z
" id="CMR17-108"/>
       <path d="M 41.5 30.53125 
C 41.5 35.65625 40.5 44 28.703125 44 
C 20.796875 44 16.703125 37.875 15.203125 33.84375 
L 15.09375 33.84375 
L 15.09375 44 
L 3.296875 42.890625 
L 3.296875 40.28125 
C 9.203125 40.28125 10.09375 39.6875 10.09375 34.859375 
L 10.09375 6.921875 
C 10.09375 3.09375 9.703125 2.59375 3.296875 2.59375 
L 3.296875 0 
C 5.703125 0.1875 10.09375 0.1875 12.703125 0.1875 
C 15.296875 0.1875 19.796875 0.1875 22.203125 0 
L 22.203125 2.59375 
C 15.796875 2.59375 15.40625 3 15.40625 6.921875 
L 15.40625 26.21875 
C 15.40625 35.453125 21 42.390625 28 42.390625 
C 35.40625 42.390625 36.203125 35.765625 36.203125 30.9375 
L 36.203125 6.921875 
C 36.203125 3.09375 35.796875 2.59375 29.40625 2.59375 
L 29.40625 0 
C 31.796875 0.1875 36.203125 0.1875 38.796875 0.1875 
C 41.40625 0.1875 45.90625 0.1875 48.296875 0 
L 48.296875 2.59375 
C 41.90625 2.59375 41.5 3 41.5 6.921875 
z
" id="CMR17-110"/>
       <path d="M 15.09375 40.390625 
L 29.09375 40.390625 
L 29.09375 43 
L 15.09375 43 
L 15.09375 62 
L 13.296875 62 
C 13.09375 51.4375 9.59375 42.1875 1.09375 41.984375 
L 1.09375 40.390625 
L 9.796875 40.390625 
L 9.796875 12.15625 
C 9.796875 10.234375 9.796875 -1 21.40625 -1 
C 27.296875 -1 30.703125 4.8125 30.703125 12.25 
L 30.703125 17.984375 
L 28.90625 17.984375 
L 28.90625 12.34375 
C 28.90625 5.421875 26.203125 0.796875 22 0.796875 
C 19.09375 0.796875 15.09375 2.796875 15.09375 11.953125 
z
" id="CMR17-116"/>
       <path d="M 39 34.109375 
C 41.5 40.296875 46 40.390625 47.40625 40.390625 
L 47.40625 43 
C 45.5 42.890625 43 42.796875 41.09375 42.796875 
C 39 42.796875 35.703125 42.796875 33.703125 43 
L 33.703125 40.390625 
C 37.5 40.09375 37.59375 37.25 37.59375 36.4375 
C 37.59375 35.4375 37.40625 34.921875 36.90625 33.71875 
L 26 6.390625 
L 14.09375 35.9375 
C 13.59375 37.15625 13.59375 37.859375 13.59375 37.96875 
C 13.59375 40.1875 15.90625 40.390625 18.296875 40.390625 
L 18.296875 43 
C 15.90625 42.796875 11.59375 42.796875 9.09375 42.796875 
C 6.40625 42.796875 3.203125 42.796875 1 43 
L 1 40.390625 
C 6.40625 40.390625 7 39.890625 8.296875 36.640625 
L 23.203125 -0.484375 
C 18.703125 -12.421875 16.09375 -19.40625 9.796875 -19.40625 
C 8.703125 -19.40625 6.203125 -19.109375 4.40625 -17.28125 
C 6.703125 -17.078125 7.703125 -15.65625 7.703125 -13.9375 
C 7.703125 -12.21875 6.5 -10.703125 4.5 -10.703125 
C 2.296875 -10.703125 1.203125 -12.21875 1.203125 -14.046875 
C 1.203125 -18.09375 5.296875 -21 9.796875 -21 
C 15.59375 -21 19.203125 -15.359375 21.203125 -10.296875 
z
" id="CMR17-121"/>
       <path d="M 22 -17.40625 
C 15.59375 -17.40625 15.203125 -17 15.203125 -13.03125 
L 15.203125 5.9375 
C 18.09375 1.703125 22.296875 -1 27.59375 -1 
C 37.59375 -1 47.703125 7.859375 47.703125 21.59375 
C 47.703125 34.3125 39 44 28.703125 44 
C 22.703125 44 17.796875 40.671875 15 36.640625 
L 15 44 
L 3.09375 42.890625 
L 3.09375 40.265625 
C 9 40.265625 9.90625 39.671875 9.90625 34.8125 
L 9.90625 -13.03125 
C 9.90625 -16.890625 9.5 -17.40625 3.09375 -17.40625 
L 3.09375 -20 
C 5.5 -19.8125 9.90625 -19.8125 12.5 -19.8125 
C 15.09375 -19.8125 19.59375 -19.8125 22 -20 
z
M 15.203125 31.484375 
C 15.203125 32.90625 15.203125 35.015625 19.09375 38.765625 
C 19.59375 39.15625 23 42.1875 28 42.1875 
C 35.296875 42.1875 41.296875 33 41.296875 21.5 
C 41.296875 9.984375 34.90625 0.59375 27 0.59375 
C 23.40625 0.59375 19.5 2.3125 16.5 7.046875 
C 15.203125 9.28125 15.203125 9.875 15.203125 11.5 
z
" id="CMR17-112"/>
       <path d="M 30.90625 42 
C 30.90625 43.796875 30.796875 43.890625 30.203125 43.890625 
C 29.796875 43.890625 29.703125 43.796875 28.5 42.296875 
C 28.203125 41.890625 27.296875 40.890625 27 40.5 
C 23.796875 43.890625 19.296875 44 17.59375 44 
C 6.5 44 2.5 38.1875 2.5 32.390625 
C 2.5 23.390625 12.703125 21.296875 15.59375 20.6875 
C 21.90625 19.390625 24.09375 19 26.203125 17.1875 
C 27.5 16 29.703125 13.796875 29.703125 10.1875 
C 29.703125 6 27.296875 0.59375 18.09375 0.59375 
C 9.40625 0.59375 6.296875 7.1875 4.5 16 
C 4.203125 17.390625 4.203125 17.5 3.40625 17.5 
C 2.59375 17.5 2.5 17.390625 2.5 15.390625 
L 2.5 1 
C 2.5 -0.8125 2.59375 -0.90625 3.203125 -0.90625 
C 3.703125 -0.90625 3.796875 -0.8125 4.296875 0 
C 4.90625 0.890625 6.40625 3.296875 7 4.296875 
C 9 1.59375 12.5 -1 18.09375 -1 
C 28 -1 33.296875 4.390625 33.296875 12.1875 
C 33.296875 17.296875 30.59375 20 29.296875 21.1875 
C 26.296875 24.296875 22.796875 25 18.59375 25.796875 
C 13.09375 27 6.09375 28.390625 6.09375 34.5 
C 6.09375 37.09375 7.5 42.59375 17.59375 42.59375 
C 28.296875 42.59375 28.90625 32.59375 29.09375 29.390625 
C 29.203125 28.890625 29.703125 28.796875 30 28.796875 
C 30.90625 28.796875 30.90625 29.09375 30.90625 30.796875 
z
" id="CMR17-115"/>
       <path d="M 36.09375 40.6875 
C 36.90625 41.6875 36.90625 41.890625 36.90625 42.09375 
C 36.90625 43 36.5 43 34.703125 43 
L 4.296875 43 
L 3.296875 27.5 
L 5.09375 27.5 
C 5.796875 37.1875 6.90625 41.390625 18.40625 41.390625 
L 30.59375 41.390625 
L 2 1.5 
C 2 0.09375 2.09375 0 4.203125 0 
L 35.796875 0 
L 37.203125 18 
L 35.40625 18 
C 34.59375 6.890625 33.296875 1.796875 21.09375 1.796875 
L 8.296875 1.796875 
z
" id="CMR17-122"/>
       <path d="M 20.59375 29.21875 
C 20.796875 29.828125 23.296875 34.8125 27 38 
C 29.59375 40.390625 33 41.984375 36.90625 41.984375 
C 40.90625 41.984375 42.296875 39 42.296875 35.015625 
C 42.296875 29.328125 38.203125 17.953125 36.203125 12.5625 
C 35.296875 10.171875 34.796875 8.875 34.796875 7.078125 
C 34.796875 2.59375 37.90625 -1 42.703125 -1 
C 52 -1 55.5 13.65625 55.5 14.265625 
C 55.5 14.765625 55.09375 15.15625 54.5 15.15625 
C 53.59375 15.15625 53.5 14.859375 53 13.15625 
C 50.703125 4.984375 46.90625 1 43 1 
C 42 1 40.40625 1.09375 40.40625 4.28125 
C 40.40625 6.78125 41.5 9.765625 42.09375 11.171875 
C 44.09375 16.65625 48.296875 27.828125 48.296875 33.515625 
C 48.296875 39.5 44.796875 44 37.203125 44 
C 28.296875 44 23.59375 37.703125 21.796875 35.203125 
C 21.5 40.890625 17.40625 44 13 44 
C 9.796875 44 7.59375 42.09375 5.90625 38.703125 
C 4.09375 35.109375 2.703125 29.125 2.703125 28.71875 
C 2.703125 28.328125 3.09375 27.828125 3.796875 27.828125 
C 4.59375 27.828125 4.703125 27.921875 5.296875 30.21875 
C 6.90625 36.3125 8.703125 41.984375 12.703125 41.984375 
C 15 41.984375 15.796875 40.390625 15.796875 37.40625 
C 15.796875 35.203125 14.796875 31.3125 14.09375 28.234375 
L 11.296875 17.453125 
C 10.90625 15.5625 9.796875 11.0625 9.296875 9.265625 
C 8.59375 6.671875 7.5 1.984375 7.5 1.484375 
C 7.5 0.09375 8.59375 -1 10.09375 -1 
C 11.296875 -1 12.703125 -0.40625 13.5 1.09375 
C 13.703125 1.59375 14.59375 5.078125 15.09375 7.078125 
L 17.296875 16.0625 
z
" id="CMMI12-110"/>
      </defs>
      <use transform="scale(0.996264)" xlink:href="#CMR17-76"/>
      <use transform="translate(57.381408 0)scale(0.996264)" xlink:href="#CMR17-111"/>
      <use transform="translate(103.071885 0)scale(0.996264)" xlink:href="#CMR17-103"/>
      <use transform="translate(178.838328 0)scale(0.996264)" xlink:href="#CMR17-99"/>
      <use transform="translate(219.323989 0)scale(0.996264)" xlink:href="#CMR17-108"/>
      <use transform="translate(244.195047 0)scale(0.996264)" xlink:href="#CMR17-111"/>
      <use transform="translate(289.885524 0)scale(0.996264)" xlink:href="#CMR17-110"/>
      <use transform="translate(340.780894 0)scale(0.996264)" xlink:href="#CMR17-111"/>
      <use transform="translate(386.471371 0)scale(0.996264)" xlink:href="#CMR17-116"/>
      <use transform="translate(419.149685 0)scale(0.996264)" xlink:href="#CMR17-121"/>
      <use transform="translate(467.442601 0)scale(0.996264)" xlink:href="#CMR17-112"/>
      <use transform="translate(520.94041 0)scale(0.996264)" xlink:href="#CMR17-101"/>
      <use transform="translate(591.502036 0)scale(0.996264)" xlink:href="#CMR17-115"/>
      <use transform="translate(627.303374 0)scale(0.996264)" xlink:href="#CMR17-105"/>
      <use transform="translate(652.174433 0)scale(0.996264)" xlink:href="#CMR17-122"/>
      <use transform="translate(692.660093 0)scale(0.996264)" xlink:href="#CMR17-101"/>
      <use transform="translate(763.22172 0)scale(0.996264)" xlink:href="#CMMI12-110"/>
     </g>
    </g>
   </g>
   <g id="line2d_12">
    <path clip-path="url(#p211bde69de)" d="M 67.889914 333.36 
L 74.864914 315.245666 
L 81.839914 304.64946 
L 88.814914 315.245666 
L 95.789914 315.245666 
L 102.764914 304.64946 
L 109.739914 291.299818 
L 116.714914 275.938919 
L 123.689914 264.3923 
L 130.664914 251.418687 
L 137.639914 249.239637 
L 144.614914 241.203998 
L 151.589914 236.311512 
L 158.564914 229.114044 
L 165.539914 234.466031 
L 172.514914 228.634518 
L 179.489914 222.332119 
L 186.464914 215.190019 
L 193.439914 208.907917 
L 200.414914 204.031781 
L 207.389914 198.99054 
L 214.364914 203.663698 
L 221.339914 206.154483 
L 228.314914 209.816999 
L 235.289914 214.35144 
L 242.264914 220.879886 
L 249.239914 226.36061 
L 256.214914 232.742321 
L 263.189914 235.066827 
L 270.164914 238.994221 
L 277.139914 243.618032 
L 284.114914 244.474944 
L 291.089914 251.418687 
L 298.064914 256.411621 
L 305.039914 259.318332 
L 312.014914 264.3923 
L 318.989914 273.185484 
L 325.964914 279.016997 
L 332.939914 279.016997 
L 339.914914 286.535125 
L 346.889914 297.131332 
L 353.864914 297.131332 
L 360.839914 297.131332 
L 367.814914 297.131332 
L 374.789914 297.131332 
L 381.764914 297.131332 
L 388.739914 304.64946 
L 388.739914 359.49346 
" style="fill:none;stroke:#000000;stroke-linecap:square;stroke-width:1.5;"/>
    <defs>
     <path d="M 0 3 
C 0.795609 3 1.55874 2.683901 2.12132 2.12132 
C 2.683901 1.55874 3 0.795609 3 0 
C 3 -0.795609 2.683901 -1.55874 2.12132 -2.12132 
C 1.55874 -2.683901 0.795609 -3 0 -3 
C -0.795609 -3 -1.55874 -2.683901 -2.12132 -2.12132 
C -2.683901 -1.55874 -3 -0.795609 -3 0 
C -3 0.795609 -2.683901 1.55874 -2.12132 2.12132 
C -1.55874 2.683901 -0.795609 3 0 3 
z
" id="m8a959d7514" style="stroke:#000000;"/>
    </defs>
    <g clip-path="url(#p211bde69de)">
     <use style="fill:#ffffff;stroke:#000000;" x="67.889914" xlink:href="#m8a959d7514" y="333.36"/>
     <use style="fill:#ffffff;stroke:#000000;" x="74.864914" xlink:href="#m8a959d7514" y="315.245666"/>
     <use style="fill:#ffffff;stroke:#000000;" x="81.839914" xlink:href="#m8a959d7514" y="304.64946"/>
     <use style="fill:#ffffff;stroke:#000000;" x="88.814914" xlink:href="#m8a959d7514" y="315.245666"/>
     <use style="fill:#ffffff;stroke:#000000;" x="95.789914" xlink:href="#m8a959d7514" y="315.245666"/>
     <use style="fill:#ffffff;stroke:#000000;" x="102.764914" xlink:href="#m8a959d7514" y="304.64946"/>
     <use style="fill:#ffffff;stroke:#000000;" x="109.739914" xlink:href="#m8a959d7514" y="291.299818"/>
     <use style="fill:#ffffff;stroke:#000000;" x="116.714914" xlink:href="#m8a959d7514" y="275.938919"/>
     <use style="fill:#ffffff;stroke:#000000;" x="123.689914" xlink:href="#m8a959d7514" y="264.3923"/>
     <use style="fill:#ffffff;stroke:#000000;" x="130.664914" xlink:href="#m8a959d7514" y="251.418687"/>
     <use style="fill:#ffffff;stroke:#000000;" x="137.639914" xlink:href="#m8a959d7514" y="249.239637"/>
     <use style="fill:#ffffff;stroke:#000000;" x="144.614914" xlink:href="#m8a959d7514" y="241.203998"/>
     <use style="fill:#ffffff;stroke:#000000;" x="151.589914" xlink:href="#m8a959d7514" y="236.311512"/>
     <use style="fill:#ffffff;stroke:#000000;" x="158.564914" xlink:href="#m8a959d7514" y="229.114044"/>
     <use style="fill:#ffffff;stroke:#000000;" x="165.539914" xlink:href="#m8a959d7514" y="234.466031"/>
     <use style="fill:#ffffff;stroke:#000000;" x="172.514914" xlink:href="#m8a959d7514" y="228.634518"/>
     <use style="fill:#ffffff;stroke:#000000;" x="179.489914" xlink:href="#m8a959d7514" y="222.332119"/>
     <use style="fill:#ffffff;stroke:#000000;" x="186.464914" xlink:href="#m8a959d7514" y="215.190019"/>
     <use style="fill:#ffffff;stroke:#000000;" x="193.439914" xlink:href="#m8a959d7514" y="208.907917"/>
     <use style="fill:#ffffff;stroke:#000000;" x="200.414914" xlink:href="#m8a959d7514" y="204.031781"/>
     <use style="fill:#ffffff;stroke:#000000;" x="207.389914" xlink:href="#m8a959d7514" y="198.99054"/>
     <use style="fill:#ffffff;stroke:#000000;" x="214.364914" xlink:href="#m8a959d7514" y="203.663698"/>
     <use style="fill:#ffffff;stroke:#000000;" x="221.339914" xlink:href="#m8a959d7514" y="206.154483"/>
     <use style="fill:#ffffff;stroke:#000000;" x="228.314914" xlink:href="#m8a959d7514" y="209.816999"/>
     <use style="fill:#ffffff;stroke:#000000;" x="235.289914" xlink:href="#m8a959d7514" y="214.35144"/>
     <use style="fill:#ffffff;stroke:#000000;" x="242.264914" xlink:href="#m8a959d7514" y="220.879886"/>
     <use style="fill:#ffffff;stroke:#000000;" x="249.239914" xlink:href="#m8a959d7514" y="226.36061"/>
     <use style="fill:#ffffff;stroke:#000000;" x="256.214914" xlink:href="#m8a959d7514" y="232.742321"/>
     <use style="fill:#ffffff;stroke:#000000;" x="263.189914" xlink:href="#m8a959d7514" y="235.066827"/>
     <use style="fill:#ffffff;stroke:#000000;" x="270.164914" xlink:href="#m8a959d7514" y="238.994221"/>
     <use style="fill:#ffffff;stroke:#000000;" x="277.139914" xlink:href="#m8a959d7514" y="243.618032"/>
     <use style="fill:#ffffff;stroke:#000000;" x="284.114914" xlink:href="#m8a959d7514" y="244.474944"/>
     <use style="fill:#ffffff;stroke:#000000;" x="291.089914" xlink:href="#m8a959d7514" y="251.418687"/>
     <use style="fill:#ffffff;stroke:#000000;" x="298.064914" xlink:href="#m8a959d7514" y="256.411621"/>
     <use style="fill:#ffffff;stroke:#000000;" x="305.039914" xlink:href="#m8a959d7514" y="259.318332"/>
     <use style="fill:#ffffff;stroke:#000000;" x="312.014914" xlink:href="#m8a959d7514" y="264.3923"/>
     <use style="fill:#ffffff;stroke:#000000;" x="318.989914" xlink:href="#m8a959d7514" y="273.185484"/>
     <use style="fill:#ffffff;stroke:#000000;" x="325.964914" xlink:href="#m8a959d7514" y="279.016997"/>
     <use style="fill:#ffffff;stroke:#000000;" x="332.939914" xlink:href="#m8a959d7514" y="279.016997"/>
     <use style="fill:#ffffff;stroke:#000000;" x="339.914914" xlink:href="#m8a959d7514" y="286.535125"/>
     <use style="fill:#ffffff;stroke:#000000;" x="346.889914" xlink:href="#m8a959d7514" y="297.131332"/>
     <use style="fill:#ffffff;stroke:#000000;" x="353.864914" xlink:href="#m8a959d7514" y="297.131332"/>
     <use style="fill:#ffffff;stroke:#000000;" x="360.839914" xlink:href="#m8a959d7514" y="297.131332"/>
     <use style="fill:#ffffff;stroke:#000000;" x="367.814914" xlink:href="#m8a959d7514" y="297.131332"/>
     <use style="fill:#ffffff;stroke:#000000;" x="374.789914" xlink:href="#m8a959d7514" y="297.131332"/>
     <use style="fill:#ffffff;stroke:#000000;" x="381.764914" xlink:href="#m8a959d7514" y="297.131332"/>
     <use style="fill:#ffffff;stroke:#000000;" x="388.739914" xlink:href="#m8a959d7514" y="304.64946"/>
     <use style="fill:#ffffff;stroke:#000000;" x="388.739914" xlink:href="#m8a959d7514" y="359.49346"/>
    </g>
   </g>
   <g id="line2d_13">
    <path clip-path="url(#p211bde69de)" d="M 207.389914 333.36 
L 207.389914 170.28 
" style="fill:none;stroke:#808080;stroke-dasharray:5.55,2.4;stroke-dashoffset:0;stroke-width:1.5;"/>
   </g>
   <g id="line2d_14">
    <path clip-path="url(#p211bde69de)" d="M 123.689914 214.61409 
L 151.589914 189.217993 
" style="fill:none;stroke:#000000;stroke-linecap:square;stroke-width:1.2;"/>
   </g>
   <g id="line2d_15">
    <path clip-path="url(#p211bde69de)" d="M 151.589914 214.61409 
L 151.589914 189.217993 
" style="fill:none;stroke:#000000;stroke-linecap:square;stroke-width:1.2;"/>
   </g>
   <g id="line2d_16">
    <path clip-path="url(#p211bde69de)" d="M 123.689914 214.61409 
L 151.589914 214.61409 
" style="fill:none;stroke:#000000;stroke-linecap:square;stroke-width:1.2;"/>
   </g>
   <g id="line2d_17">
    <path clip-path="url(#p211bde69de)" d="M 263.189914 214.61409 
L 291.089914 231.602818 
" style="fill:none;stroke:#000000;stroke-linecap:square;stroke-width:1.2;"/>
   </g>
   <g id="line2d_18">
    <path clip-path="url(#p211bde69de)" d="M 263.189914 214.61409 
L 263.189914 231.602818 
" style="fill:none;stroke:#000000;stroke-linecap:square;stroke-width:1.2;"/>
   </g>
   <g id="line2d_19">
    <path clip-path="url(#p211bde69de)" d="M 263.189914 231.602818 
L 291.089914 231.602818 
" style="fill:none;stroke:#000000;stroke-linecap:square;stroke-width:1.2;"/>
   </g>
   <g id="patch_5">
    <path d="M 67.889914 333.36 
L 67.889914 170.28 
" style="fill:none;stroke:#000000;stroke-linecap:square;stroke-linejoin:miter;stroke-width:0.8;"/>
   </g>
   <g id="patch_6">
    <path d="M 402.689914 333.36 
L 402.689914 170.28 
" style="fill:none;stroke:#000000;stroke-linecap:square;stroke-linejoin:miter;stroke-width:0.8;"/>
   </g>
   <g id="patch_7">
    <path d="M 67.889914 333.36 
L 402.689914 333.36 
" style="fill:none;stroke:#000000;stroke-linecap:square;stroke-linejoin:miter;stroke-width:0.8;"/>
   </g>
   <g id="patch_8">
    <path d="M 67.889914 170.28 
L 402.689914 170.28 
" style="fill:none;stroke:#000000;stroke-linecap:square;stroke-linejoin:miter;stroke-width:0.8;"/>
   </g>
   <g id="text_14">
    <!-- $\ln n^*$ -->
    <g transform="translate(221.339914 193.159027)scale(0.24 -0.24)">
     <use transform="scale(0.996264)" xlink:href="#CMR17-108"/>
     <use transform="translate(24.871058 0)scale(0.996264)" xlink:href="#CMR17-110"/>
     <use transform="translate(92.370833 0)scale(0.996264)" xlink:href="#CMMI12-110"/>
     <use transform="translate(150.600881 36.153639)scale(0.697382)" xlink:href="#CMSY10-3"/>
    </g>
   </g>
   <g id="text_15">
    <!-- $\ln \Gamma$ -->
    <g transform="translate(102.764914 191.971428)scale(0.24 -0.24)">
     <defs>
      <path d="M 51.796875 68 
L 5.09375 68 
L 5.09375 65.390625 
C 12 65.390625 13.09375 65.390625 13.09375 60.890625 
L 13.09375 7.078125 
C 13.09375 2.59375 12 2.59375 5.09375 2.59375 
L 5.09375 0 
C 8 0.1875 13.59375 0.1875 16.703125 0.1875 
C 20.796875 0.1875 25.59375 0.1875 29.703125 0 
L 29.703125 2.59375 
L 27.5 2.59375 
C 19.90625 2.59375 19.703125 3.59375 19.703125 7.1875 
L 19.703125 61.5 
C 19.703125 64.890625 19.90625 65.390625 23.90625 65.390625 
L 34.90625 65.390625 
C 50.09375 65.390625 50.90625 58.40625 52.40625 45.921875 
L 54.203125 45.921875 
z
" id="CMR17-0"/>
     </defs>
     <use transform="scale(0.996264)" xlink:href="#CMR17-108"/>
     <use transform="translate(24.871058 0)scale(0.996264)" xlink:href="#CMR17-110"/>
     <use transform="translate(92.370833 0)scale(0.996264)" xlink:href="#CMR17-0"/>
    </g>
   </g>
   <g id="text_16">
    <!-- $1$ -->
    <g transform="translate(102.764914 217.367525)scale(0.24 -0.24)">
     <defs>
      <path d="M 26.59375 63.796875 
C 26.59375 65.890625 26.5 66 25.09375 66 
C 21.203125 61.359375 15.296875 59.890625 9.703125 59.6875 
C 9.40625 59.6875 8.90625 59.6875 8.796875 59.5 
C 8.703125 59.296875 8.703125 59.09375 8.703125 57 
C 11.796875 57 17 57.59375 21 59.984375 
L 21 7.296875 
C 21 3.796875 20.796875 2.59375 12.203125 2.59375 
L 9.203125 2.59375 
L 9.203125 0 
C 14 0.09375 19 0.1875 23.796875 0.1875 
C 28.59375 0.1875 33.59375 0.09375 38.40625 0 
L 38.40625 2.59375 
L 35.40625 2.59375 
C 26.796875 2.59375 26.59375 3.6875 26.59375 7.296875 
z
" id="CMR17-49"/>
     </defs>
     <use transform="scale(0.996264)" xlink:href="#CMR17-49"/>
    </g>
   </g>
   <g id="text_17">
    <!-- $\ln \gamma$ -->
    <g transform="translate(305.039914 234.356253)scale(0.24 -0.24)">
     <defs>
      <path d="M 37.796875 12.265625 
C 37.59375 17.140625 37.40625 24.78125 33.59375 33.71875 
C 31.59375 38.6875 28.203125 44 20.90625 44 
C 8.59375 44 1.90625 28.359375 1.90625 25.765625 
C 1.90625 24.875 2.59375 24.875 2.90625 24.875 
C 3.796875 24.875 3.796875 25.078125 4.296875 26.375 
C 6.40625 32.515625 12.796875 37.390625 19.703125 37.390625 
C 33.59375 37.390625 35.59375 22 35.59375 12.171875 
C 35.59375 5.90625 34.90625 3.828125 34.296875 1.84375 
C 32.40625 -4.3125 29.09375 -16.625 29.09375 -19.40625 
C 29.09375 -20.203125 29.40625 -21.109375 30.203125 -21.109375 
C 31.703125 -21.109375 32.59375 -17.8125 33.703125 -13.84375 
C 36.09375 -5.109375 36.703125 -0.734375 37.203125 3.234375 
C 37.5 5.625 43.203125 22.015625 51.09375 37.609375 
C 51.796875 39.203125 53.203125 41.890625 53.203125 42.1875 
C 53.203125 42.296875 53.09375 43 52.203125 43 
C 52 43 51.5 43 51.296875 42.59375 
C 51.09375 42.390625 47.59375 35.625 44.59375 28.875 
C 43.09375 25.46875 41.09375 21 37.796875 12.265625 
z
" id="CMMI12-13"/>
     </defs>
     <use transform="scale(0.996264)" xlink:href="#CMR17-108"/>
     <use transform="translate(24.871058 0)scale(0.996264)" xlink:href="#CMR17-110"/>
     <use transform="translate(92.370833 0)scale(0.996264)" xlink:href="#CMMI12-13"/>
    </g>
   </g>
   <g id="text_18">
    <!-- $1$ -->
    <g transform="translate(305.039914 217.367525)scale(0.24 -0.24)">
     <use transform="scale(0.996264)" xlink:href="#CMR17-49"/>
    </g>
   </g>
  </g>
 </g>
 <defs>
  <clipPath id="p99fae2a474">
   <rect height="163.08" width="334.8" x="67.889914" y="7.2"/>
  </clipPath>
  <clipPath id="p211bde69de">
   <rect height="163.08" width="334.8" x="67.889914" y="170.28"/>
  </clipPath>
 </defs>
</svg>
