<?xml version="1.0" encoding="utf-8" standalone="no"?>
<!DOCTYPE svg PUBLIC "-//W3C//DTD SVG 1.1//EN"
  "http://www.w3.org/Graphics/SVG/1.1/DTD/svg11.dtd">
<!-- Created with matplotlib (https://matplotlib.org/) -->
<svg height="204.776471pt" version="1.1" viewBox="0 0 661.68 204.776471" width="661.68pt" xmlns="http://www.w3.org/2000/svg" xmlns:xlink="http://www.w3.org/1999/xlink">
 <metadata>
  <rdf:RDF xmlns:cc="http://creativecommons.org/ns#" xmlns:dc="http://purl.org/dc/elements/1.1/" xmlns:rdf="http://www.w3.org/1999/02/22-rdf-syntax-ns#">
   <cc:Work>
    <dc:type rdf:resource="http://purl.org/dc/dcmitype/StillImage"/>
    <dc:date>2021-08-23T16:41:36.559917</dc:date>
    <dc:format>image/svg+xml</dc:format>
    <dc:creator>
     <cc:Agent>
      <dc:title>Matplotlib v3.3.4, https://matplotlib.org/</dc:title>
     </cc:Agent>
    </dc:creator>
   </cc:Work>
  </rdf:RDF>
 </metadata>
 <defs>
  <style type="text/css">*{stroke-linecap:butt;stroke-linejoin:round;}</style>
 </defs>
 <g id="figure_1">
  <g id="patch_1">
   <path d="M 0 204.776471 
L 661.68 204.776471 
L 661.68 0 
L 0 0 
z
" style="fill:none;"/>
  </g>
  <g id="axes_1">
   <g id="patch_2">
    <path clip-path="url(#pd09cd3ca95)" d="M 361.300235 102.388235 
L 349.877647 108.099529 
L 349.877647 102.6738 
L 7.2 102.6738 
L 7.2 102.102671 
L 349.877647 102.102671 
L 349.877647 96.676941 
z
" style="stroke:#000000;stroke-linejoin:miter;"/>
   </g>
   <g id="patch_3">
    <path clip-path="url(#pd09cd3ca95)" d="M 45.275294 92.869412 
L 45.275294 92.869412 
L 45.560859 92.869412 
L 45.560859 111.907059 
L 44.989729 111.907059 
L 44.989729 92.869412 
L 45.275294 92.869412 
z
" style="stroke:#000000;stroke-linejoin:miter;"/>
   </g>
   <g id="patch_4">
    <path clip-path="url(#pd09cd3ca95)" d="M 140.463529 92.869412 
L 140.463529 92.869412 
L 140.749094 92.869412 
L 140.749094 111.907059 
L 140.177965 111.907059 
L 140.177965 92.869412 
L 140.463529 92.869412 
z
" style="stroke:#000000;stroke-linejoin:miter;"/>
   </g>
   <g id="patch_5">
    <path clip-path="url(#pd09cd3ca95)" d="M 235.651765 92.869412 
L 235.651765 92.869412 
L 235.937329 92.869412 
L 235.937329 111.907059 
L 235.3662 111.907059 
L 235.3662 92.869412 
L 235.651765 92.869412 
z
" style="stroke:#000000;stroke-linejoin:miter;"/>
   </g>
   <g id="patch_6">
    <path clip-path="url(#pd09cd3ca95)" d="M 262.304471 87.158118 
L 271.823294 87.158118 
L 271.823294 77.639294 
L 262.304471 77.639294 
z
" style="fill:#ff0000;stroke:#ff0000;stroke-linejoin:miter;"/>
   </g>
   <g id="patch_7">
    <path clip-path="url(#pd09cd3ca95)" d="M 155.693647 87.158118 
L 165.212471 87.158118 
L 165.212471 77.639294 
L 155.693647 77.639294 
z
" style="stroke:#000000;stroke-linejoin:miter;"/>
   </g>
   <g id="text_1">
    <!-- $P_t$ -->
    <g style="fill:#1f77b4;" transform="translate(172.827529 125.233412)scale(0.24 -0.24)">
     <defs>
      <path d="M 29.59375 31.59375 
L 46.40625 31.59375 
C 60.203125 31.59375 74 41.765625 74 53.125 
C 74 60.90625 67.40625 68 54.796875 68 
L 23.90625 68 
C 22 68 21.09375 68 21.09375 66.09375 
C 21.09375 65.09375 22 65.09375 23.5 65.09375 
C 29.59375 65.09375 29.59375 64.296875 29.59375 63.203125 
C 29.59375 63 29.59375 62.40625 29.203125 60.90625 
L 15.703125 7.359375 
C 14.796875 3.890625 14.59375 2.890625 7.59375 2.890625 
C 5.703125 2.890625 4.703125 2.890625 4.703125 1.09375 
C 4.703125 0 5.59375 0 6.203125 0 
C 8.09375 0 10.09375 0.1875 12 0.1875 
L 23.703125 0.1875 
C 25.59375 0.1875 27.703125 0 29.59375 0 
C 30.40625 0 31.5 0 31.5 1.890625 
C 31.5 2.890625 30.59375 2.890625 29.09375 2.890625 
C 23.09375 2.890625 23 3.59375 23 4.578125 
C 23 5.078125 23.09375 5.765625 23.203125 6.265625 
z
M 36.796875 61.203125 
C 37.703125 64.890625 38.09375 65.09375 42 65.09375 
L 51.90625 65.09375 
C 59.40625 65.09375 65.59375 62.703125 65.59375 55.21875 
C 65.59375 52.640625 64.296875 44.15625 59.703125 39.578125 
C 58 37.78125 53.203125 34 44.09375 34 
L 30 34 
z
" id="CMMI12-80"/>
      <path d="M 20.09375 40.09375 
L 29.296875 40.09375 
C 31.203125 40.09375 32.203125 40.09375 32.203125 41.890625 
C 32.203125 43 31.59375 43 29.59375 43 
L 20.796875 43 
L 24.5 57.25 
C 24.90625 58.625 24.90625 58.8125 24.90625 59.5 
C 24.90625 61.09375 23.59375 62 22.296875 62 
C 21.5 62 19.203125 61.6875 18.40625 58.53125 
L 14.5 43 
L 5.09375 43 
C 3.09375 43 2.203125 43 2.203125 41.09375 
C 2.203125 40.09375 2.90625 40.09375 4.796875 40.09375 
L 13.703125 40.09375 
L 7.09375 13.765625 
C 6.296875 10.265625 6 9.265625 6 7.96875 
C 6 3.28125 9.296875 -1 14.90625 -1 
C 25 -1 30.40625 13.5625 30.40625 14.265625 
C 30.40625 14.859375 30 15.15625 29.40625 15.15625 
C 29.203125 15.15625 28.796875 15.15625 28.59375 14.75 
C 28.5 14.65625 28.40625 14.5625 27.703125 12.96875 
C 25.59375 7.96875 21 1 15.203125 1 
C 12.203125 1 12 3.484375 12 5.6875 
C 12 5.78125 12 7.671875 12.296875 8.875 
z
" id="CMMI12-116"/>
     </defs>
     <use transform="scale(0.996264)" xlink:href="#CMMI12-80"/>
     <use transform="translate(62.877232 -14.943915)scale(0.697382)" xlink:href="#CMMI12-116"/>
    </g>
   </g>
   <g id="text_2">
    <!-- $P_{t-1}$ -->
    <g transform="translate(64.312941 125.233412)scale(0.24 -0.24)">
     <defs>
      <path d="M 65.90625 23 
C 67.59375 23 69.40625 23 69.40625 25 
C 69.40625 27 67.59375 27 65.90625 27 
L 11.796875 27 
C 10.09375 27 8.296875 27 8.296875 25 
C 8.296875 23 10.09375 23 11.796875 23 
z
" id="CMSY10-0"/>
      <path d="M 26.59375 63.796875 
C 26.59375 65.890625 26.5 66 25.09375 66 
C 21.203125 61.359375 15.296875 59.890625 9.703125 59.6875 
C 9.40625 59.6875 8.90625 59.6875 8.796875 59.5 
C 8.703125 59.296875 8.703125 59.09375 8.703125 57 
C 11.796875 57 17 57.59375 21 59.984375 
L 21 7.296875 
C 21 3.796875 20.796875 2.59375 12.203125 2.59375 
L 9.203125 2.59375 
L 9.203125 0 
C 14 0.09375 19 0.1875 23.796875 0.1875 
C 28.59375 0.1875 33.59375 0.09375 38.40625 0 
L 38.40625 2.59375 
L 35.40625 2.59375 
C 26.796875 2.59375 26.59375 3.6875 26.59375 7.296875 
z
" id="CMR17-49"/>
     </defs>
     <use transform="scale(0.996264)" xlink:href="#CMMI12-80"/>
     <use transform="translate(62.877232 -14.943915)scale(0.697382)" xlink:href="#CMMI12-116"/>
     <use transform="translate(87.535542 -14.943915)scale(0.697382)" xlink:href="#CMSY10-0"/>
     <use transform="translate(141.776535 -14.943915)scale(0.697382)" xlink:href="#CMR17-49"/>
    </g>
   </g>
   <g id="text_3">
    <!-- $a_t$ -->
    <g transform="translate(121.425882 83.350588)scale(0.24 -0.24)">
     <defs>
      <path d="M 30.09375 11.859375 
C 29.59375 10.171875 29.59375 9.96875 28.203125 8.078125 
C 26 5.28125 21.59375 1 16.90625 1 
C 12.796875 1 10.5 4.6875 10.5 10.5625 
C 10.5 16.0625 13.59375 27.234375 15.5 31.421875 
C 18.90625 38.40625 23.59375 41.984375 27.5 41.984375 
C 34.09375 41.984375 35.40625 33.8125 35.40625 33.015625 
C 35.40625 32.921875 35.09375 31.625 35 31.421875 
z
M 36.5 37.40625 
C 35.40625 40 32.703125 44 27.5 44 
C 16.203125 44 4 29.421875 4 14.65625 
C 4 4.78125 9.796875 -1 16.59375 -1 
C 22.09375 -1 26.796875 3.28125 29.59375 6.578125 
C 30.59375 0.6875 35.296875 -1 38.296875 -1 
C 41.296875 -1 43.703125 0.796875 45.5 4.375 
C 47.09375 7.75 48.5 13.828125 48.5 14.21875 
C 48.5 14.71875 48.09375 15.125 47.5 15.125 
C 46.59375 15.125 46.5 14.625 46.09375 13.125 
C 44.59375 7.265625 42.703125 1 38.59375 1 
C 35.703125 1 35.5 3.578125 35.5 5.5625 
C 35.5 7.859375 35.796875 8.953125 36.703125 12.828125 
C 37.40625 15.3125 37.90625 17.5 38.703125 20.390625 
C 42.40625 35.3125 43.296875 38.890625 43.296875 39.5 
C 43.296875 40.890625 42.203125 42 40.703125 42 
C 37.5 42 36.703125 38.5 36.5 37.3125 
z
" id="CMMI12-97"/>
     </defs>
     <use transform="scale(0.996264)" xlink:href="#CMMI12-97"/>
     <use transform="translate(51.207858 -14.943915)scale(0.697382)" xlink:href="#CMMI12-116"/>
    </g>
   </g>
   <g id="text_4">
    <!-- $a_{t+1}$ -->
    <g style="fill:#ff0000;" transform="translate(207.095294 83.350588)scale(0.24 -0.24)">
     <defs>
      <path d="M 37.703125 23 
L 64.203125 23 
C 65.59375 23 67.296875 23 67.296875 24.6875 
C 67.296875 26.5 65.703125 26.5 64.203125 26.5 
L 37.703125 26.5 
L 37.703125 52.890625 
C 37.703125 54.296875 37.703125 56 36 56 
C 34.203125 56 34.203125 54.390625 34.203125 52.890625 
L 34.203125 26.5 
L 7.703125 26.5 
C 6.296875 26.5 4.59375 26.5 4.59375 24.796875 
C 4.59375 23 6.203125 23 7.703125 23 
L 34.203125 23 
L 34.203125 -3.03125 
C 34.203125 -4.40625 34.203125 -6.109375 35.90625 -6.109375 
C 37.703125 -6.109375 37.703125 -4.515625 37.703125 -3.03125 
z
" id="CMR17-43"/>
     </defs>
     <use transform="scale(0.996264)" xlink:href="#CMMI12-97"/>
     <use transform="translate(51.207858 -14.943915)scale(0.697382)" xlink:href="#CMMI12-116"/>
     <use transform="translate(75.866167 -14.943915)scale(0.697382)" xlink:href="#CMR17-43"/>
     <use transform="translate(126.066299 -14.943915)scale(0.697382)" xlink:href="#CMR17-49"/>
    </g>
   </g>
   <g id="text_5">
    <!-- $t$ -->
    <g transform="translate(349.877647 83.350588)scale(0.24 -0.24)">
     <use transform="scale(0.996264)" xlink:href="#CMMI12-116"/>
    </g>
   </g>
  </g>
 </g>
 <defs>
  <clipPath id="pd09cd3ca95">
   <rect height="190.376471" width="647.28" x="7.2" y="7.2"/>
  </clipPath>
 </defs>
</svg>
