<?xml version="1.0" encoding="utf-8" standalone="no"?>
<!DOCTYPE svg PUBLIC "-//W3C//DTD SVG 1.1//EN"
  "http://www.w3.org/Graphics/SVG/1.1/DTD/svg11.dtd">
<!-- Created with matplotlib (https://matplotlib.org/) -->
<svg height="451.085499pt" version="1.1" viewBox="0 0 594.65374 451.085499" width="594.65374pt" xmlns="http://www.w3.org/2000/svg" xmlns:xlink="http://www.w3.org/1999/xlink">
 <metadata>
  <rdf:RDF xmlns:cc="http://creativecommons.org/ns#" xmlns:dc="http://purl.org/dc/elements/1.1/" xmlns:rdf="http://www.w3.org/1999/02/22-rdf-syntax-ns#">
   <cc:Work>
    <dc:type rdf:resource="http://purl.org/dc/dcmitype/StillImage"/>
    <dc:date>2021-07-19T14:28:25.672437</dc:date>
    <dc:format>image/svg+xml</dc:format>
    <dc:creator>
     <cc:Agent>
      <dc:title>Matplotlib v3.3.4, https://matplotlib.org/</dc:title>
     </cc:Agent>
    </dc:creator>
   </cc:Work>
  </rdf:RDF>
 </metadata>
 <defs>
  <style type="text/css">*{stroke-linecap:butt;stroke-linejoin:round;}</style>
 </defs>
 <g id="figure_1">
  <g id="patch_1">
   <path d="M 0 451.085499 
L 594.65374 451.085499 
L 594.65374 0 
L 0 0 
z
" style="fill:none;"/>
  </g>
  <g id="axes_1">
   <g id="patch_2">
    <path d="M 85.25374 387.72 
L 587.45374 387.72 
L 587.45374 7.2 
L 85.25374 7.2 
z
" style="fill:#ffffff;"/>
   </g>
   <g id="PolyCollection_1">
    <path clip-path="url(#p115159f3f6)" d="M 85.25374 166313.818153 
L 85.25374 25.92608 
L 96.964581 39.892888 
L 109.060637 53.859695 
L 122.641889 67.826503 
L 138.285139 81.79331 
L 155.977724 95.760118 
L 175.033056 109.726925 
L 196.043239 123.693732 
L 217.683218 137.66054 
L 239.586231 151.627347 
L 261.694357 165.594155 
L 283.493385 179.560962 
L 304.981237 193.52777 
L 325.636947 207.494577 
L 345.82595 221.461385 
L 348.144514 222.920125 
L 354.661337 227.418775 
L 360.95866 231.917426 
L 367.217703 236.416076 
L 373.592088 240.914726 
L 379.595119 245.413377 
L 385.73802 249.912027 
L 391.901636 254.410677 
L 397.866159 258.909328 
L 403.8011 263.407978 
L 409.642919 267.906628 
L 415.562916 272.405278 
L 421.369827 276.903929 
L 427.072126 281.402579 
L 433.026301 285.901229 
L 438.903512 290.39988 
L 444.572365 294.89853 
L 450.047084 299.39718 
L 455.825849 303.895831 
L 461.209451 308.394481 
L 460.897018 308.394481 
L 472.315089 317.208427 
L 482.801243 326.022374 
L 492.990951 334.836321 
L 503.612832 343.650267 
L 514.187959 352.464214 
L 524.41806 361.27816 
L 534.772786 370.092107 
L 544.963478 378.906053 
L 554.854709 387.72 
L 554.854709 166313.818153 
L 554.854709 166313.818153 
L 544.963478 166313.818153 
L 534.772786 166313.818153 
L 524.41806 166313.818153 
L 514.187959 166313.818153 
L 503.612832 166313.818153 
L 492.990951 166313.818153 
L 482.801243 166313.818153 
L 472.315089 166313.818153 
L 460.897018 166313.818153 
L 461.209451 166313.818153 
L 455.825849 166313.818153 
L 450.047084 166313.818153 
L 444.572365 166313.818153 
L 438.903512 166313.818153 
L 433.026301 166313.818153 
L 427.072126 166313.818153 
L 421.369827 166313.818153 
L 415.562916 166313.818153 
L 409.642919 166313.818153 
L 403.8011 166313.818153 
L 397.866159 166313.818153 
L 391.901636 166313.818153 
L 385.73802 166313.818153 
L 379.595119 166313.818153 
L 373.592088 166313.818153 
L 367.217703 166313.818153 
L 360.95866 166313.818153 
L 354.661337 166313.818153 
L 348.144514 166313.818153 
L 345.82595 166313.818153 
L 325.636947 166313.818153 
L 304.981237 166313.818153 
L 283.493385 166313.818153 
L 261.694357 166313.818153 
L 239.586231 166313.818153 
L 217.683218 166313.818153 
L 196.043239 166313.818153 
L 175.033056 166313.818153 
L 155.977724 166313.818153 
L 138.285139 166313.818153 
L 122.641889 166313.818153 
L 109.060637 166313.818153 
L 96.964581 166313.818153 
L 85.25374 166313.818153 
z
" style="fill:#d62728;fill-opacity:0.4;stroke:#d62728;stroke-opacity:0.4;"/>
   </g>
   <g id="PolyCollection_2">
    <path clip-path="url(#p115159f3f6)" d="M 183.536521 166313.818153 
L 183.536521 400.447687 
L 189.203663 378.312387 
L 191.039038 371.560144 
L 195.27247 356.733409 
L 195.542462 355.822471 
L 201.682934 336.187563 
L 206.07026 323.383359 
L 207.296037 319.981183 
L 211.05278 310.01554 
L 211.329673 309.308037 
L 213.416632 304.092314 
L 214.039859 302.574306 
L 214.782627 300.788601 
L 220.277917 288.350904 
L 221.159322 286.479589 
L 221.525308 285.712355 
L 222.747072 283.192348 
L 223.034589 282.608476 
L 225.729207 277.30341 
L 229.84947 269.759796 
L 231.811815 266.400648 
L 233.720287 263.273937 
L 234.565439 261.932669 
L 237.967187 256.796902 
L 246.524599 245.647818 
L 247.768939 244.226655 
L 254.501694 237.359837 
L 261.647794 231.496865 
L 264.158759 229.761288 
L 275.969507 223.654869 
L 291.038604 220.163745 
L 291.038604 220.163745 
L 293.676007 219.981002 
L 322.283343 224.432058 
L 333.08822 228.520394 
L 345.828844 234.545219 
L 358.205782 241.36041 
L 365.924995 245.979725 
L 372.307135 249.968296 
L 376.917359 252.929382 
L 385.164044 258.363953 
L 390.413302 261.899087 
L 402.780449 270.401348 
L 407.155547 273.453554 
L 415.648335 279.425775 
L 420.39267 282.783629 
L 430.639048 290.075427 
L 431.893575 290.971401 
L 438.292467 295.551217 
L 442.918156 298.871979 
L 450.127776 304.065619 
L 455.248326 307.769338 
L 455.743081 308.127941 
L 463.23792 313.578696 
L 479.576412 325.619933 
L 490.081564 333.527096 
L 503.612832 343.986785 
L 514.187959 352.443094 
L 524.41806 360.918901 
L 534.772786 369.851802 
L 544.963478 379.048739 
L 554.854709 388.415037 
L 554.854709 166313.818153 
L 554.854709 166313.818153 
L 544.963478 166313.818153 
L 534.772786 166313.818153 
L 524.41806 166313.818153 
L 514.187959 166313.818153 
L 503.612832 166313.818153 
L 490.081564 166313.818153 
L 479.576412 166313.818153 
L 463.23792 166313.818153 
L 455.743081 166313.818153 
L 455.248326 166313.818153 
L 450.127776 166313.818153 
L 442.918156 166313.818153 
L 438.292467 166313.818153 
L 431.893575 166313.818153 
L 430.639048 166313.818153 
L 420.39267 166313.818153 
L 415.648335 166313.818153 
L 407.155547 166313.818153 
L 402.780449 166313.818153 
L 390.413302 166313.818153 
L 385.164044 166313.818153 
L 376.917359 166313.818153 
L 372.307135 166313.818153 
L 365.924995 166313.818153 
L 358.205782 166313.818153 
L 345.828844 166313.818153 
L 333.08822 166313.818153 
L 322.283343 166313.818153 
L 293.676007 166313.818153 
L 291.038604 166313.818153 
L 291.038604 166313.818153 
L 275.969507 166313.818153 
L 264.158759 166313.818153 
L 261.647794 166313.818153 
L 254.501694 166313.818153 
L 247.768939 166313.818153 
L 246.524599 166313.818153 
L 237.967187 166313.818153 
L 234.565439 166313.818153 
L 233.720287 166313.818153 
L 231.811815 166313.818153 
L 229.84947 166313.818153 
L 225.729207 166313.818153 
L 223.034589 166313.818153 
L 222.747072 166313.818153 
L 221.525308 166313.818153 
L 221.159322 166313.818153 
L 220.277917 166313.818153 
L 214.782627 166313.818153 
L 214.039859 166313.818153 
L 213.416632 166313.818153 
L 211.329673 166313.818153 
L 211.05278 166313.818153 
L 207.296037 166313.818153 
L 206.07026 166313.818153 
L 201.682934 166313.818153 
L 195.542462 166313.818153 
L 195.27247 166313.818153 
L 191.039038 166313.818153 
L 189.203663 166313.818153 
L 183.536521 166313.818153 
z
" style="fill:#ffffff;stroke:#ffffff;"/>
   </g>
   <g id="PolyCollection_3">
    <path clip-path="url(#p115159f3f6)" d="M 183.536521 166313.818153 
L 183.536521 400.447687 
L 189.203663 378.312387 
L 191.039038 371.560144 
L 195.27247 356.733409 
L 195.542462 355.822471 
L 201.682934 336.187563 
L 206.07026 323.383359 
L 207.296037 319.981183 
L 211.05278 310.01554 
L 211.329673 309.308037 
L 213.416632 304.092314 
L 214.039859 302.574306 
L 214.782627 300.788601 
L 220.277917 288.350904 
L 221.159322 286.479589 
L 221.525308 285.712355 
L 222.747072 283.192348 
L 223.034589 282.608476 
L 225.729207 277.30341 
L 229.84947 269.759796 
L 231.811815 266.400648 
L 233.720287 263.273937 
L 234.565439 261.932669 
L 237.967187 256.796902 
L 246.524599 245.647818 
L 247.768939 244.226655 
L 254.501694 237.359837 
L 261.647794 231.496865 
L 264.158759 229.761288 
L 275.969507 223.654869 
L 291.038604 220.163745 
L 291.038604 220.163745 
L 293.676007 219.981002 
L 322.283343 224.432058 
L 333.08822 228.520394 
L 345.828844 234.545219 
L 358.205782 241.36041 
L 365.924995 245.979725 
L 372.307135 249.968296 
L 376.917359 252.929382 
L 385.164044 258.363953 
L 390.413302 261.899087 
L 402.780449 270.401348 
L 407.155547 273.453554 
L 415.648335 279.425775 
L 420.39267 282.783629 
L 430.639048 290.075427 
L 431.893575 290.971401 
L 438.292467 295.551217 
L 442.918156 298.871979 
L 450.127776 304.065619 
L 455.248326 307.769338 
L 455.743081 308.127941 
L 463.23792 313.578696 
L 479.576412 325.619933 
L 490.081564 333.527096 
L 503.612832 343.986785 
L 514.187959 352.443094 
L 524.41806 360.918901 
L 534.772786 369.851802 
L 544.963478 379.048739 
L 554.854709 388.415037 
L 554.854709 166313.818153 
L 554.854709 166313.818153 
L 544.963478 166313.818153 
L 534.772786 166313.818153 
L 524.41806 166313.818153 
L 514.187959 166313.818153 
L 503.612832 166313.818153 
L 490.081564 166313.818153 
L 479.576412 166313.818153 
L 463.23792 166313.818153 
L 455.743081 166313.818153 
L 455.248326 166313.818153 
L 450.127776 166313.818153 
L 442.918156 166313.818153 
L 438.292467 166313.818153 
L 431.893575 166313.818153 
L 430.639048 166313.818153 
L 420.39267 166313.818153 
L 415.648335 166313.818153 
L 407.155547 166313.818153 
L 402.780449 166313.818153 
L 390.413302 166313.818153 
L 385.164044 166313.818153 
L 376.917359 166313.818153 
L 372.307135 166313.818153 
L 365.924995 166313.818153 
L 358.205782 166313.818153 
L 345.828844 166313.818153 
L 333.08822 166313.818153 
L 322.283343 166313.818153 
L 293.676007 166313.818153 
L 291.038604 166313.818153 
L 291.038604 166313.818153 
L 275.969507 166313.818153 
L 264.158759 166313.818153 
L 261.647794 166313.818153 
L 254.501694 166313.818153 
L 247.768939 166313.818153 
L 246.524599 166313.818153 
L 237.967187 166313.818153 
L 234.565439 166313.818153 
L 233.720287 166313.818153 
L 231.811815 166313.818153 
L 229.84947 166313.818153 
L 225.729207 166313.818153 
L 223.034589 166313.818153 
L 222.747072 166313.818153 
L 221.525308 166313.818153 
L 221.159322 166313.818153 
L 220.277917 166313.818153 
L 214.782627 166313.818153 
L 214.039859 166313.818153 
L 213.416632 166313.818153 
L 211.329673 166313.818153 
L 211.05278 166313.818153 
L 207.296037 166313.818153 
L 206.07026 166313.818153 
L 201.682934 166313.818153 
L 195.542462 166313.818153 
L 195.27247 166313.818153 
L 191.039038 166313.818153 
L 189.203663 166313.818153 
L 183.536521 166313.818153 
z
" style="fill:#1f77b4;fill-opacity:0.4;stroke:#1f77b4;stroke-opacity:0.4;"/>
   </g>
   <g id="matplotlib.axis_1">
    <g id="xtick_1">
     <g id="line2d_1">
      <defs>
       <path d="M 0 0 
L 0 3.5 
" id="m6bfbb6e338" style="stroke:#000000;stroke-width:0.8;"/>
      </defs>
      <g>
       <use style="stroke:#000000;stroke-width:0.8;" x="203.081284" xlink:href="#m6bfbb6e338" y="387.72"/>
      </g>
     </g>
     <g id="text_1">
      <!-- $\mathdefault{10^{0}}$ -->
      <g transform="translate(188.018499 411.324405)scale(0.24 -0.24)">
       <defs>
        <path d="M 26.59375 63.796875 
C 26.59375 65.890625 26.5 66 25.09375 66 
C 21.203125 61.359375 15.296875 59.890625 9.703125 59.6875 
C 9.40625 59.6875 8.90625 59.6875 8.796875 59.5 
C 8.703125 59.296875 8.703125 59.09375 8.703125 57 
C 11.796875 57 17 57.59375 21 59.984375 
L 21 7.296875 
C 21 3.796875 20.796875 2.59375 12.203125 2.59375 
L 9.203125 2.59375 
L 9.203125 0 
C 14 0.09375 19 0.1875 23.796875 0.1875 
C 28.59375 0.1875 33.59375 0.09375 38.40625 0 
L 38.40625 2.59375 
L 35.40625 2.59375 
C 26.796875 2.59375 26.59375 3.6875 26.59375 7.296875 
z
" id="CMR17-49"/>
        <path d="M 42 31.84375 
C 42 37.96875 41.90625 48.421875 37.703125 56.453125 
C 34 63.484375 28.09375 66 22.90625 66 
C 18.09375 66 12 63.78125 8.203125 56.5625 
C 4.203125 49.015625 3.796875 39.671875 3.796875 31.84375 
C 3.796875 26.109375 3.90625 17.375 7 9.734375 
C 11.296875 -0.609375 19 -2 22.90625 -2 
C 27.5 -2 34.5 -0.109375 38.59375 9.4375 
C 41.59375 16.375 42 24.5 42 31.84375 
z
M 22.90625 -0.40625 
C 16.5 -0.40625 12.703125 5.125 11.296875 12.75 
C 10.203125 18.6875 10.203125 27.328125 10.203125 32.953125 
C 10.203125 40.6875 10.203125 47.109375 11.5 53.234375 
C 13.40625 61.78125 19 64.390625 22.90625 64.390625 
C 27 64.390625 32.296875 61.671875 34.203125 53.4375 
C 35.5 47.71875 35.59375 40.984375 35.59375 32.953125 
C 35.59375 26.421875 35.59375 18.375 34.40625 12.453125 
C 32.296875 1.5 26.40625 -0.40625 22.90625 -0.40625 
z
" id="CMR17-48"/>
       </defs>
       <use transform="scale(0.996264)" xlink:href="#CMR17-49"/>
       <use transform="translate(45.690477 0)scale(0.996264)" xlink:href="#CMR17-48"/>
       <use transform="translate(91.380954 36.153639)scale(0.697382)" xlink:href="#CMR17-48"/>
      </g>
     </g>
    </g>
    <g id="xtick_2">
     <g id="line2d_2">
      <g>
       <use style="stroke:#000000;stroke-width:0.8;" x="498.518328" xlink:href="#m6bfbb6e338" y="387.72"/>
      </g>
     </g>
     <g id="text_2">
      <!-- $\mathdefault{10^{1}}$ -->
      <g transform="translate(483.455543 411.324405)scale(0.24 -0.24)">
       <use transform="scale(0.996264)" xlink:href="#CMR17-49"/>
       <use transform="translate(45.690477 0)scale(0.996264)" xlink:href="#CMR17-48"/>
       <use transform="translate(91.380954 36.153639)scale(0.697382)" xlink:href="#CMR17-49"/>
      </g>
     </g>
    </g>
    <g id="xtick_3">
     <g id="line2d_3">
      <defs>
       <path d="M 0 0 
L 0 2 
" id="m163fae5519" style="stroke:#000000;stroke-width:0.6;"/>
      </defs>
      <g>
       <use style="stroke:#000000;stroke-width:0.6;" x="85.515064" xlink:href="#m163fae5519" y="387.72"/>
      </g>
     </g>
    </g>
    <g id="xtick_4">
     <g id="line2d_4">
      <g>
       <use style="stroke:#000000;stroke-width:0.6;" x="114.145872" xlink:href="#m163fae5519" y="387.72"/>
      </g>
     </g>
    </g>
    <g id="xtick_5">
     <g id="line2d_5">
      <g>
       <use style="stroke:#000000;stroke-width:0.6;" x="137.538945" xlink:href="#m163fae5519" y="387.72"/>
      </g>
     </g>
    </g>
    <g id="xtick_6">
     <g id="line2d_6">
      <g>
       <use style="stroke:#000000;stroke-width:0.6;" x="157.317507" xlink:href="#m163fae5519" y="387.72"/>
      </g>
     </g>
    </g>
    <g id="xtick_7">
     <g id="line2d_7">
      <g>
       <use style="stroke:#000000;stroke-width:0.6;" x="174.450476" xlink:href="#m163fae5519" y="387.72"/>
      </g>
     </g>
    </g>
    <g id="xtick_8">
     <g id="line2d_8">
      <g>
       <use style="stroke:#000000;stroke-width:0.6;" x="189.562826" xlink:href="#m163fae5519" y="387.72"/>
      </g>
     </g>
    </g>
    <g id="xtick_9">
     <g id="line2d_9">
      <g>
       <use style="stroke:#000000;stroke-width:0.6;" x="292.016696" xlink:href="#m163fae5519" y="387.72"/>
      </g>
     </g>
    </g>
    <g id="xtick_10">
     <g id="line2d_10">
      <g>
       <use style="stroke:#000000;stroke-width:0.6;" x="344.040577" xlink:href="#m163fae5519" y="387.72"/>
      </g>
     </g>
    </g>
    <g id="xtick_11">
     <g id="line2d_11">
      <g>
       <use style="stroke:#000000;stroke-width:0.6;" x="380.952108" xlink:href="#m163fae5519" y="387.72"/>
      </g>
     </g>
    </g>
    <g id="xtick_12">
     <g id="line2d_12">
      <g>
       <use style="stroke:#000000;stroke-width:0.6;" x="409.582916" xlink:href="#m163fae5519" y="387.72"/>
      </g>
     </g>
    </g>
    <g id="xtick_13">
     <g id="line2d_13">
      <g>
       <use style="stroke:#000000;stroke-width:0.6;" x="432.975989" xlink:href="#m163fae5519" y="387.72"/>
      </g>
     </g>
    </g>
    <g id="xtick_14">
     <g id="line2d_14">
      <g>
       <use style="stroke:#000000;stroke-width:0.6;" x="452.75455" xlink:href="#m163fae5519" y="387.72"/>
      </g>
     </g>
    </g>
    <g id="xtick_15">
     <g id="line2d_15">
      <g>
       <use style="stroke:#000000;stroke-width:0.6;" x="469.88752" xlink:href="#m163fae5519" y="387.72"/>
      </g>
     </g>
    </g>
    <g id="xtick_16">
     <g id="line2d_16">
      <g>
       <use style="stroke:#000000;stroke-width:0.6;" x="484.99987" xlink:href="#m163fae5519" y="387.72"/>
      </g>
     </g>
    </g>
    <g id="xtick_17">
     <g id="line2d_17">
      <g>
       <use style="stroke:#000000;stroke-width:0.6;" x="587.45374" xlink:href="#m163fae5519" y="387.72"/>
      </g>
     </g>
    </g>
    <g id="text_3">
     <!-- Viral divergence $\sigma_v/r_0$ -->
     <g transform="translate(228.939678 437.907915)scale(0.24 -0.24)">
      <defs>
       <path d="M 59 58.78125 
C 59.90625 60.984375 61.5 65.296875 68.203125 65.390625 
L 68.203125 68 
C 65.90625 67.796875 63.296875 67.796875 60.796875 67.796875 
C 58.40625 67.796875 54.296875 67.796875 52 68 
L 52 65.390625 
C 57 65.09375 57.203125 61.59375 57.203125 60.984375 
C 57.203125 59.890625 56.90625 59.1875 56.59375 58.390625 
L 36.90625 7 
L 16.296875 60.984375 
C 16 61.6875 15.796875 62.1875 15.796875 62.6875 
C 15.796875 65.390625 19.796875 65.390625 21.90625 65.390625 
L 21.90625 68 
C 18.703125 67.796875 14 67.796875 10.703125 67.796875 
C 8.09375 67.796875 3.40625 67.796875 1 68 
L 1 65.390625 
C 6.796875 65.390625 7.90625 65 9.09375 61.796875 
L 32.90625 -0.40625 
C 33.40625 -1.8125 33.5 -2 34.59375 -2 
C 35.703125 -2 35.796875 -1.8125 36.296875 -0.40625 
z
" id="CMR17-86"/>
       <path d="M 15.5 61.890625 
C 15.5 64.09375 13.703125 66 11.40625 66 
C 9.203125 66 7.296875 64.1875 7.296875 61.890625 
C 7.296875 59.6875 9.09375 57.796875 11.40625 57.796875 
C 13.59375 57.796875 15.5 59.59375 15.5 61.890625 
z
M 3.796875 42.890625 
L 3.796875 40.296875 
C 9.40625 40.296875 10.203125 39.6875 10.203125 34.859375 
L 10.203125 6.921875 
C 10.203125 3.09375 9.796875 2.59375 3.40625 2.59375 
L 3.40625 0 
C 5.796875 0.1875 10.09375 0.1875 12.59375 0.1875 
C 15 0.1875 19.09375 0.1875 21.40625 0 
L 21.40625 2.59375 
C 15.5 2.59375 15.296875 3.203125 15.296875 6.8125 
L 15.296875 44 
z
" id="CMR17-105"/>
       <path d="M 15 23.703125 
C 15 33.34375 19.09375 42.390625 26.59375 42.390625 
C 27.296875 42.390625 28 42.296875 28.703125 41.984375 
C 28.703125 41.984375 26.5 41.28125 26.5 38.671875 
C 26.5 36.265625 28.40625 35.265625 29.90625 35.265625 
C 31.09375 35.265625 33.296875 35.96875 33.296875 38.78125 
C 33.296875 41.984375 30.09375 44 26.703125 44 
C 19.09375 44 15.796875 36.5625 14.796875 33.046875 
L 14.703125 33.046875 
L 14.703125 44 
L 3.09375 42.890625 
L 3.09375 40.28125 
C 9 40.28125 9.90625 39.6875 9.90625 34.859375 
L 9.90625 6.921875 
C 9.90625 3.09375 9.5 2.59375 3.09375 2.59375 
L 3.09375 0 
C 5.5 0.1875 10.09375 0.1875 12.703125 0.1875 
C 15.59375 0.1875 20.703125 0.1875 23.40625 0 
L 23.40625 2.59375 
C 16.203125 2.59375 15 2.59375 15 7.109375 
z
" id="CMR17-114"/>
       <path d="M 36 25.875 
C 36 32 36 35.546875 31.796875 39.59375 
C 28.09375 42.984375 23.796875 44 20.40625 44 
C 12.5 44 6.796875 37.625 6.796875 30.890625 
C 6.796875 27.1875 9.796875 27 10.40625 27 
C 11.703125 27 14 27.796875 14 30.59375 
C 14 33.09375 12.09375 34.1875 10.40625 34.1875 
C 10 34.1875 9.5 34.09375 9.203125 34 
C 11.296875 40.53125 16.703125 42.390625 20.203125 42.390625 
C 25.203125 42.390625 30.703125 37.828125 30.703125 29.296875 
L 30.703125 25.5 
C 24.796875 25.296875 17.703125 24.5 12.09375 21.453125 
C 5.796875 17.921875 4 12.84375 4 9 
C 4 1.203125 13 -1 18.296875 -1 
C 23.796875 -1 28.90625 2.109375 31.09375 7.890625 
C 31.296875 3.421875 34.09375 -0.609375 38.5 -0.609375 
C 40.59375 -0.609375 45.90625 0.796875 45.90625 8.796875 
L 45.90625 14.46875 
L 44.09375 14.46875 
L 44.09375 8.703125 
C 44.09375 2.515625 41.40625 1.703125 40.09375 1.703125 
C 36 1.703125 36 6.96875 36 11.4375 
z
M 30.703125 13.859375 
C 30.703125 5.046875 24.5 0.59375 19 0.59375 
C 14 0.59375 10.09375 4.34375 10.09375 9 
C 10.09375 12.046875 11.40625 17.40625 17.203125 20.65625 
C 22 23.390625 27.5 23.796875 30.703125 24 
z
" id="CMR17-97"/>
       <path d="M 15.296875 69 
L 3.40625 67.890625 
L 3.40625 65.296875 
C 9.296875 65.296875 10.203125 64.703125 10.203125 59.921875 
L 10.203125 6.859375 
C 10.203125 3.09375 9.796875 2.59375 3.40625 2.59375 
L 3.40625 0 
C 5.796875 0.1875 10.203125 0.1875 12.703125 0.1875 
C 15.296875 0.1875 19.703125 0.1875 22.09375 0 
L 22.09375 2.59375 
C 15.703125 2.59375 15.296875 2.984375 15.296875 6.859375 
z
" id="CMR17-108"/>
       <path d="M 29.203125 67.890625 
L 29.203125 65.296875 
C 35.09375 65.296875 36 64.703125 36 60.046875 
L 36 37.046875 
C 35.59375 37.546875 31.5 44 23.40625 44 
C 13.203125 44 3.296875 34.8125 3.296875 21.5 
C 3.296875 8.265625 12.59375 -1 22.40625 -1 
C 30.90625 -1 35.296875 5.640625 35.796875 6.34375 
L 35.796875 -1 
L 47.90625 -0.203125 
L 47.90625 2.40625 
C 42 2.40625 41.09375 3.015625 41.09375 7.859375 
L 41.09375 69 
z
M 35.796875 11.90625 
C 35.796875 8.875 34 6.140625 31.703125 4.125 
C 28.296875 1.09375 24.90625 0.59375 23 0.59375 
C 20.09375 0.59375 9.703125 2.109375 9.703125 21.390625 
C 9.703125 41.1875 21.296875 42.390625 23.90625 42.390625 
C 28.5 42.390625 32.203125 39.765625 34.5 36.140625 
C 35.796875 34.015625 35.796875 33.703125 35.796875 31.890625 
z
" id="CMR17-100"/>
       <path d="M 39.09375 33.953125 
C 40 36.171875 41.59375 40.1875 47.40625 40.390625 
L 47.40625 43 
C 45.5 42.890625 43 42.796875 41.09375 42.796875 
C 39 42.796875 35.703125 42.796875 33.703125 43 
L 33.703125 40.390625 
C 36.203125 40.1875 37.59375 38.984375 37.59375 36.375 
C 37.59375 35.46875 37.59375 35.265625 37 33.859375 
L 26 5.921875 
L 14.09375 36.0625 
C 13.5 37.375 13.5 37.578125 13.5 37.984375 
C 13.5 40.390625 16.796875 40.390625 18.296875 40.390625 
L 18.296875 43 
C 15.90625 42.796875 11.5 42.796875 9 42.796875 
C 6.296875 42.796875 3.203125 42.796875 1 43 
L 1 40.390625 
C 4.796875 40.390625 6.90625 40.390625 8.09375 37.28125 
L 22.59375 0.6875 
C 23.203125 -0.8125 23.296875 -1 24.203125 -1 
C 25.09375 -1 25.203125 -0.8125 25.796875 0.6875 
z
" id="CMR17-118"/>
       <path d="M 38.09375 23.484375 
C 38.5 23.890625 38.5 24.09375 38.5 25.09375 
C 38.5 35.171875 33.09375 44 21.703125 44 
C 11.09375 44 2.703125 33.984375 2.703125 21.78125 
C 2.703125 8.65625 12.203125 -1 22.796875 -1 
C 34 -1 38.40625 9.671875 38.40625 11.796875 
C 38.40625 12.5 37.796875 12.5 37.59375 12.5 
C 36.90625 12.5 36.796875 12.296875 36.40625 11.078125 
C 34.203125 4.21875 28.703125 0.796875 23.5 0.796875 
C 19.203125 0.796875 14.90625 3.21875 12.203125 7.65625 
C 9.09375 12.796875 9.09375 18.75 9.09375 23.484375 
z
M 9.203125 25 
C 9.90625 39.234375 17.59375 42.390625 21.59375 42.390625 
C 28.40625 42.390625 33 36.0625 33.09375 25 
z
" id="CMR17-101"/>
       <path d="M 11.09375 18.203125 
C 13 16.6875 16.296875 15 20.296875 15 
C 28.203125 15 35 21.234375 35 29.609375 
C 35 32.234375 34.203125 36.265625 31.203125 39.390625 
C 34 42.390625 38.09375 43.390625 40.40625 43.390625 
C 40.796875 43.390625 41.40625 43.390625 41.90625 43.09375 
C 41.5 42.984375 40.59375 42.59375 40.59375 40.984375 
C 40.59375 39.6875 41.5 38.796875 42.796875 38.796875 
C 44.296875 38.796875 45.09375 39.796875 45.09375 41.09375 
C 45.09375 42.984375 43.59375 45 40.40625 45 
C 36.40625 45 32.90625 43.09375 30.09375 40.484375 
C 27.09375 43.1875 23.5 44.1875 20.296875 44.1875 
C 12.40625 44.1875 5.59375 37.984375 5.59375 29.609375 
C 5.59375 23.859375 8.90625 20.21875 9.90625 19.21875 
C 6.90625 15.6875 6.90625 11.59375 6.90625 11.09375 
C 6.90625 8.5 7.90625 4.6875 11.296875 2.59375 
C 6.09375 1.28125 2 -2.875 2 -8.078125 
C 2 -15.5625 11.5 -21 22.90625 -21 
C 33.90625 -21 43.796875 -15.765625 43.796875 -7.96875 
C 43.796875 6 29 6 21.296875 6 
C 19 6 14.90625 6 14.40625 6.09375 
C 11.296875 6.59375 9.203125 9.390625 9.203125 12.890625 
C 9.203125 13.796875 9.203125 16 11.09375 18.203125 
z
M 20.296875 16.6875 
C 11.5 16.6875 11.5 27.59375 11.5 29.609375 
C 11.5 31.625 11.5 42.484375 20.296875 42.484375 
C 29.09375 42.484375 29.09375 31.625 29.09375 29.609375 
C 29.09375 27.59375 29.09375 16.6875 20.296875 16.6875 
z
M 22.90625 -19.3125 
C 12.90625 -19.3125 6 -13.796875 6 -8.078125 
C 6 -4.859375 7.703125 -1.84375 9.90625 -0.171875 
C 12.40625 1.59375 13.40625 1.59375 20.203125 1.59375 
C 28.40625 1.59375 39.796875 1.59375 39.796875 -8.078125 
C 39.796875 -13.796875 32.90625 -19.3125 22.90625 -19.3125 
z
" id="CMR17-103"/>
       <path d="M 41.5 30.53125 
C 41.5 35.65625 40.5 44 28.703125 44 
C 20.796875 44 16.703125 37.875 15.203125 33.84375 
L 15.09375 33.84375 
L 15.09375 44 
L 3.296875 42.890625 
L 3.296875 40.28125 
C 9.203125 40.28125 10.09375 39.6875 10.09375 34.859375 
L 10.09375 6.921875 
C 10.09375 3.09375 9.703125 2.59375 3.296875 2.59375 
L 3.296875 0 
C 5.703125 0.1875 10.09375 0.1875 12.703125 0.1875 
C 15.296875 0.1875 19.796875 0.1875 22.203125 0 
L 22.203125 2.59375 
C 15.796875 2.59375 15.40625 3 15.40625 6.921875 
L 15.40625 26.21875 
C 15.40625 35.453125 21 42.390625 28 42.390625 
C 35.40625 42.390625 36.203125 35.765625 36.203125 30.9375 
L 36.203125 6.921875 
C 36.203125 3.09375 35.796875 2.59375 29.40625 2.59375 
L 29.40625 0 
C 31.796875 0.1875 36.203125 0.1875 38.796875 0.1875 
C 41.40625 0.1875 45.90625 0.1875 48.296875 0 
L 48.296875 2.59375 
C 41.90625 2.59375 41.5 3 41.5 6.921875 
z
" id="CMR17-110"/>
       <path d="M 34.90625 35 
C 33 35 30.203125 35 30.203125 31.484375 
C 30.203125 28.6875 32.5 27.890625 33.796875 27.890625 
C 34.5 27.890625 37.40625 28.1875 37.40625 31.6875 
C 37.40625 38.6875 30.59375 44 22.90625 44 
C 12.296875 44 3.296875 34.390625 3.296875 21.546875 
C 3.296875 8.140625 12.703125 -1 22.90625 -1 
C 35.296875 -1 38.40625 10.5625 38.40625 11.671875 
C 38.40625 12.078125 38.296875 12.375 37.59375 12.375 
C 36.90625 12.375 36.796875 12.28125 36.40625 10.96875 
C 33.796875 2.8125 28.09375 0.796875 23.796875 0.796875 
C 17.40625 0.796875 9.703125 6.734375 9.703125 21.640625 
C 9.703125 36.84375 17.09375 42.1875 23 42.1875 
C 26.90625 42.1875 32.703125 40.34375 34.90625 35 
z
" id="CMR17-99"/>
       <path d="M 50.796875 37.59375 
C 52.09375 37.59375 55.40625 37.59375 55.40625 40.796875 
C 55.40625 43 53.5 43 51.703125 43 
L 29.59375 43 
C 14.59375 43 3.796875 26.328125 3.796875 14.5625 
C 3.796875 6.078125 9.296875 -1 18.296875 -1 
C 30.09375 -1 43 11.65625 43 26.625 
C 43 30.515625 42.09375 34.296875 39.703125 37.59375 
z
M 18.40625 1 
C 13.296875 1 9.59375 4.875 9.59375 11.765625 
C 9.59375 17.75 13.203125 37.59375 27.90625 37.59375 
C 32.203125 37.59375 37 35.5 37 27.8125 
C 37 24.328125 35.40625 15.953125 31.90625 10.171875 
C 28.296875 4.28125 22.90625 1 18.40625 1 
z
" id="CMMI12-27"/>
       <path d="M 45.703125 37.3125 
C 45.703125 43.59375 42.5 44 41.703125 44 
C 39.296875 44 37.09375 41.59375 37.09375 39.59375 
C 37.09375 38.40625 37.796875 37.703125 38.203125 37.3125 
C 39.203125 36.40625 41.796875 33.71875 41.796875 28.53125 
C 41.796875 24.34375 35.796875 1 23.796875 1 
C 17.703125 1 16.5 6.078125 16.5 9.765625 
C 16.5 14.765625 18.796875 21.75 21.5 28.921875 
C 23.09375 33.015625 23.5 34.015625 23.5 36.015625 
C 23.5 40.203125 20.5 44 15.59375 44 
C 6.40625 44 2.703125 29.53125 2.703125 28.71875 
C 2.703125 28.328125 3.09375 27.828125 3.796875 27.828125 
C 4.703125 27.828125 4.796875 28.234375 5.203125 29.625 
C 7.59375 38.203125 11.5 41.984375 15.296875 41.984375 
C 16.203125 41.984375 17.90625 41.984375 17.90625 38.703125 
C 17.90625 36.109375 16.796875 33.21875 15.296875 29.421875 
C 10.5 16.65625 10.5 13.5625 10.5 11.171875 
C 10.5 8.96875 10.796875 4.890625 13.90625 2.09375 
C 17.5 -1 22.5 -1 23.40625 -1 
C 40 -1 45.703125 31.625 45.703125 37.3125 
z
" id="CMMI12-118"/>
       <path d="M 42.90625 71.296875 
C 42.90625 71.390625 43.5 72.890625 43.5 73.09375 
C 43.5 74.296875 42.5 75 41.703125 75 
C 41.203125 75 40.296875 75 39.5 72.796875 
L 6 -21.3125 
C 6 -21.40625 5.40625 -22.90625 5.40625 -23.109375 
C 5.40625 -24.3125 6.40625 -25 7.203125 -25 
C 7.796875 -25 8.703125 -24.90625 9.40625 -22.8125 
z
" id="CMMI12-61"/>
       <path d="M 38.90625 41.140625 
C 35.796875 40.59375 34.203125 38.390625 34.203125 36.1875 
C 34.203125 33.796875 36.09375 32.984375 37.5 32.984375 
C 40.296875 32.984375 42.59375 35.390625 42.59375 38.390625 
C 42.59375 41.421875 39.5 44 34.5 44 
C 30.5 44 25.90625 42.1875 21.703125 36.484375 
C 21 41.5625 17 44 13 44 
C 9.09375 44 7.09375 41.28125 5.90625 39.1875 
C 4.203125 35.59375 2.703125 29.5625 2.703125 29.0625 
C 2.703125 28.65625 3.09375 28.140625 3.796875 28.140625 
C 4.59375 28.140625 4.703125 28.25 5.296875 30.578125 
C 6.796875 36.59375 8.703125 41.984375 12.703125 41.984375 
C 15.09375 41.984375 15.796875 40.6875 15.796875 37.796875 
C 15.796875 35.59375 14.796875 31.6875 14.09375 28.546875 
L 11.296875 17.65625 
C 10.90625 15.734375 9.796875 11.1875 9.296875 9.375 
C 8.59375 6.75 7.5 2 7.5 1.5 
C 7.5 0.09375 8.59375 -1 10.09375 -1 
C 11.203125 -1 13.09375 -0.3125 13.703125 1.703125 
C 14 2.5 17.703125 17.75 18.296875 20.078125 
C 18.796875 22.296875 19.40625 24.40625 19.90625 26.640625 
C 20.296875 28.046875 20.703125 29.65625 21 30.96875 
C 21.296875 31.875 24 36.796875 26.5 38.984375 
C 27.703125 40.09375 30.296875 41.984375 34.40625 41.984375 
C 36 41.984375 37.59375 41.78125 38.90625 41.140625 
z
" id="CMMI12-114"/>
      </defs>
      <use transform="scale(0.996264)" xlink:href="#CMR17-86"/>
      <use transform="translate(69.07243 0)scale(0.996264)" xlink:href="#CMR17-105"/>
      <use transform="translate(93.943488 0)scale(0.996264)" xlink:href="#CMR17-114"/>
      <use transform="translate(129.224256 0)scale(0.996264)" xlink:href="#CMR17-97"/>
      <use transform="translate(174.914733 0)scale(0.996264)" xlink:href="#CMR17-108"/>
      <use transform="translate(229.861758 0)scale(0.996264)" xlink:href="#CMR17-100"/>
      <use transform="translate(280.757128 0)scale(0.996264)" xlink:href="#CMR17-105"/>
      <use transform="translate(305.628186 0)scale(0.996264)" xlink:href="#CMR17-118"/>
      <use transform="translate(351.318648 0)scale(0.996264)" xlink:href="#CMR17-101"/>
      <use transform="translate(391.804309 0)scale(0.996264)" xlink:href="#CMR17-114"/>
      <use transform="translate(427.085076 0)scale(0.996264)" xlink:href="#CMR17-103"/>
      <use transform="translate(472.775554 0)scale(0.996264)" xlink:href="#CMR17-101"/>
      <use transform="translate(513.261214 0)scale(0.996264)" xlink:href="#CMR17-110"/>
      <use transform="translate(564.156584 0)scale(0.996264)" xlink:href="#CMR17-99"/>
      <use transform="translate(604.642244 0)scale(0.996264)" xlink:href="#CMR17-101"/>
      <use transform="translate(675.203871 0)scale(0.996264)" xlink:href="#CMMI12-27"/>
      <use transform="translate(730.649332 -14.943915)scale(0.697382)" xlink:href="#CMMI12-118"/>
      <use transform="translate(766.661914 0)scale(0.996264)" xlink:href="#CMMI12-61"/>
      <use transform="translate(815.436832 0)scale(0.996264)" xlink:href="#CMMI12-114"/>
      <use transform="translate(859.397727 -14.943915)scale(0.697382)" xlink:href="#CMR17-48"/>
     </g>
    </g>
   </g>
   <g id="matplotlib.axis_2">
    <g id="ytick_1">
     <g id="line2d_18">
      <defs>
       <path d="M 0 0 
L -3.5 0 
" id="m7566aa964f" style="stroke:#000000;stroke-width:0.8;"/>
      </defs>
      <g>
       <use style="stroke:#000000;stroke-width:0.8;" x="85.25374" xlink:href="#m7566aa964f" y="387.72"/>
      </g>
     </g>
     <g id="text_4">
      <!-- $\mathdefault{10^{-2}}$ -->
      <g transform="translate(35.110336 396.022203)scale(0.24 -0.24)">
       <defs>
        <path d="M 65.90625 23 
C 67.59375 23 69.40625 23 69.40625 25 
C 69.40625 27 67.59375 27 65.90625 27 
L 11.796875 27 
C 10.09375 27 8.296875 27 8.296875 25 
C 8.296875 23 10.09375 23 11.796875 23 
z
" id="CMSY10-0"/>
        <path d="M 41.703125 15.46875 
L 39.90625 15.46875 
C 38.90625 8.390625 38.09375 7.1875 37.703125 6.59375 
C 37.203125 5.796875 30 5.796875 28.59375 5.796875 
L 9.40625 5.796875 
C 13 9.6875 20 16.765625 28.5 24.9375 
C 34.59375 30.71875 41.703125 37.5 41.703125 47.390625 
C 41.703125 59.1875 32.296875 66 21.796875 66 
C 10.796875 66 4.09375 56.296875 4.09375 47.296875 
C 4.09375 43.390625 7 42.890625 8.203125 42.890625 
C 9.203125 42.890625 12.203125 43.484375 12.203125 46.984375 
C 12.203125 50.09375 9.59375 51 8.203125 51 
C 7.59375 51 7 50.890625 6.59375 50.6875 
C 8.5 59.1875 14.296875 63.390625 20.40625 63.390625 
C 29.09375 63.390625 34.796875 56.5 34.796875 47.390625 
C 34.796875 38.703125 29.703125 31.21875 24 24.734375 
L 4.09375 2.296875 
L 4.09375 0 
L 39.296875 0 
z
" id="CMR17-50"/>
       </defs>
       <use transform="scale(0.996264)" xlink:href="#CMR17-49"/>
       <use transform="translate(45.690477 0)scale(0.996264)" xlink:href="#CMR17-48"/>
       <use transform="translate(91.380954 36.153639)scale(0.697382)" xlink:href="#CMSY10-0"/>
       <use transform="translate(145.621947 36.153639)scale(0.697382)" xlink:href="#CMR17-50"/>
      </g>
     </g>
    </g>
    <g id="ytick_2">
     <g id="line2d_19">
      <g>
       <use style="stroke:#000000;stroke-width:0.8;" x="85.25374" xlink:href="#m7566aa964f" y="221.461385"/>
      </g>
     </g>
     <g id="text_5">
      <!-- $\mathdefault{10^{-1}}$ -->
      <g transform="translate(35.110336 229.763587)scale(0.24 -0.24)">
       <use transform="scale(0.996264)" xlink:href="#CMR17-49"/>
       <use transform="translate(45.690477 0)scale(0.996264)" xlink:href="#CMR17-48"/>
       <use transform="translate(91.380954 36.153639)scale(0.697382)" xlink:href="#CMSY10-0"/>
       <use transform="translate(145.621947 36.153639)scale(0.697382)" xlink:href="#CMR17-49"/>
      </g>
     </g>
    </g>
    <g id="ytick_3">
     <g id="line2d_20">
      <g>
       <use style="stroke:#000000;stroke-width:0.8;" x="85.25374" xlink:href="#m7566aa964f" y="55.202769"/>
      </g>
     </g>
     <g id="text_6">
      <!-- $\mathdefault{10^{0}}$ -->
      <g transform="translate(48.12817 63.504972)scale(0.24 -0.24)">
       <use transform="scale(0.996264)" xlink:href="#CMR17-49"/>
       <use transform="translate(45.690477 0)scale(0.996264)" xlink:href="#CMR17-48"/>
       <use transform="translate(91.380954 36.153639)scale(0.697382)" xlink:href="#CMR17-48"/>
      </g>
     </g>
    </g>
    <g id="ytick_4">
     <g id="line2d_21">
      <defs>
       <path d="M 0 0 
L -2 0 
" id="mf2f4f064ad" style="stroke:#000000;stroke-width:0.6;"/>
      </defs>
      <g>
       <use style="stroke:#000000;stroke-width:0.6;" x="85.25374" xlink:href="#mf2f4f064ad" y="337.67117"/>
      </g>
     </g>
    </g>
    <g id="ytick_5">
     <g id="line2d_22">
      <g>
       <use style="stroke:#000000;stroke-width:0.6;" x="85.25374" xlink:href="#mf2f4f064ad" y="308.394481"/>
      </g>
     </g>
    </g>
    <g id="ytick_6">
     <g id="line2d_23">
      <g>
       <use style="stroke:#000000;stroke-width:0.6;" x="85.25374" xlink:href="#mf2f4f064ad" y="287.622339"/>
      </g>
     </g>
    </g>
    <g id="ytick_7">
     <g id="line2d_24">
      <g>
       <use style="stroke:#000000;stroke-width:0.6;" x="85.25374" xlink:href="#mf2f4f064ad" y="271.510215"/>
      </g>
     </g>
    </g>
    <g id="ytick_8">
     <g id="line2d_25">
      <g>
       <use style="stroke:#000000;stroke-width:0.6;" x="85.25374" xlink:href="#mf2f4f064ad" y="258.345651"/>
      </g>
     </g>
    </g>
    <g id="ytick_9">
     <g id="line2d_26">
      <g>
       <use style="stroke:#000000;stroke-width:0.6;" x="85.25374" xlink:href="#mf2f4f064ad" y="247.21517"/>
      </g>
     </g>
    </g>
    <g id="ytick_10">
     <g id="line2d_27">
      <g>
       <use style="stroke:#000000;stroke-width:0.6;" x="85.25374" xlink:href="#mf2f4f064ad" y="237.573509"/>
      </g>
     </g>
    </g>
    <g id="ytick_11">
     <g id="line2d_28">
      <g>
       <use style="stroke:#000000;stroke-width:0.6;" x="85.25374" xlink:href="#mf2f4f064ad" y="229.068962"/>
      </g>
     </g>
    </g>
    <g id="ytick_12">
     <g id="line2d_29">
      <g>
       <use style="stroke:#000000;stroke-width:0.6;" x="85.25374" xlink:href="#mf2f4f064ad" y="171.412554"/>
      </g>
     </g>
    </g>
    <g id="ytick_13">
     <g id="line2d_30">
      <g>
       <use style="stroke:#000000;stroke-width:0.6;" x="85.25374" xlink:href="#mf2f4f064ad" y="142.135865"/>
      </g>
     </g>
    </g>
    <g id="ytick_14">
     <g id="line2d_31">
      <g>
       <use style="stroke:#000000;stroke-width:0.6;" x="85.25374" xlink:href="#mf2f4f064ad" y="121.363724"/>
      </g>
     </g>
    </g>
    <g id="ytick_15">
     <g id="line2d_32">
      <g>
       <use style="stroke:#000000;stroke-width:0.6;" x="85.25374" xlink:href="#mf2f4f064ad" y="105.251599"/>
      </g>
     </g>
    </g>
    <g id="ytick_16">
     <g id="line2d_33">
      <g>
       <use style="stroke:#000000;stroke-width:0.6;" x="85.25374" xlink:href="#mf2f4f064ad" y="92.087035"/>
      </g>
     </g>
    </g>
    <g id="ytick_17">
     <g id="line2d_34">
      <g>
       <use style="stroke:#000000;stroke-width:0.6;" x="85.25374" xlink:href="#mf2f4f064ad" y="80.956555"/>
      </g>
     </g>
    </g>
    <g id="ytick_18">
     <g id="line2d_35">
      <g>
       <use style="stroke:#000000;stroke-width:0.6;" x="85.25374" xlink:href="#mf2f4f064ad" y="71.314894"/>
      </g>
     </g>
    </g>
    <g id="ytick_19">
     <g id="line2d_36">
      <g>
       <use style="stroke:#000000;stroke-width:0.6;" x="85.25374" xlink:href="#mf2f4f064ad" y="62.810346"/>
      </g>
     </g>
    </g>
    <g id="text_7">
     <!-- Naive density $1/\phi$ -->
     <g transform="translate(25.132752 284.109772)rotate(-90)scale(0.24 -0.24)">
      <defs>
       <path d="M 20.5 66.796875 
C 19.796875 67.890625 19.703125 68 17.796875 68 
L 5.09375 68 
L 5.09375 65.390625 
L 7 65.390625 
C 11 65.390625 12.796875 64.890625 13.09375 64.796875 
L 13.09375 9.75 
C 13.09375 7.265625 13.09375 2.59375 5.09375 2.59375 
L 5.09375 0 
C 7.40625 0.1875 11.59375 0.1875 14.09375 0.1875 
C 16.59375 0.1875 20.796875 0.1875 23.09375 0 
L 23.09375 2.59375 
C 15.09375 2.59375 15.09375 7.265625 15.09375 9.75 
L 15.09375 63.390625 
C 15.796875 62.796875 15.796875 62.609375 16.5 61.609375 
L 53.59375 1.1875 
C 54.296875 0 54.59375 0 55.09375 0 
C 56.09375 0 56.09375 0.296875 56.09375 2.1875 
L 56.09375 58.21875 
C 56.09375 60.703125 56.09375 65.390625 64.09375 65.390625 
L 64.09375 68 
C 61.796875 67.796875 57.59375 67.796875 55.09375 67.796875 
C 52.59375 67.796875 48.40625 67.796875 46.09375 68 
L 46.09375 65.390625 
C 54.09375 65.390625 54.09375 60.703125 54.09375 58.21875 
L 54.09375 12.140625 
z
" id="CMR17-78"/>
       <path d="M 30.90625 42 
C 30.90625 43.796875 30.796875 43.890625 30.203125 43.890625 
C 29.796875 43.890625 29.703125 43.796875 28.5 42.296875 
C 28.203125 41.890625 27.296875 40.890625 27 40.5 
C 23.796875 43.890625 19.296875 44 17.59375 44 
C 6.5 44 2.5 38.1875 2.5 32.390625 
C 2.5 23.390625 12.703125 21.296875 15.59375 20.6875 
C 21.90625 19.390625 24.09375 19 26.203125 17.1875 
C 27.5 16 29.703125 13.796875 29.703125 10.1875 
C 29.703125 6 27.296875 0.59375 18.09375 0.59375 
C 9.40625 0.59375 6.296875 7.1875 4.5 16 
C 4.203125 17.390625 4.203125 17.5 3.40625 17.5 
C 2.59375 17.5 2.5 17.390625 2.5 15.390625 
L 2.5 1 
C 2.5 -0.8125 2.59375 -0.90625 3.203125 -0.90625 
C 3.703125 -0.90625 3.796875 -0.8125 4.296875 0 
C 4.90625 0.890625 6.40625 3.296875 7 4.296875 
C 9 1.59375 12.5 -1 18.09375 -1 
C 28 -1 33.296875 4.390625 33.296875 12.1875 
C 33.296875 17.296875 30.59375 20 29.296875 21.1875 
C 26.296875 24.296875 22.796875 25 18.59375 25.796875 
C 13.09375 27 6.09375 28.390625 6.09375 34.5 
C 6.09375 37.09375 7.5 42.59375 17.59375 42.59375 
C 28.296875 42.59375 28.90625 32.59375 29.09375 29.390625 
C 29.203125 28.890625 29.703125 28.796875 30 28.796875 
C 30.90625 28.796875 30.90625 29.09375 30.90625 30.796875 
z
" id="CMR17-115"/>
       <path d="M 15.09375 40.390625 
L 29.09375 40.390625 
L 29.09375 43 
L 15.09375 43 
L 15.09375 62 
L 13.296875 62 
C 13.09375 51.4375 9.59375 42.1875 1.09375 41.984375 
L 1.09375 40.390625 
L 9.796875 40.390625 
L 9.796875 12.15625 
C 9.796875 10.234375 9.796875 -1 21.40625 -1 
C 27.296875 -1 30.703125 4.8125 30.703125 12.25 
L 30.703125 17.984375 
L 28.90625 17.984375 
L 28.90625 12.34375 
C 28.90625 5.421875 26.203125 0.796875 22 0.796875 
C 19.09375 0.796875 15.09375 2.796875 15.09375 11.953125 
z
" id="CMR17-116"/>
       <path d="M 39 34.109375 
C 41.5 40.296875 46 40.390625 47.40625 40.390625 
L 47.40625 43 
C 45.5 42.890625 43 42.796875 41.09375 42.796875 
C 39 42.796875 35.703125 42.796875 33.703125 43 
L 33.703125 40.390625 
C 37.5 40.09375 37.59375 37.25 37.59375 36.4375 
C 37.59375 35.4375 37.40625 34.921875 36.90625 33.71875 
L 26 6.390625 
L 14.09375 35.9375 
C 13.59375 37.15625 13.59375 37.859375 13.59375 37.96875 
C 13.59375 40.1875 15.90625 40.390625 18.296875 40.390625 
L 18.296875 43 
C 15.90625 42.796875 11.59375 42.796875 9.09375 42.796875 
C 6.40625 42.796875 3.203125 42.796875 1 43 
L 1 40.390625 
C 6.40625 40.390625 7 39.890625 8.296875 36.640625 
L 23.203125 -0.484375 
C 18.703125 -12.421875 16.09375 -19.40625 9.796875 -19.40625 
C 8.703125 -19.40625 6.203125 -19.109375 4.40625 -17.28125 
C 6.703125 -17.078125 7.703125 -15.65625 7.703125 -13.9375 
C 7.703125 -12.21875 6.5 -10.703125 4.5 -10.703125 
C 2.296875 -10.703125 1.203125 -12.21875 1.203125 -14.046875 
C 1.203125 -18.09375 5.296875 -21 9.796875 -21 
C 15.59375 -21 19.203125 -15.359375 21.203125 -10.296875 
z
" id="CMR17-121"/>
       <path d="M 43 68.09375 
C 43 69 42.296875 69 42 69 
C 41.09375 69 41 68.796875 40.59375 67.09375 
L 35.203125 45.6875 
C 34.90625 44.390625 34.796875 44.296875 34.703125 44.1875 
C 34.59375 44 33.90625 43.890625 33.703125 43.890625 
C 17.296875 42.5 4.703125 29.109375 4.703125 16.734375 
C 4.703125 6.046875 13 -0.5 23.40625 -1.109375 
C 22.59375 -4.15625 21.90625 -7.296875 21.09375 -10.34375 
C 19.703125 -15.546875 18.90625 -18.8125 18.90625 -19.203125 
C 18.90625 -19.40625 18.90625 -20 19.90625 -20 
C 20.203125 -20 20.59375 -20 20.796875 -19.609375 
C 21 -19.40625 21.59375 -17.015625 22 -15.75 
L 25.703125 -1.109375 
C 42.796875 -0.203125 55.796875 13.671875 55.796875 26.140625 
C 55.796875 36.140625 48.203125 43.296875 37.09375 44 
z
M 36.5 42 
C 43.09375 41.59375 49.703125 37.9375 49.703125 28.21875 
C 49.703125 17.03125 41.796875 2.1875 26.203125 1 
z
M 23.90625 0.890625 
C 19 1.1875 10.796875 3.765625 10.796875 14.65625 
C 10.796875 27.140625 19.90625 41 34.296875 41.890625 
z
" id="CMMI12-30"/>
      </defs>
      <use transform="scale(0.996264)" xlink:href="#CMR17-78"/>
      <use transform="translate(69.07243 0)scale(0.996264)" xlink:href="#CMR17-97"/>
      <use transform="translate(114.762907 0)scale(0.996264)" xlink:href="#CMR17-105"/>
      <use transform="translate(139.633965 0)scale(0.996264)" xlink:href="#CMR17-118"/>
      <use transform="translate(185.324427 0)scale(0.996264)" xlink:href="#CMR17-101"/>
      <use transform="translate(255.886054 0)scale(0.996264)" xlink:href="#CMR17-100"/>
      <use transform="translate(306.781424 0)scale(0.996264)" xlink:href="#CMR17-101"/>
      <use transform="translate(347.267084 0)scale(0.996264)" xlink:href="#CMR17-110"/>
      <use transform="translate(398.162454 0)scale(0.996264)" xlink:href="#CMR17-115"/>
      <use transform="translate(433.963792 0)scale(0.996264)" xlink:href="#CMR17-105"/>
      <use transform="translate(458.83485 0)scale(0.996264)" xlink:href="#CMR17-116"/>
      <use transform="translate(491.513164 0)scale(0.996264)" xlink:href="#CMR17-121"/>
      <use transform="translate(569.882046 0)scale(0.996264)" xlink:href="#CMR17-49"/>
      <use transform="translate(615.572523 0)scale(0.996264)" xlink:href="#CMMI12-61"/>
      <use transform="translate(664.347442 0)scale(0.996264)" xlink:href="#CMMI12-30"/>
     </g>
    </g>
   </g>
   <g id="line2d_37">
    <path clip-path="url(#p115159f3f6)" d="M 85.25374 25.92608 
L 96.964581 39.892888 
L 109.060637 53.859695 
L 122.641889 67.826503 
L 138.285139 81.79331 
L 155.977724 95.760118 
L 175.033056 109.726925 
L 196.043239 123.693732 
L 217.683218 137.66054 
L 239.586231 151.627347 
L 261.694357 165.594155 
L 283.493385 179.560962 
L 304.981237 193.52777 
L 325.636947 207.494577 
L 345.82595 221.461385 
L 348.144514 222.920125 
L 354.661337 227.418775 
L 360.95866 231.917426 
L 367.217703 236.416076 
L 373.592088 240.914726 
L 379.595119 245.413377 
L 385.73802 249.912027 
L 391.901636 254.410677 
L 397.866159 258.909328 
L 403.8011 263.407978 
L 409.642919 267.906628 
L 415.562916 272.405278 
L 421.369827 276.903929 
L 427.072126 281.402579 
L 433.026301 285.901229 
L 438.903512 290.39988 
L 444.572365 294.89853 
L 450.047084 299.39718 
L 455.825849 303.895831 
L 461.209451 308.394481 
L 460.897018 308.394481 
L 472.315089 317.208427 
L 482.801243 326.022374 
L 492.990951 334.836321 
L 503.612832 343.650267 
L 514.187959 352.464214 
L 524.41806 361.27816 
L 534.772786 370.092107 
L 544.963478 378.906053 
L 554.854709 387.72 
" style="fill:none;stroke:#d62728;stroke-linecap:square;stroke-width:2;"/>
   </g>
   <g id="line2d_38">
    <path clip-path="url(#p115159f3f6)" d="M 183.536521 400.447687 
L 189.203663 378.312387 
L 191.039038 371.560144 
L 195.27247 356.733409 
L 195.542462 355.822471 
L 201.682934 336.187563 
L 206.07026 323.383359 
L 207.296037 319.981183 
L 211.05278 310.01554 
L 211.329673 309.308037 
L 213.416632 304.092314 
L 214.039859 302.574306 
L 214.782627 300.788601 
L 220.277917 288.350904 
L 221.159322 286.479589 
L 221.525308 285.712355 
L 222.747072 283.192348 
L 223.034589 282.608476 
L 225.729207 277.30341 
L 229.84947 269.759796 
L 231.811815 266.400648 
L 233.720287 263.273937 
L 234.565439 261.932669 
L 237.967187 256.796902 
L 246.524599 245.647818 
L 247.768939 244.226655 
L 254.501694 237.359837 
L 261.647794 231.496865 
L 264.158759 229.761288 
L 275.969507 223.654869 
L 291.038604 220.163745 
L 291.038604 220.163745 
L 293.676007 219.981002 
L 322.283343 224.432058 
L 333.08822 228.520394 
L 345.828844 234.545219 
L 358.205782 241.36041 
L 365.924995 245.979725 
L 372.307135 249.968296 
L 376.917359 252.929382 
L 385.164044 258.363953 
L 390.413302 261.899087 
L 402.780449 270.401348 
L 407.155547 273.453554 
L 415.648335 279.425775 
L 420.39267 282.783629 
L 430.639048 290.075427 
L 431.893575 290.971401 
L 438.292467 295.551217 
L 442.918156 298.871979 
L 450.127776 304.065619 
L 455.248326 307.769338 
L 455.743081 308.127941 
L 463.23792 313.578696 
L 479.576412 325.619933 
L 490.081564 333.527096 
L 503.612832 343.986785 
L 514.187959 352.443094 
L 524.41806 360.918901 
L 534.772786 369.851802 
L 544.963478 379.048739 
L 554.854709 388.415037 
" style="fill:none;stroke:#1f77b4;stroke-linecap:square;stroke-width:2;"/>
   </g>
   <g id="line2d_39">
    <defs>
     <path d="M -4 4 
L 4 -4 
M -4 -4 
L 4 4 
" id="md981ffcbf4" style="stroke:#000000;"/>
    </defs>
    <g clip-path="url(#p115159f3f6)">
     <use style="stroke:#000000;" x="168.917928" xlink:href="#md981ffcbf4" y="358.443311"/>
    </g>
   </g>
   <g id="line2d_40">
    <g clip-path="url(#p115159f3f6)">
     <use style="stroke:#000000;" x="390.49571" xlink:href="#md981ffcbf4" y="358.443311"/>
    </g>
   </g>
   <g id="patch_3">
    <path d="M 85.25374 387.72 
L 85.25374 7.2 
" style="fill:none;stroke:#000000;stroke-linecap:square;stroke-linejoin:miter;stroke-width:0.8;"/>
   </g>
   <g id="patch_4">
    <path d="M 587.45374 387.72 
L 587.45374 7.2 
" style="fill:none;stroke:#000000;stroke-linecap:square;stroke-linejoin:miter;stroke-width:0.8;"/>
   </g>
   <g id="patch_5">
    <path d="M 85.25374 387.72 
L 587.45374 387.72 
" style="fill:none;stroke:#000000;stroke-linecap:square;stroke-linejoin:miter;stroke-width:0.8;"/>
   </g>
   <g id="patch_6">
    <path d="M 85.25374 7.2 
L 587.45374 7.2 
" style="fill:none;stroke:#000000;stroke-linecap:square;stroke-linejoin:miter;stroke-width:0.8;"/>
   </g>
   <g id="text_8">
    <!-- Monoclonal -->
    <g transform="translate(130.750277 292.273097)rotate(-90)scale(0.24 -0.24)">
     <defs>
      <path d="M 20.90625 66.390625 
C 20.296875 67.890625 20.203125 68 18.09375 68 
L 5.296875 68 
L 5.296875 65.390625 
C 12.203125 65.390625 13.296875 65.390625 13.296875 60.90625 
L 13.296875 9.75 
C 13.296875 7.265625 13.296875 2.59375 5.296875 2.59375 
L 5.296875 0 
C 7.59375 0.1875 11.796875 0.1875 14.296875 0.1875 
C 16.796875 0.1875 21 0.1875 23.296875 0 
L 23.296875 2.59375 
C 15.296875 2.59375 15.296875 7.265625 15.296875 9.75 
L 15.296875 64.984375 
L 15.40625 64.984375 
L 38.90625 1.59375 
C 39.296875 0.59375 39.5 0 40.296875 0 
C 41.09375 0 41.296875 0.59375 41.703125 1.59375 
L 65.40625 65.484375 
L 65.5 65.484375 
L 65.5 7.078125 
C 65.5 2.59375 64.40625 2.59375 57.5 2.59375 
L 57.5 0 
C 60.203125 0.1875 65.59375 0.1875 68.5 0.1875 
C 71.40625 0.1875 76.90625 0.1875 79.59375 0 
L 79.59375 2.59375 
C 72.703125 2.59375 71.59375 2.59375 71.59375 7.078125 
L 71.59375 60.90625 
C 71.59375 65.390625 72.703125 65.390625 79.59375 65.390625 
L 79.59375 68 
L 66.90625 68 
C 64.796875 68 64.703125 67.890625 64.09375 66.390625 
L 42.5 8.0625 
z
" id="CMR17-77"/>
      <path d="M 43.09375 21.1875 
C 43.09375 34 33.796875 44 22.90625 44 
C 12 44 2.703125 34 2.703125 21.1875 
C 2.703125 8.59375 12 -1 22.90625 -1 
C 33.796875 -1 43.09375 8.59375 43.09375 21.1875 
z
M 22.90625 0.796875 
C 18.203125 0.796875 14.203125 3.59375 11.90625 7.5 
C 9.40625 12 9.09375 17.59375 9.09375 22 
C 9.09375 26.1875 9.296875 31.390625 11.90625 35.890625 
C 13.90625 39.1875 17.796875 42.390625 22.90625 42.390625 
C 27.40625 42.390625 31.203125 39.890625 33.59375 36.390625 
C 36.703125 31.6875 36.703125 25.09375 36.703125 22 
C 36.703125 18.09375 36.5 12.09375 33.796875 7.296875 
C 31 2.6875 26.703125 0.796875 22.90625 0.796875 
z
" id="CMR17-111"/>
     </defs>
     <use transform="scale(0.996264)" xlink:href="#CMR17-77"/>
     <use transform="translate(84.686941 0)scale(0.996264)" xlink:href="#CMR17-111"/>
     <use transform="translate(130.377418 0)scale(0.996264)" xlink:href="#CMR17-110"/>
     <use transform="translate(181.272787 0)scale(0.996264)" xlink:href="#CMR17-111"/>
     <use transform="translate(229.565703 0)scale(0.996264)" xlink:href="#CMR17-99"/>
     <use transform="translate(270.051364 0)scale(0.996264)" xlink:href="#CMR17-108"/>
     <use transform="translate(294.922422 0)scale(0.996264)" xlink:href="#CMR17-111"/>
     <use transform="translate(340.612899 0)scale(0.996264)" xlink:href="#CMR17-110"/>
     <use transform="translate(391.508269 0)scale(0.996264)" xlink:href="#CMR17-97"/>
     <use transform="translate(437.198746 0)scale(0.996264)" xlink:href="#CMR17-108"/>
    </g>
    <!-- response -->
    <g transform="translate(155.326321 292.273097)rotate(-90)scale(0.24 -0.24)">
     <defs>
      <path d="M 22 -17.40625 
C 15.59375 -17.40625 15.203125 -17 15.203125 -13.03125 
L 15.203125 5.9375 
C 18.09375 1.703125 22.296875 -1 27.59375 -1 
C 37.59375 -1 47.703125 7.859375 47.703125 21.59375 
C 47.703125 34.3125 39 44 28.703125 44 
C 22.703125 44 17.796875 40.671875 15 36.640625 
L 15 44 
L 3.09375 42.890625 
L 3.09375 40.265625 
C 9 40.265625 9.90625 39.671875 9.90625 34.8125 
L 9.90625 -13.03125 
C 9.90625 -16.890625 9.5 -17.40625 3.09375 -17.40625 
L 3.09375 -20 
C 5.5 -19.8125 9.90625 -19.8125 12.5 -19.8125 
C 15.09375 -19.8125 19.59375 -19.8125 22 -20 
z
M 15.203125 31.484375 
C 15.203125 32.90625 15.203125 35.015625 19.09375 38.765625 
C 19.59375 39.15625 23 42.1875 28 42.1875 
C 35.296875 42.1875 41.296875 33 41.296875 21.5 
C 41.296875 9.984375 34.90625 0.59375 27 0.59375 
C 23.40625 0.59375 19.5 2.3125 16.5 7.046875 
C 15.203125 9.28125 15.203125 9.875 15.203125 11.5 
z
" id="CMR17-112"/>
     </defs>
     <use transform="scale(0.996264)" xlink:href="#CMR17-114"/>
     <use transform="translate(35.280768 0)scale(0.996264)" xlink:href="#CMR17-101"/>
     <use transform="translate(75.766428 0)scale(0.996264)" xlink:href="#CMR17-115"/>
     <use transform="translate(111.567766 0)scale(0.996264)" xlink:href="#CMR17-112"/>
     <use transform="translate(165.065574 0)scale(0.996264)" xlink:href="#CMR17-111"/>
     <use transform="translate(210.756052 0)scale(0.996264)" xlink:href="#CMR17-110"/>
     <use transform="translate(261.651421 0)scale(0.996264)" xlink:href="#CMR17-115"/>
     <use transform="translate(297.452759 0)scale(0.996264)" xlink:href="#CMR17-101"/>
    </g>
   </g>
   <g id="text_9">
    <!-- Polyclonal -->
    <g transform="translate(278.498238 313.095126)scale(0.24 -0.24)">
     <defs>
      <path d="M 19.796875 32 
L 35.796875 32 
C 48.703125 32 58.09375 40.359375 58.09375 49.796875 
C 58.09375 59.234375 48.90625 68 35.796875 68 
L 5.203125 68 
L 5.203125 65.390625 
C 12.09375 65.390625 13.203125 65.390625 13.203125 60.921875 
L 13.203125 7.078125 
C 13.203125 2.59375 12.09375 2.59375 5.203125 2.59375 
L 5.203125 0 
C 8.09375 0.1875 13.40625 0.1875 16.5 0.1875 
C 19.59375 0.1875 24.90625 0.1875 27.796875 0 
L 27.796875 2.59375 
C 20.90625 2.59375 19.796875 2.59375 19.796875 7.078125 
z
M 19.59375 34.09375 
L 19.59375 61.515625 
C 19.59375 64.890625 19.796875 65.390625 23.796875 65.390625 
L 33.90625 65.390625 
C 46.796875 65.390625 50.5 58.046875 50.5 49.796875 
C 50.5 40.75 46.09375 34.09375 33.90625 34.09375 
z
" id="CMR17-80"/>
     </defs>
     <use transform="scale(0.996264)" xlink:href="#CMR17-80"/>
     <use transform="translate(59.983847 0)scale(0.996264)" xlink:href="#CMR17-111"/>
     <use transform="translate(105.674324 0)scale(0.996264)" xlink:href="#CMR17-108"/>
     <use transform="translate(130.545382 0)scale(0.996264)" xlink:href="#CMR17-121"/>
     <use transform="translate(178.838298 0)scale(0.996264)" xlink:href="#CMR17-99"/>
     <use transform="translate(219.323958 0)scale(0.996264)" xlink:href="#CMR17-108"/>
     <use transform="translate(244.195017 0)scale(0.996264)" xlink:href="#CMR17-111"/>
     <use transform="translate(289.885494 0)scale(0.996264)" xlink:href="#CMR17-110"/>
     <use transform="translate(340.780864 0)scale(0.996264)" xlink:href="#CMR17-97"/>
     <use transform="translate(386.471341 0)scale(0.996264)" xlink:href="#CMR17-108"/>
    </g>
    <!-- response -->
    <g transform="translate(278.498238 337.67117)scale(0.24 -0.24)">
     <use transform="scale(0.996264)" xlink:href="#CMR17-114"/>
     <use transform="translate(35.280768 0)scale(0.996264)" xlink:href="#CMR17-101"/>
     <use transform="translate(75.766428 0)scale(0.996264)" xlink:href="#CMR17-115"/>
     <use transform="translate(111.567766 0)scale(0.996264)" xlink:href="#CMR17-112"/>
     <use transform="translate(165.065574 0)scale(0.996264)" xlink:href="#CMR17-111"/>
     <use transform="translate(210.756052 0)scale(0.996264)" xlink:href="#CMR17-110"/>
     <use transform="translate(261.651421 0)scale(0.996264)" xlink:href="#CMR17-115"/>
     <use transform="translate(297.452759 0)scale(0.996264)" xlink:href="#CMR17-101"/>
    </g>
   </g>
   <g id="text_10">
    <!-- Naive -->
    <g transform="translate(409.582916 146.836511)scale(0.24 -0.24)">
     <use transform="scale(0.996264)" xlink:href="#CMR17-78"/>
     <use transform="translate(69.07243 0)scale(0.996264)" xlink:href="#CMR17-97"/>
     <use transform="translate(114.762907 0)scale(0.996264)" xlink:href="#CMR17-105"/>
     <use transform="translate(139.633965 0)scale(0.996264)" xlink:href="#CMR17-118"/>
     <use transform="translate(185.324427 0)scale(0.996264)" xlink:href="#CMR17-101"/>
    </g>
    <!--  response -->
    <g transform="translate(409.582916 171.412554)scale(0.24 -0.24)">
     <use transform="scale(0.996264)" xlink:href="#CMR17-114"/>
     <use transform="translate(35.280768 0)scale(0.996264)" xlink:href="#CMR17-101"/>
     <use transform="translate(75.766428 0)scale(0.996264)" xlink:href="#CMR17-115"/>
     <use transform="translate(111.567766 0)scale(0.996264)" xlink:href="#CMR17-112"/>
     <use transform="translate(165.065574 0)scale(0.996264)" xlink:href="#CMR17-111"/>
     <use transform="translate(210.756052 0)scale(0.996264)" xlink:href="#CMR17-110"/>
     <use transform="translate(261.651421 0)scale(0.996264)" xlink:href="#CMR17-115"/>
     <use transform="translate(297.452759 0)scale(0.996264)" xlink:href="#CMR17-101"/>
    </g>
   </g>
  </g>
 </g>
 <defs>
  <clipPath id="p115159f3f6">
   <rect height="380.52" width="502.2" x="85.25374" y="7.2"/>
  </clipPath>
 </defs>
</svg>
